<svg xmlns="http://www.w3.org/2000/svg" width="16" height="128" viewBox="0 0 16 160"><path d="M7.938 39.933a2 2 0 1 1 0-4.001 2 2 0 0 1 0 4.001m0-8a6 6 0 0 0-6 6v1.2c0 3.314 6 8.8 6 8.8s6-5.486 6-8.8v-1.2a6 6 0 0 0-6-6" fill="#8792a9"/><g fill="#8792a9"><path d="M7.937 78.113a6.222 6.222 0 0 1-6.221-6.223 6.222 6.222 0 1 1 6.221 6.223m0-13.223a7 7 0 1 0 0 14 7 7 0 1 0 0-14"/><path d="M11.048 71.112H8.715v-3.111a.778.778 0 0 0-1.555 0v3.888c0 .43.348.779.777.779h3.111a.778.778 0 0 0 0-1.556"/></g><path d="M8.318 111.926h2.285v-3.81H8.318v3.81zm-1.523-5.333V95.927H1.46c-.84 0-1.523.682-1.523 1.523v12.952c0 .841.682 1.524 1.523 1.524h5.334v-5.333zm3.81-2.286H8.319v2.286h2.286v-2.286zm5.333-1.523V97.45c0-.84-.683-1.524-1.524-1.524H8.319v6.858h7.619zm-3.81 3.809v5.334h2.285c.842 0 1.525-.684 1.525-1.525v-6.094h-3.81v2.285zM11.137 9.554h-6.4c-2.65 0-4.8 2.09-4.8 4.668v.777c0-.195 16 0 16 0v-.777c0-2.577-2.148-4.668-4.8-4.668m-3.2-2.334c1.768 0 3.2-1.392 3.2-3.11 0-1.72-1.432-3.111-3.2-3.111-1.767 0-3.2 1.392-3.2 3.11 0 1.719 1.433 3.112 3.2 3.112" fill="#8792a9"/><path d="M11.137 25.654h-6.4c-2.65 0-4.8 2.09-4.8 4.667v.777c0-.194 16 0 16 0v-.777c0-2.577-2.148-4.667-4.8-4.667m-3.2-2.334c1.768 0 3.2-1.393 3.2-3.111 0-1.719-1.432-3.11-3.2-3.11-1.767 0-3.2 1.391-3.2 3.11 0 1.718 1.433 3.111 3.2 3.111M7.938 55.96a2 2 0 1 1 0-4.002 2 2 0 0 1 0 4.001m0-8a6 6 0 0 0-6 6v1.2c0 3.314 6 8.8 6 8.8s6-5.486 6-8.8v-1.2a6 6 0 0 0-6-6" fill="#3498db"/><g fill="#3498db"><path d="M7.937 94.156a6.222 6.222 0 0 1-6.221-6.223 6.222 6.222 0 1 1 6.221 6.223m0-13.223a7 7 0 1 0 0 14 7 7 0 1 0 0-14"/><path d="M11.048 87.155H8.715v-3.112a.778.778 0 0 0-1.555 0v3.89c0 .43.348.778.777.778h3.111a.778.778 0 0 0 0-1.556"/></g><path d="M8.318 127.92h2.285v-3.808H8.318v3.809zm-1.523-5.332v-10.666H1.46c-.84 0-1.523.682-1.523 1.523v12.952c0 .841.682 1.524 1.523 1.524h5.334v-5.333zm3.81-2.286H8.319v2.286h2.286v-2.286zm5.333-1.523v-5.334c0-.84-.683-1.524-1.524-1.524H8.319v6.858h7.619zm-3.81 3.809v5.334h2.285c.842 0 1.525-.684 1.525-1.525v-6.094h-3.81v2.285z" fill="#3498db"/><svg xmlns="http://www.w3.org/2000/svg" width="16" y="128" height="16" viewBox="0 0 16 16"><circle fill="#8792a9" cx="8" cy="8" r="8"/><svg xmlns="http://www.w3.org/2000/svg" width="14" height="14" viewBox="0 0 14 14"><path class="a" d="M9.9 8.5l2.8-2.8a1 1 0 0 0-1.4-1.4L8.5 7.1 5.7 4.3a1 1 0 0 0-1.4 1.4l2.8 2.8-2.8 2.8a1 1 0 0 0 1.4 1.4l2.8-2.8 2.8 2.8a1 1 0 0 0 1.4-1.4z" fill="#fff"/></svg></svg><svg xmlns="http://www.w3.org/2000/svg" width="16" y="144" height="16" viewBox="0 0 16 16"><circle fill="#3498db" cx="8" cy="8" r="8"/><svg xmlns="http://www.w3.org/2000/svg" width="14" height="14" viewBox="0 0 14 14"><path class="a" d="M9.9 8.5l2.8-2.8a1 1 0 0 0-1.4-1.4L8.5 7.1 5.7 4.3a1 1 0 0 0-1.4 1.4l2.8 2.8-2.8 2.8a1 1 0 0 0 1.4 1.4l2.8-2.8 2.8 2.8a1 1 0 0 0 1.4-1.4z" fill="#fff"/></svg></svg></svg>
