<?xml version="1.0" encoding="UTF-8" standalone="no"?>
<!DOCTYPE svg PUBLIC "-//W3C//DTD SVG 1.1//EN" "http://www.w3.org/Graphics/SVG/1.1/DTD/svg11.dtd">
<svg width="100%" height="100%" viewBox="0 0 30 30" version="1.1" xmlns="http://www.w3.org/2000/svg" xmlns:xlink="http://www.w3.org/1999/xlink" xml:space="preserve" style="fill-rule:evenodd;clip-rule:evenodd;stroke-linejoin:round;stroke-miterlimit:1.41421;">
    <g transform="matrix(1,0,0,1,-34753.3,-9094.73)">
        <path d="M34770.4,9096.74C34761.5,9095.38 34754,9102.92 34755.3,9111.81C34756.2,9117.35 34760.7,9121.88 34766.2,9122.73C34775.1,9124.09 34782.7,9116.54 34781.3,9107.66C34780.5,9102.11 34775.9,9097.59 34770.4,9096.74ZM34766.7,9115.13C34767.1,9115.13 34767.4,9114.91 34767.6,9114.62L34773.1,9105.75C34773.4,9105.25 34773.2,9104.56 34772.7,9104.24C34772.2,9103.92 34771.5,9104.08 34771.2,9104.59L34766.5,9112.1L34764.7,9109.64C34764.3,9109.17 34763.6,9109.07 34763.2,9109.42C34762.7,9109.8 34762.6,9110.49 34762.9,9110.97L34765.8,9114.69C34766,9114.97 34766.3,9115.13 34766.6,9115.13L34766.7,9115.13Z" style="fill:white;"/>
    </g>
</svg>
