<?xml version="1.0" encoding="UTF-8" standalone="no"?>
<!DOCTYPE svg PUBLIC "-//W3C//DTD SVG 1.1//EN" "http://www.w3.org/Graphics/SVG/1.1/DTD/svg11.dtd">
<svg width="100%" height="100%" viewBox="0 0 50 50" version="1.1" xmlns="http://www.w3.org/2000/svg" xmlns:xlink="http://www.w3.org/1999/xlink" xml:space="preserve" style="fill-rule:evenodd;clip-rule:evenodd;stroke-linejoin:round;stroke-miterlimit:1.41421;">
    <g transform="matrix(4.16667,0,0,4.16667,-1300.34,-1134.99)">
        <path d="M319.252,279.121C319.309,279.178 319.344,279.257 319.344,279.345C319.344,279.519 319.203,279.66 319.028,279.66C318.941,279.66 318.863,279.625 318.806,279.567C318.599,279.361 318.996,279.758 318.081,278.844C317.167,279.758 317.564,279.361 317.358,279.567C317.3,279.624 317.222,279.66 317.134,279.66C316.96,279.66 316.818,279.519 316.818,279.345C316.818,279.257 316.854,279.178 316.911,279.121L317.635,278.397C316.721,277.482 317.118,277.88 316.911,277.673C316.854,277.616 316.818,277.537 316.818,277.45C316.818,277.275 316.96,277.135 317.134,277.135C317.222,277.135 317.301,277.17 317.358,277.227L318.081,277.95C318.996,277.036 318.599,277.433 318.806,277.227C318.862,277.169 318.941,277.135 319.028,277.135C319.203,277.135 319.344,277.275 319.344,277.45C319.344,277.537 319.309,277.616 319.252,277.673C319.045,277.88 319.443,277.482 318.528,278.397C319.443,279.312 319.045,278.915 319.252,279.121M318.081,275.24C316.338,275.24 314.924,276.653 314.924,278.397C314.924,280.141 316.338,281.554 318.081,281.554C319.825,281.554 321.238,280.141 321.238,278.397C321.238,276.653 319.825,275.24 318.081,275.24" style="fill:white;fill-rule:nonzero;"/>
    </g>
</svg>
