<?xml version="1.0" encoding="UTF-8" standalone="no"?>
<!DOCTYPE svg PUBLIC "-//W3C//DTD SVG 1.1//EN" "http://www.w3.org/Graphics/SVG/1.1/DTD/svg11.dtd">
<svg width="100%" height="100%" viewBox="0 0 100 67" version="1.1" xmlns="http://www.w3.org/2000/svg" xmlns:xlink="http://www.w3.org/1999/xlink" xml:space="preserve" style="fill-rule:evenodd;clip-rule:evenodd;stroke-linejoin:round;stroke-miterlimit:1.41421;">
    <g id="dashboard">
        <g transform="matrix(4.16667,0,0,4.16667,-1191.59,-1394.16)">
            <g>
                <g transform="matrix(0.24,-0,-0,0.24,285.982,334.598)">
                    <use xlink:href="#_Image1" x="22.729" y="9.515" width="52.525px" height="50.508px" transform="matrix(0.991035,0,0,0.990354,0,0)"/>
                </g>
                <path d="M301.772,346.044C301.772,346.424 301.463,346.733 301.083,346.733L294.882,346.733C294.503,346.733 294.193,346.424 294.193,346.044L294.193,339.842C294.193,339.462 294.503,339.154 294.882,339.154L301.083,339.154C301.463,339.154 301.772,339.462 301.772,339.842L301.772,346.044ZM301.083,338.465L294.882,338.465C294.121,338.465 293.504,339.082 293.504,339.842L293.504,346.044C293.504,346.805 294.121,347.422 294.882,347.422L301.083,347.422C301.844,347.422 302.461,346.805 302.461,346.044L302.461,339.842C302.461,339.082 301.844,338.465 301.083,338.465" style="fill:#e9edf6;fill-rule:nonzero;"/>
                <path d="M300.394,339.843L299.016,339.843C298.636,339.843 298.327,340.152 298.327,340.532L298.327,341.91C298.327,342.29 298.636,342.599 299.016,342.599L300.394,342.599C300.774,342.599 301.083,342.29 301.083,341.91L301.083,340.532C301.083,340.152 300.774,339.843 300.394,339.843" style="fill:#e9edf6;fill-rule:nonzero;"/>
                <path d="M300.394,345.355L299.016,345.355L299.016,343.977L300.394,343.977L300.394,345.355ZM300.394,343.288L299.016,343.288C298.635,343.288 298.327,343.596 298.327,343.977L298.327,345.355C298.327,345.735 298.635,346.044 299.016,346.044L300.394,346.044C300.774,346.044 301.083,345.735 301.083,345.355L301.083,343.977C301.083,343.596 300.774,343.288 300.394,343.288" style="fill:#e9edf6;fill-rule:nonzero;"/>
                <path d="M296.949,343.288L295.571,343.288C295.191,343.288 294.882,343.597 294.882,343.977L294.882,345.355C294.882,345.735 295.191,346.044 295.571,346.044L296.949,346.044C297.329,346.044 297.638,345.735 297.638,345.355L297.638,343.977C297.638,343.597 297.329,343.288 296.949,343.288" style="fill:#e9edf6;fill-rule:nonzero;"/>
                <path d="M296.949,342.599L295.571,342.599C295.191,342.599 294.882,342.29 294.882,341.91L294.882,340.532C294.882,340.152 295.191,339.843 295.571,339.843L296.949,339.843C297.329,339.843 297.638,340.152 297.638,340.532L297.638,341.91C297.638,342.29 297.329,342.599 296.949,342.599" style="fill:#e9edf6;fill-rule:nonzero;"/>
            </g>
        </g>

    </g>

</svg>
