<?xml version="1.0" encoding="UTF-8" standalone="no"?>
<!DOCTYPE svg PUBLIC "-//W3C//DTD SVG 1.1//EN" "http://www.w3.org/Graphics/SVG/1.1/DTD/svg11.dtd">
<svg width="100%" height="100%" viewBox="0 0 16 16" version="1.1" xmlns="http://www.w3.org/2000/svg" xmlns:xlink="http://www.w3.org/1999/xlink" xml:space="preserve" style="fill-rule:evenodd;clip-rule:evenodd;stroke-linejoin:round;stroke-miterlimit:1.41421;">
    <g>
        <path d="M15,2L12,2C12,0.903 11.097,0 10,0L6,0C4.903,0 4,0.903 4,2L1,2C0.451,2 0,2.451 0,3C0,3.549 0.451,4 1,4L2,4L2,14C2,15.097 2.903,16 4,16L12,16C13.097,16 14,15.097 14,14L14,4L15,4C15.549,4 16,3.549 16,3C16,2.451 15.549,2 15,2ZM6,1L10,1C10.549,1 11,1.451 11,2L5,2C5,1.451 5.451,1 6,1ZM12,14L4,14L4,4L12,4L12,14Z" style="fill:white;fill-rule:nonzero;"/>
        <g transform="matrix(-3.82857e-16,1,-1,-3.82857e-16,15.5,2.5)">
            <path d="M9.5,9C9.5,8.724 9.276,8.5 9,8.5L4,8.5C3.724,8.5 3.5,8.724 3.5,9C3.5,9.276 3.724,9.5 4,9.5L9,9.5C9.276,9.5 9.5,9.276 9.5,9Z" style="fill:white;"/>
        </g>
        <g transform="matrix(-3.82857e-16,1,-1,-3.82857e-16,18.5,-0.5)">
            <path d="M12.5,9C12.5,8.724 12.276,8.5 12,8.5L7,8.5C6.724,8.5 6.5,8.724 6.5,9C6.5,9.276 6.724,9.5 7,9.5L12,9.5C12.276,9.5 12.5,9.276 12.5,9Z" style="fill:white;"/>
        </g>
    </g>
</svg>
