<svg xmlns="http://www.w3.org/2000/svg" xmlns:xlink="http://www.w3.org/1999/xlink" viewBox="0 0 100 67" fill-rule="evenodd" clip-rule="evenodd" stroke-linejoin="round" stroke-miterlimit="1.414"><g transform="translate(-1190.16 -1155.89) scale(4.16667)" opacity=""><clipPath id="a"><path d="M289.37 278.524h16.535v13.779H289.37z"/></clipPath><g clip-path="url(#a)"><path d="M303.077 283.347h-10.879a.688.688 0 0 0-.685.757l.551 5.512a.688.688 0 0 0 .685.621h9.777c.354 0 .65-.268.685-.621l.552-5.512a.69.69 0 0 0-.686-.757M302.805 281.969h-5.512a.686.686 0 0 1-.487-.202l-.974-.974a.688.688 0 0 0-.487-.202h-2.53a.69.69 0 0 0-.689.689v1.033a.344.344 0 1 0 .689 0v-1.033h2.529l.975.974c.26.261.606.404.974.404h5.512a.344.344 0 0 0 0-.689" fill="#e9edf6" fill-rule="nonzero"/></g></g>
<defs></defs></svg>