<?xml version="1.0" encoding="UTF-8"?>
<svg width="22px" height="18px" viewBox="0 0 22 18" version="1.1" xmlns="http://www.w3.org/2000/svg" xmlns:xlink="http://www.w3.org/1999/xlink">
    <g id="comments" fill="#ffffff" fill-rule="nonzero">
        <path d="M8.55500031,12.4833113 C7.11902059,12.4833113 5.76595563,12.2250191 4.57757443,11.7691216 C3.3793015,12.7066961 1.90913998,13.2780097 0.347279544,13.4417769 C0.335987729,13.4429601 0.324642328,13.4435593 0.313288694,13.4435719 C0.170603511,13.4435719 0.0417056265,13.3481684 0.00710370561,13.2120904 C-0.0303244207,13.060812 0.0868485299,12.9677 0.202875722,12.8567142 C0.77640447,12.3052604 1.4716892,11.8717434 1.743616,10.0191657 C0.649836296,8.97075804 0,7.66214853 0,6.24167475 C0,2.79412421 3.83053958,0 8.55500031,0 C13.279461,0 17.1100006,2.79408601 17.1100006,6.24167475 C17.1099624,9.69163139 13.279461,12.4833113 8.55500031,12.4833113 Z M21.8101712,16.576497 C21.2776225,16.0751511 20.6319873,15.6810482 20.3795002,13.9968971 C23.007413,11.5309183 22.3720133,8.00324098 18.9406561,6.08867774 C18.9418401,6.13962582 18.9431768,6.19053571 18.9431768,6.24167475 C18.9431768,10.9199232 13.9941473,14.506187 8.08703415,14.3086581 C9.54295007,15.4911196 11.6766588,16.2370469 14.0546052,16.2370469 C15.3880395,16.2370469 16.6444405,16.0022426 17.747921,15.5877834 C18.8606057,16.4401135 20.2257394,16.9594861 21.6760793,17.1083584 C21.820674,17.1234442 21.9572867,17.0330056 21.9919268,16.8995629 C22.0267197,16.7620336 21.9179108,16.6774002 21.8101712,16.576497 Z" id="Shape"></path>
    </g>
</svg>
