<svg xmlns="http://www.w3.org/2000/svg" xmlns:xlink="http://www.w3.org/1999/xlink" width="75" height="48" viewBox="0 0 75 48">
    <defs>
        <path id="eo6ee0mw3a" d="M0 15.965L50.087 15.965 50.087 0 0 0z"/>
    </defs>
    <g fill="none" fill-rule="evenodd">
        <g transform="translate(12 16)">
            <path fill="#ED1A77" d="M50.087 12.694c0-1.989-.9-2.912-2.841-2.912-1.941 0-2.841.923-2.841 2.912 0 1.988.9 2.911 2.84 2.911 1.942 0 2.842-.923 2.842-2.911"/>
            <path fill="#191530" d="M33.624 15.605L29.732 15.605 26.683 5.109 23.601 15.605 19.743 15.605 15.023 0.36 18.789 0.36 21.7 11.063 24.714 0.36 28.658 0.36 31.75 11.092 34.652 0.36 38.363 0.36z"/>
            <mask id="dcvqnhekhb" fill="#fff">
                <use xlink:href="#eo6ee0mw3a"/>
            </mask>
            <path fill="#191530" d="M39.623 15.605L42.981 15.605 42.981.36 39.623.36zM7.422 15.965c-2.25 0-4.07-.717-5.41-2.13l-.001-.002C.676 12.403 0 10.455 0 8.046c0-2.385.73-4.34 2.17-5.812C3.615.752 5.533 0 7.87 0c3.025 0 5.436 1.356 6.79 3.817l.095.174-2.478 2.013-.145-.22c-1.06-1.614-2.5-2.432-4.28-2.432-1.35 0-2.432.426-3.22 1.267-.802.859-1.193 1.973-1.193 3.406 0 1.412.384 2.537 1.142 3.342.765.813 1.814 1.226 3.116 1.226 1.554 0 2.959-.792 3.91-2.19h-3.58V7.242h7.218v8.43h-2.79v-2.11c-1.19 1.557-2.95 2.404-5.033 2.404" mask="url(#dcvqnhekhb)"/>
        </g>
    </g>
</svg>
