<svg width="310" height="419" xmlns="http://www.w3.org/2000/svg">
  <defs>
    <linearGradient x1="23.836%" y1="85.003%" x2="72.281%" y2="13.865%" id="a">
      <stop stop-color="#3C5896" offset="15%"/>
      <stop stop-color="#3E5C9C" offset="29%"/>
      <stop stop-color="#4465AA" offset="70%"/>
    </linearGradient>
    <linearGradient x1="-24.291%" y1="76.77%" x2="73.54%" y2="39.626%" id="b">
      <stop stop-color="#63B7E6" offset="29%"/>
      <stop stop-color="#60B2E0" offset="65%"/>
      <stop stop-color="#5BA8D4" offset="100%"/>
    </linearGradient>
    <linearGradient x1="5.397%" y1="45.257%" x2="106.285%" y2="54.273%" id="c">
      <stop stop-color="#D50181" offset="14%"/>
      <stop stop-color="#D1017F" offset="40%"/>
      <stop stop-color="#C60178" offset="64%"/>
      <stop stop-color="#B4016D" offset="87%"/>
      <stop stop-color="#A60164" offset="100%"/>
    </linearGradient>
    <linearGradient x1="17.015%" y1="50.086%" x2="100.945%" y2="50.086%" id="d">
      <stop stop-color="#3C5896" offset="15%"/>
      <stop stop-color="#3E5C9C" offset="37%"/>
      <stop stop-color="#4465AA" offset="100%"/>
    </linearGradient>
    <linearGradient x1="23614%" y1="13330%" x2="26375%" y2="13330%" id="e">
      <stop stop-color="#63B7E6" offset="29%"/>
      <stop stop-color="#60B2E0" offset="65%"/>
      <stop stop-color="#5BA8D4" offset="100%"/>
    </linearGradient>
    <linearGradient x1="8179.958%" y1="14590%" x2="9006.722%" y2="16180%" id="f">
      <stop stop-color="#D50181" offset="14%"/>
      <stop stop-color="#D1017F" offset="40%"/>
      <stop stop-color="#C60178" offset="64%"/>
      <stop stop-color="#B4016D" offset="87%"/>
      <stop stop-color="#A60164" offset="100%"/>
    </linearGradient>
    <linearGradient x1="12705%" y1="11863.701%" x2="12399%" y2="11496.904%" id="g">
      <stop stop-color="#3C5896" offset="15%"/>
      <stop stop-color="#3E5C9C" offset="29%"/>
      <stop stop-color="#4465AA" offset="70%"/>
    </linearGradient>
    <linearGradient x1="4411.681%" y1="34327%" x2="4432.097%" y2="34927%" id="h">
      <stop stop-color="#63B7E6" offset="29%"/>
      <stop stop-color="#60B2E0" offset="65%"/>
      <stop stop-color="#5BA8D4" offset="100%"/>
    </linearGradient>
    <linearGradient x1="12788%" y1="17774.32%" x2="13444%" y2="18490.116%" id="i">
      <stop stop-color="#D50181" offset="14%"/>
      <stop stop-color="#D1017F" offset="40%"/>
      <stop stop-color="#C60178" offset="64%"/>
      <stop stop-color="#B4016D" offset="87%"/>
      <stop stop-color="#A60164" offset="100%"/>
    </linearGradient>
    <linearGradient x1="20446%" y1="2078.147%" x2="22408%" y2="2823.316%" id="j">
      <stop stop-color="#3C5896" offset="15%"/>
      <stop stop-color="#3E5C9C" offset="29%"/>
      <stop stop-color="#4465AA" offset="70%"/>
    </linearGradient>
    <linearGradient x1="18415%" y1="3767.268%" x2="21064%" y2="4623.159%" id="k">
      <stop stop-color="#63B7E6" offset="29%"/>
      <stop stop-color="#60B2E0" offset="65%"/>
      <stop stop-color="#5BA8D4" offset="100%"/>
    </linearGradient>
    <linearGradient x1="6337.134%" y1="7962%" x2="7237.098%" y2="9583%" id="l">
      <stop stop-color="#D50181" offset="14%"/>
      <stop stop-color="#D1017F" offset="40%"/>
      <stop stop-color="#C60178" offset="64%"/>
      <stop stop-color="#B4016D" offset="87%"/>
      <stop stop-color="#A60164" offset="100%"/>
    </linearGradient>
    <linearGradient x1="2597.12%" y1="23225%" x2="4030.667%" y2="21659%" id="m">
      <stop stop-color="#3C5896" offset="15%"/>
      <stop stop-color="#3E5C9C" offset="29%"/>
      <stop stop-color="#4465AA" offset="70%"/>
    </linearGradient>
    <linearGradient x1="1739.715%" y1="22336%" x2="1568.043%" y2="24014%" id="n">
      <stop stop-color="#63B7E6" offset="29%"/>
      <stop stop-color="#60B2E0" offset="65%"/>
      <stop stop-color="#5BA8D4" offset="100%"/>
    </linearGradient>
    <linearGradient x1="5450%" y1="7358.71%" x2="6559%" y2="8010.442%" id="o">
      <stop stop-color="#D50181" offset="14%"/>
      <stop stop-color="#D1017F" offset="40%"/>
      <stop stop-color="#C60178" offset="64%"/>
      <stop stop-color="#B4016D" offset="87%"/>
      <stop stop-color="#A60164" offset="100%"/>
    </linearGradient>
    <linearGradient x1="3001.26%" y1="-4332%" x2="2932.213%" y2="-5377%" id="p">
      <stop stop-color="#3C5896" offset="15%"/>
      <stop stop-color="#3E5C9C" offset="29%"/>
      <stop stop-color="#4465AA" offset="70%"/>
    </linearGradient>
    <linearGradient x1="5036.795%" y1="-5129%" x2="4801.262%" y2="-4473%" id="q">
      <stop stop-color="#63B7E6" offset="29%"/>
      <stop stop-color="#60B2E0" offset="65%"/>
      <stop stop-color="#5BA8D4" offset="100%"/>
    </linearGradient>
    <linearGradient x1="9134%" y1="-1384.858%" x2="8607%" y2="-1605.353%" id="r">
      <stop stop-color="#D50181" offset="14%"/>
      <stop stop-color="#D1017F" offset="40%"/>
      <stop stop-color="#C60178" offset="64%"/>
      <stop stop-color="#B4016D" offset="87%"/>
      <stop stop-color="#A60164" offset="100%"/>
    </linearGradient>
    <linearGradient x1="7255%" y1="7197.629%" x2="6838%" y2="6567.107%" id="s">
      <stop stop-color="#3C5896" offset="15%"/>
      <stop stop-color="#3E5C9C" offset="29%"/>
      <stop stop-color="#4465AA" offset="70%"/>
    </linearGradient>
    <linearGradient x1="2514.009%" y1="11917%" x2="2502.937%" y2="12836%" id="t">
      <stop stop-color="#63B7E6" offset="29%"/>
      <stop stop-color="#60B2E0" offset="65%"/>
      <stop stop-color="#5BA8D4" offset="100%"/>
    </linearGradient>
    <linearGradient x1="7706%" y1="3897.532%" x2="8422%" y2="4402.313%" id="u">
      <stop stop-color="#D50181" offset="14%"/>
      <stop stop-color="#D1017F" offset="40%"/>
      <stop stop-color="#C60178" offset="64%"/>
      <stop stop-color="#B4016D" offset="87%"/>
      <stop stop-color="#A60164" offset="100%"/>
    </linearGradient>
    <linearGradient x1="12962.276%" y1="19110%" x2="12128.876%" y2="17293%" id="v">
      <stop stop-color="#3C5896" offset="15%"/>
      <stop stop-color="#3E5C9C" offset="29%"/>
      <stop stop-color="#4465AA" offset="70%"/>
    </linearGradient>
    <linearGradient x1="4322.712%" y1="18236%" x2="4701.21%" y2="19997%" id="w">
      <stop stop-color="#63B7E6" offset="29%"/>
      <stop stop-color="#60B2E0" offset="65%"/>
      <stop stop-color="#5BA8D4" offset="100%"/>
    </linearGradient>
    <linearGradient x1="15021%" y1="6008.685%" x2="14960%" y2="7056.827%" id="x">
      <stop stop-color="#D50181" offset="14%"/>
      <stop stop-color="#D1017F" offset="40%"/>
      <stop stop-color="#C60178" offset="64%"/>
      <stop stop-color="#B4016D" offset="87%"/>
      <stop stop-color="#A60164" offset="100%"/>
    </linearGradient>
    <linearGradient x1="17020%" y1="12071.176%" x2="16265%" y2="11599.217%" id="y">
      <stop stop-color="#3C5896" offset="15%"/>
      <stop stop-color="#3E5C9C" offset="29%"/>
      <stop stop-color="#4465AA" offset="70%"/>
    </linearGradient>
    <linearGradient x1="5698.378%" y1="34375%" x2="5842.024%" y2="35679%" id="z">
      <stop stop-color="#63B7E6" offset="29%"/>
      <stop stop-color="#60B2E0" offset="65%"/>
      <stop stop-color="#5BA8D4" offset="100%"/>
    </linearGradient>
    <linearGradient x1="11476.572%" y1="34232%" x2="12049.667%" y2="35557%" id="A">
      <stop stop-color="#D50181" offset="14%"/>
      <stop stop-color="#D1017F" offset="40%"/>
      <stop stop-color="#C60178" offset="64%"/>
      <stop stop-color="#B4016D" offset="87%"/>
      <stop stop-color="#A60164" offset="100%"/>
    </linearGradient>
    <linearGradient x1="18470%" y1="6000.989%" x2="19986%" y2="6955.297%" id="B">
      <stop stop-color="#63B7E6" offset="29%"/>
      <stop stop-color="#60B2E0" offset="65%"/>
      <stop stop-color="#5BA8D4" offset="100%"/>
    </linearGradient>
    <linearGradient x1="6477.904%" y1="20578%" x2="5886.457%" y2="24157%" id="C">
      <stop stop-color="#3C5896" offset="15%"/>
      <stop stop-color="#3E5C9C" offset="29%"/>
      <stop stop-color="#4465AA" offset="70%"/>
    </linearGradient>
    <linearGradient x1="24.412%" y1="153.15%" x2="64.218%" y2="-6.559%" id="D">
      <stop stop-color="#3C5896" offset="8%"/>
      <stop stop-color="#3E5C9C" offset="20%"/>
      <stop stop-color="#4465AA" offset="54%"/>
    </linearGradient>
    <linearGradient x1="12221%" y1="6102.282%" x2="10973%" y2="5058.609%" id="E">
      <stop stop-color="#63B7E6" offset="29%"/>
      <stop stop-color="#60B2E0" offset="65%"/>
      <stop stop-color="#5BA8D4" offset="100%"/>
    </linearGradient>
    <linearGradient x1="15.334%" y1="27.382%" x2="66.153%" y2="60.193%" id="F">
      <stop stop-color="#D50181" offset="14%"/>
      <stop stop-color="#D1017F" offset="46%"/>
      <stop stop-color="#C60178" offset="74%"/>
      <stop stop-color="#B5016D" offset="100%"/>
    </linearGradient>
    <linearGradient x1="8628%" y1="18957%" x2="13319%" y2="18957%" id="G">
      <stop stop-color="#3C5896" offset="15%"/>
      <stop stop-color="#3E5C9C" offset="29%"/>
      <stop stop-color="#4465AA" offset="70%"/>
    </linearGradient>
    <linearGradient x1="39.643%" y1="-5.369%" x2="52.726%" y2="60.309%" id="H">
      <stop stop-color="#63B7E6" offset="15%"/>
      <stop stop-color="#5BA8D4" offset="100%"/>
    </linearGradient>
    <linearGradient x1="-3.156%" y1="34.146%" x2="75.448%" y2="57.192%" id="I">
      <stop stop-color="#D50181" offset="0%"/>
      <stop stop-color="#D30180" offset="3%"/>
      <stop stop-color="#C40176" offset="28%"/>
      <stop stop-color="#BB0171" offset="57%"/>
      <stop stop-color="#B8016F" offset="100%"/>
    </linearGradient>
    <linearGradient x1="2837.519%" y1="18693%" x2="3182.025%" y2="15340%" id="J">
      <stop stop-color="#3C5896" offset="15%"/>
      <stop stop-color="#3E5C9C" offset="29%"/>
      <stop stop-color="#4465AA" offset="70%"/>
    </linearGradient>
    <linearGradient x1="7560%" y1="5839.726%" x2="9004%" y2="7012.127%" id="K">
      <stop stop-color="#63B7E6" offset="29%"/>
      <stop stop-color="#60B2E0" offset="65%"/>
      <stop stop-color="#5BA8D4" offset="100%"/>
    </linearGradient>
    <linearGradient x1="-23.5%" y1="22.549%" x2="96.734%" y2="66.955%" id="L">
      <stop stop-color="#D50181" offset="36%"/>
      <stop stop-color="#D1017F" offset="55%"/>
      <stop stop-color="#C60178" offset="73%"/>
      <stop stop-color="#B4016D" offset="90%"/>
      <stop stop-color="#A60164" offset="100%"/>
    </linearGradient>
    <linearGradient x1="4619.308%" y1="19338%" x2="4237.639%" y2="15414%" id="M">
      <stop stop-color="#3C5896" offset="15%"/>
      <stop stop-color="#3E5C9C" offset="29%"/>
      <stop stop-color="#4465AA" offset="70%"/>
    </linearGradient>
    <linearGradient x1="11234%" y1="5869.248%" x2="12792%" y2="6996.517%" id="N">
      <stop stop-color="#63B7E6" offset="29%"/>
      <stop stop-color="#60B2E0" offset="65%"/>
      <stop stop-color="#5BA8D4" offset="100%"/>
    </linearGradient>
    <linearGradient x1="13954%" y1="6229.143%" x2="16196%" y2="6661.727%" id="O">
      <stop stop-color="#D50181" offset="14%"/>
      <stop stop-color="#D1017F" offset="40%"/>
      <stop stop-color="#C60178" offset="64%"/>
      <stop stop-color="#B4016D" offset="87%"/>
      <stop stop-color="#A60164" offset="100%"/>
    </linearGradient>
    <linearGradient x1="4130.395%" y1="23423%" x2="3626.965%" y2="26559%" id="P">
      <stop stop-color="#3C5896" offset="15%"/>
      <stop stop-color="#3E5C9C" offset="29%"/>
      <stop stop-color="#4465AA" offset="70%"/>
    </linearGradient>
    <linearGradient x1="11520%" y1="8150.148%" x2="12215%" y2="9101.033%" id="Q">
      <stop stop-color="#63B7E6" offset="29%"/>
      <stop stop-color="#60B2E0" offset="65%"/>
      <stop stop-color="#5BA8D4" offset="100%"/>
    </linearGradient>
    <linearGradient x1="12941%" y1="8176.455%" x2="14791%" y2="8228.527%" id="R">
      <stop stop-color="#D50181" offset="14%"/>
      <stop stop-color="#D1017F" offset="40%"/>
      <stop stop-color="#C60178" offset="64%"/>
      <stop stop-color="#B4016D" offset="87%"/>
      <stop stop-color="#A60164" offset="100%"/>
    </linearGradient>
    <linearGradient x1="5307.315%" y1="19684%" x2="5593.567%" y2="21933%" id="S">
      <stop stop-color="#3C5896" offset="15%"/>
      <stop stop-color="#3E5C9C" offset="29%"/>
      <stop stop-color="#4465AA" offset="70%"/>
    </linearGradient>
    <linearGradient x1="25.037%" y1="-6.112%" x2="67.116%" y2="85.348%" id="T">
      <stop stop-color="#63B7E6" offset="34%"/>
      <stop stop-color="#60B2E0" offset="67%"/>
      <stop stop-color="#5BA8D4" offset="100%"/>
    </linearGradient>
    <linearGradient x1="6639.671%" y1="13593%" x2="5282.583%" y2="11565%" id="U">
      <stop stop-color="#3C5896" offset="15%"/>
      <stop stop-color="#3E5C9C" offset="29%"/>
      <stop stop-color="#4465AA" offset="70%"/>
    </linearGradient>
    <linearGradient x1="8.973%" y1="-5.545%" x2="80.023%" y2="88.837%" id="V">
      <stop stop-color="#63B7E6" offset="33%"/>
      <stop stop-color="#61B4E2" offset="65%"/>
      <stop stop-color="#5DABD8" offset="94%"/>
      <stop stop-color="#5BA8D4" offset="100%"/>
    </linearGradient>
    <linearGradient x1="9.089%" y1="28.742%" x2="87.343%" y2="68.657%" id="W">
      <stop stop-color="#D50181" offset="14%"/>
      <stop stop-color="#A60164" offset="100%"/>
    </linearGradient>
    <linearGradient x1="6713.623%" y1="12774%" x2="6048.271%" y2="17813%" id="X">
      <stop stop-color="#3C5896" offset="15%"/>
      <stop stop-color="#3E5C9C" offset="29%"/>
      <stop stop-color="#4465AA" offset="70%"/>
    </linearGradient>
    <linearGradient x1="15504%" y1="5439.65%" x2="17191%" y2="6460.708%" id="Y">
      <stop stop-color="#63B7E6" offset="29%"/>
      <stop stop-color="#60B2E0" offset="65%"/>
      <stop stop-color="#5BA8D4" offset="100%"/>
    </linearGradient>
    <linearGradient x1="15337%" y1="6457.442%" x2="27106%" y2="7769.076%" id="Z">
      <stop stop-color="#D50181" offset="14%"/>
      <stop stop-color="#D1017F" offset="40%"/>
      <stop stop-color="#C60178" offset="64%"/>
      <stop stop-color="#B4016D" offset="87%"/>
      <stop stop-color="#A60164" offset="100%"/>
    </linearGradient>
    <linearGradient x1="6972%" y1="9516.421%" x2="7270%" y2="8867.773%" id="aa">
      <stop stop-color="#3C5896" offset="15%"/>
      <stop stop-color="#3E5C9C" offset="29%"/>
      <stop stop-color="#4465AA" offset="70%"/>
    </linearGradient>
    <linearGradient x1="2618.88%" y1="27264%" x2="2655.646%" y2="28651%" id="ab">
      <stop stop-color="#63B7E6" offset="29%"/>
      <stop stop-color="#60B2E0" offset="65%"/>
      <stop stop-color="#5BA8D4" offset="100%"/>
    </linearGradient>
    <linearGradient x1="7474.36%" y1="26914%" x2="8466.802%" y2="28300%" id="ac">
      <stop stop-color="#D50181" offset="14%"/>
      <stop stop-color="#D1017F" offset="40%"/>
      <stop stop-color="#C60178" offset="64%"/>
      <stop stop-color="#B4016D" offset="87%"/>
      <stop stop-color="#A60164" offset="100%"/>
    </linearGradient>
    <linearGradient x1="6858%" y1="10602.195%" x2="6740%" y2="10225.764%" id="ad">
      <stop stop-color="#3C5896" offset="15%"/>
      <stop stop-color="#3E5C9C" offset="29%"/>
      <stop stop-color="#4465AA" offset="70%"/>
    </linearGradient>
    <linearGradient x1="2393.133%" y1="30442%" x2="2451.886%" y2="31194%" id="ae">
      <stop stop-color="#63B7E6" offset="29%"/>
      <stop stop-color="#60B2E0" offset="65%"/>
      <stop stop-color="#5BA8D4" offset="100%"/>
    </linearGradient>
    <linearGradient x1="2931.286%" y1="30283%" x2="3170.566%" y2="30979%" id="af">
      <stop stop-color="#D50181" offset="14%"/>
      <stop stop-color="#D1017F" offset="40%"/>
      <stop stop-color="#C60178" offset="64%"/>
      <stop stop-color="#B4016D" offset="87%"/>
      <stop stop-color="#A60164" offset="100%"/>
    </linearGradient>
    <linearGradient x1="24092%" y1="1340.449%" x2="24790%" y2="1577.184%" id="ag">
      <stop stop-color="#3C5896" offset="15%"/>
      <stop stop-color="#3E5C9C" offset="29%"/>
      <stop stop-color="#4465AA" offset="70%"/>
    </linearGradient>
    <linearGradient x1="23180%" y1="4148%" x2="24173%" y2="4148%" id="ah">
      <stop stop-color="#63B7E6" offset="29%"/>
      <stop stop-color="#60B2E0" offset="65%"/>
      <stop stop-color="#5BA8D4" offset="100%"/>
    </linearGradient>
    <linearGradient x1="39.577%" y1="101.566%" x2="68.31%" y2="-38.193%" id="ai">
      <stop stop-color="#D50181" offset="14%"/>
      <stop stop-color="#D1017F" offset="41%"/>
      <stop stop-color="#C60178" offset="64%"/>
      <stop stop-color="#C60178" offset="65%"/>
      <stop stop-color="#B7016F" offset="84%"/>
      <stop stop-color="#A60164" offset="100%"/>
    </linearGradient>
    <linearGradient x1="62.317%" y1="133.83%" x2="39.512%" y2="-18.511%" id="aj">
      <stop stop-color="#3C5896" offset="8%"/>
      <stop stop-color="#3C5896" offset="15%"/>
      <stop stop-color="#3E5C9C" offset="29%"/>
      <stop stop-color="#4465AA" offset="70%"/>
    </linearGradient>
    <linearGradient x1="3980%" y1="9237.469%" x2="3591%" y2="9668.528%" id="ak">
      <stop stop-color="#63B7E6" offset="29%"/>
      <stop stop-color="#60B2E0" offset="65%"/>
      <stop stop-color="#5BA8D4" offset="100%"/>
    </linearGradient>
    <linearGradient x1="4177%" y1="3885.196%" x2="3821%" y2="3714.159%" id="al">
      <stop stop-color="#D50181" offset="14%"/>
      <stop stop-color="#D1017F" offset="40%"/>
      <stop stop-color="#C60178" offset="64%"/>
      <stop stop-color="#B4016D" offset="87%"/>
      <stop stop-color="#A60164" offset="100%"/>
    </linearGradient>
  </defs>
  <g fill="none" fill-rule="evenodd">
    <g fill-rule="nonzero">
      <path fill="url(#a)" d="M.1 8.2l.6-5.4L5.1 6l-.5 5.4z" transform="translate(192 371)"/>
      <path fill="url(#b)" d="M4.6 11.4l5-2.2.5-5.5-5 2.3z" transform="translate(192 371)"/>
      <path fill="url(#c)" d="M.7 2.8L5.6.5l4.5 3.2-5 2.3z" transform="translate(192 371)"/>
    </g>
    <g fill-rule="nonzero">
      <path fill="url(#d)" d="M40.3 16.4l-7.6 18.8-12.5-15.9L27.7.4z" transform="translate(234 122)"/>
      <path fill="url(#e)" d="M27.7.4l-20 2.9L.1 22.2l20.1-2.9z" transform="translate(234 122)"/>
      <path fill="url(#f)" d="M32.7 35.2l-20 2.9L.1 22.2l20.1-2.9z" transform="translate(234 122)"/>
    </g>
    <g fill-rule="nonzero">
      <path fill="url(#g)" d="M.7 5.4L7 .9l.8 7.6-6.2 4.6z" transform="translate(119 336)"/>
      <path fill="url(#h)" d="M1.6 13.1l7 3.1 6.2-4.5-7-3.2z" transform="translate(119 336)"/>
      <path fill="url(#i)" d="M7 .9L14 4l.8 7.6-7-3.1z" transform="translate(119 336)"/>
    </g>
    <g fill-rule="nonzero">
      <path fill="url(#j)" d="M43.2 15l-3.1 23.2-18.5-14.3L24.8.7z" transform="translate(176 49)"/>
      <path fill="url(#k)" d="M24.8.7L3.1 9.6 0 32.7l21.6-8.8z" transform="translate(176 49)"/>
      <path fill="url(#l)" d="M40.1 38.2L18.5 47 0 32.7l21.6-8.8z" transform="translate(176 49)"/>
    </g>
    <g fill-rule="nonzero">
      <path fill="url(#m)" d="M5.3 3.8L21.1.6 16 15.9.2 19.2z" transform="translate(32 212)"/>
      <path fill="url(#n)" d="M.2 19.2l10.7 12L26.7 28 16 15.9z" transform="translate(32 212)"/>
      <path fill="url(#o)" d="M21.1.6l10.7 12.1L26.7 28 16 15.9z" transform="translate(32 212)"/>
    </g>
    <g fill-rule="nonzero">
      <path fill="url(#p)" d="M4.2.2l5.9.7-3.6 4.8L.6 5z" transform="translate(35 136)"/>
      <path fill="url(#q)" d="M.6 5l2.3 5.5 5.9.7-2.3-5.5z" transform="translate(35 136)"/>
      <path fill="url(#r)" d="M10.1.9l2.3 5.5-3.6 4.8-2.3-5.5z" transform="translate(35 136)"/>
    </g>
    <g fill-rule="nonzero">
      <path fill="url(#s)" d="M1.8 4.5L11.7.3 10.3 11 .5 15.1z" transform="translate(62 111)"/>
      <path fill="url(#t)" d="M.5 15.1L9 21.6l9.8-4.2-8.5-6.4z" transform="translate(62 111)"/>
      <path fill="url(#u)" d="M11.7.3l8.5 6.5-1.4 10.6-8.5-6.4z" transform="translate(62 111)"/>
    </g>
    <g fill-rule="nonzero">
      <path fill="url(#v)" d="M5 4.2L20.7.4l-4.5 15.5L.4 19.7z" transform="translate(106 296)"/>
      <path fill="url(#w)" d="M.4 19.7l11.2 11.7 15.7-3.8-11.1-11.7z" transform="translate(106 296)"/>
      <path fill="url(#x)" d="M20.7.4l11.2 11.7-4.6 15.5-11.1-11.7z" transform="translate(106 296)"/>
    </g>
    <g fill-rule="nonzero">
      <path fill="url(#y)" d="M.4 9.1l7-8.5 3.9 10.3-7 8.5z" transform="translate(158 340)"/>
      <path fill="url(#z)" d="M4.3 19.4l10.9 1.8 6.9-8.6-10.8-1.7z" transform="translate(158 340)"/>
      <path fill="url(#A)" d="M7.4.6l10.8 1.7 3.9 10.3-10.8-1.7z" transform="translate(158 340)"/>
    </g>
    <g fill-rule="nonzero">
      <path fill="#4465AA" d="M156 166.3l23.9 13.7-23.8 13.8-23.9-13.6z"/>
      <path fill="#63B7E6" d="M132.2 180.2l.1 27.5 23.9 13.7-.1-27.6z"/>
      <path fill="#D50181" d="M179.9 180l.1 27.5-23.8 13.9-.1-27.6z"/>
      <path fill="#4465AA" d="M179.9 180l23.9 13.6-23.8 13.9-23.9-13.7z"/>
      <path fill="#63B7E6" d="M156.1 193.8l.1 27.6 24 13.7-.2-27.6z"/>
      <path fill="#D50181" d="M203.8 193.6l.2 27.6-23.8 13.9-.2-27.6z"/>
      <path fill="#4465AA" d="M203.8 193.6l24 13.7-23.8 13.9-24-13.7z"/>
      <path fill="#63B7E6" d="M180 207.5l.2 27.6 23.9 13.6-.1-27.5z"/>
      <path fill="#4465AA" d="M155.9 138.7l23.9 13.7-23.8 13.9-23.9-13.7z"/>
      <path fill="#63B7E6" d="M132.1 152.6l.1 27.6 23.9 13.6-.1-27.5z"/>
      <path fill="#D50181" d="M179.8 152.4l.1 27.6-23.8 13.8-.1-27.5z"/>
      <path fill="#4465AA" d="M179.8 152.4l23.9 13.7-23.8 13.9-23.9-13.7z"/>
      <path fill="#63B7E6" d="M156 166.3l.1 27.5 23.9 13.7-.1-27.5z"/>
      <path fill="#D50181" d="M203.7 166.1l.1 27.5-23.8 13.9-.1-27.5z"/>
      <path fill="#4465AA" d="M203.7 166.1l23.9 13.6-23.8 13.9-23.9-13.6z"/>
      <path fill="url(#B)" d="M.9 14L1 41.5l24 13.7-.2-27.6z" transform="translate(179 166)"/>
      <path fill="#63B7E6" d="M131.9 125.1l.2 27.5 23.9 13.7-.1-27.6z"/>
      <path fill="#4465AA" d="M132.2 180.2l23.9 13.6-23.8 13.9-23.9-13.7z"/>
      <path fill="#63B7E6" d="M108.4 194l.1 27.6 23.9 13.7-.1-27.6z"/>
      <path fill="#D50181" d="M156.1 193.8l.1 27.6-23.8 13.9-.1-27.6z"/>
      <path fill="#4465AA" d="M156.1 193.8l23.9 13.7-23.8 13.9-23.9-13.7z"/>
      <path fill="#63B7E6" d="M132.3 207.7l.1 27.6 24 13.6-.2-27.5z"/>
      <path fill="#D50181" d="M180 207.5l.2 27.6-23.8 13.8-.2-27.5z"/>
      <g>
        <path fill="url(#C)" d="M24 .5l24 13.7-23.8 13.9-24-13.7z" transform="translate(156 207)"/>
        <path fill="#63B7E6" d="M156.2 221.4l.2 27.5 23.9 13.7-.1-27.5z"/>
      </g>
      <g>
        <path fill="#4465AA" d="M132.1 152.6l23.9 13.7-23.8 13.9-23.9-13.7z"/>
        <path fill="#63B7E6" d="M108.3 166.5l.1 27.5 23.9 13.7-.1-27.5z"/>
        <path fill="#D50181" d="M156 166.3l.1 27.5-23.8 13.9-.1-27.5z"/>
      </g>
      <g>
        <path fill="#4465AA" d="M156 166.3l23.9 13.7-23.8 13.8-23.9-13.6z"/>
        <path fill="#63B7E6" d="M132.2 180.2l.1 27.5 23.9 13.7-.1-27.6z"/>
        <path fill="#D50181" d="M179.9 180l.1 27.5-23.8 13.9-.1-27.6z"/>
      </g>
      <g>
        <path fill="url(#D)" d="M71.7 13.8L47.7.2 23.9 14.1.1 27.9l24 13.7 23.8-13.9z" transform="translate(108 111)"/>
        <path fill="url(#E)" d="M.1 27.9l.2 27.6 23.9 13.7-.1-27.6z" transform="translate(108 111)"/>
        <path fill="url(#F)" d="M71.8 41.4l-.1-27.6-23.8 13.9-23.8 13.9.1 27.6L48 55.3z" transform="translate(108 111)"/>
      </g>
      <path fill="#4465AA" d="M108.4 194l23.9 13.7-23.8 13.9-23.9-13.7z"/>
      <g>
        <path fill="url(#G)" d="M24.3.5l23.9 13.7L24.4 28 .5 14.4z" transform="translate(84 166)"/>
        <path fill="url(#H)" d="M24.5 55.6L24.4 28 .5 14.4l.1 27.5.1 27.6 23.9 13.6z" transform="translate(84 166)"/>
        <path fill="url(#I)" d="M48.3 41.7l-.1-27.5L24.4 28l.1 27.6.1 27.5 23.8-13.8z" transform="translate(84 166)"/>
      </g>
      <g>
        <path fill="url(#J)" d="M24.7 0l23.9 13.7-23.8 13.9L.9 13.9z" transform="translate(69 139)"/>
        <path fill="url(#K)" d="M.9 13.9L1 41.4l23.9 13.7-.1-27.5z" transform="translate(69 139)"/>
        <path fill="url(#L)" d="M48.6 13.7l.1 27.5-23.8 13.9-.1-27.5z" transform="translate(69 139)"/>
      </g>
      <g>
        <path fill="url(#M)" d="M24.1.6L48 14.3 24.2 28.2.3 14.5z" transform="translate(108 152)"/>
        <path fill="url(#N)" d="M.3 14.5L.4 42l23.9 13.7-.1-27.5z" transform="translate(108 152)"/>
        <path fill="url(#O)" d="M48 14.3l.1 27.5-23.8 13.9-.1-27.5z" transform="translate(108 152)"/>
      </g>
      <g>
        <path fill="url(#P)" d="M23.8.8l24 13.6L24 28.3 0 14.7z" transform="translate(94 207)"/>
        <path fill="url(#Q)" d="M0 14.7l.2 27.5 23.9 13.7-.1-27.6z" transform="translate(94 207)"/>
        <path fill="url(#R)" d="M47.8 14.4l.1 27.6-23.8 13.9-.1-27.6z" transform="translate(94 207)"/>
      </g>
      <path fill="#4465AA" d="M156.2 221.4l24 13.7-23.8 13.8-24-13.6z"/>
      <g>
        <path fill="url(#S)" d="M24.1.8L48 14.5 24.2 28.4.3 14.7z" transform="translate(132 193)"/>
        <path fill="url(#T)" d="M24.4 55.9l-.2-27.5L.3 14.7l.1 27.6.2 27.5 23.9 13.7z" transform="translate(132 193)"/>
      </g>
      <g>
        <path fill="url(#U)" d="M24.6.4L48.5 14 24.7 27.9.8 14.3z" transform="translate(155 110)"/>
        <path fill="url(#V)" d="M.8 14.3l.1 27.5 23.9 13.7-.1-27.6z" transform="translate(155 110)"/>
        <path fill="url(#W)" d="M48.5 14l.2 27.6-23.9 13.9-.1-27.6z" transform="translate(155 110)"/>
      </g>
      <path fill="#63B7E6" d="M179.8 152.4l.1 27.6 23.9 13.6-.1-27.5z"/>
      <g>
        <path fill="url(#X)" d="M71.5 14.2L47.6.5 23.8 14.4 0 28.3 23.9 42l23.8-13.9z" transform="translate(156 138)"/>
        <path fill="url(#Y)" d="M0 28.3l.1 27.5L24 69.5 23.9 42z" transform="translate(156 138)"/>
        <path fill="url(#Z)" d="M48.1 110.7l23.8-13.8-.1-27.6-.2-27.6-.1-27.5-23.8 13.9L23.9 42l.1 27.5 23.8-13.9.2 27.6-23.8 13.9-.2-27.6L.2 83.4l.2 27.5.1 27.6 23.8-13.9 23.8-13.9z" transform="translate(156 138)"/>
      </g>
    </g>
    <g fill-rule="nonzero">
      <path fill="url(#aa)" d="M.6 8.6L8.7.4l3 11.1-8 8.2z" transform="translate(63 267)"/>
      <path fill="url(#ab)" d="M3.7 19.7l11.1 2.9 8.1-8.2-11.2-2.9z" transform="translate(63 267)"/>
      <path fill="url(#ac)" d="M8.7.4l11.1 2.9 3.1 11.1-11.2-2.9z" transform="translate(63 267)"/>
    </g>
    <g fill-rule="nonzero">
      <path fill="url(#ad)" d="M0 5.5L3.2.7l2.6 5.1-3.2 4.9z" transform="translate(63 302)"/>
      <path fill="url(#ae)" d="M2.6 10.7l5.8.3 3.2-4.9-5.8-.3z" transform="translate(63 302)"/>
      <path fill="url(#af)" d="M3.2.7l5.7.3 2.7 5.1-5.8-.3z" transform="translate(63 302)"/>
    </g>
    <g fill-rule="nonzero">
      <path fill="url(#ag)" d="M16.9 5.9L15 14.1 8.9 8.3 10.7.1z" transform="translate(229 36)"/>
      <path fill="url(#ah)" d="M10.7.1l-8 2.5-1.9 8.2 8.1-2.5z" transform="translate(229 36)"/>
      <path fill="url(#ai)" d="M15 14.1l-8 2.5-6.2-5.8 8.1-2.5z" transform="translate(229 36)"/>
    </g>
    <g fill-rule="nonzero">
      <path fill="url(#aj)" d="M4.1.2l4.7 1.4-3.6 3.3L.6 3.5z" transform="translate(31 107)"/>
      <path fill="url(#ak)" d="M.6 3.5l1.1 4.7 4.6 1.5-1.1-4.8z" transform="translate(31 107)"/>
      <path fill="url(#al)" d="M8.8 1.6l1.1 4.8-3.6 3.3-1.1-4.8z" transform="translate(31 107)"/>
    </g>
  </g>
</svg>
