<?xml version="1.0" encoding="UTF-8" standalone="no"?>
<!DOCTYPE svg PUBLIC "-//W3C//DTD SVG 1.1//EN" "http://www.w3.org/Graphics/SVG/1.1/DTD/svg11.dtd">
<svg width="100%" height="100%" viewBox="0 0 19 16" version="1.1" xmlns="http://www.w3.org/2000/svg" xmlns:xlink="http://www.w3.org/1999/xlink" xml:space="preserve" style="fill-rule:evenodd;clip-rule:evenodd;stroke-linejoin:round;stroke-miterlimit:1.41421;">
    <g id="Artboard1" transform="matrix(0.978065,0,0,0.818997,-745.792,-318.341)">
        <rect x="762.519" y="388.696" width="18.847" height="18.848" style="fill:none;"/>
        <g transform="matrix(2.04485,0,0,2.44201,-1013.47,-420.2)">
            <g opacity="0.4">
                <path d="M875.627,335.225C875.627,335.574 875.91,335.856 876.257,335.856C876.607,335.856 876.89,335.574 876.89,335.225C876.89,334.876 876.607,334.594 876.257,334.594C875.91,334.594 875.627,334.876 875.627,335.225" style="fill:rgb(40,54,69);fill-rule:nonzero;"/>
                <path d="M869.312,335.225C869.312,335.574 869.595,335.856 869.943,335.856C870.292,335.856 870.575,335.574 870.575,335.225C870.575,334.876 870.292,334.594 869.943,334.594C869.595,334.594 869.312,334.876 869.312,335.225" style="fill:rgb(40,54,69);fill-rule:nonzero;"/>
                <path d="M871.838,332.699C871.838,333.048 872.121,333.33 872.469,333.33C872.818,333.33 873.101,333.048 873.101,332.699C873.101,332.35 872.818,332.068 872.469,332.068C872.121,332.068 871.838,332.35 871.838,332.699" style="fill:rgb(40,54,69);fill-rule:nonzero;"/>
                <path d="M871.838,337.75C871.838,338.099 872.121,338.381 872.469,338.381C872.818,338.381 873.101,338.099 873.101,337.75C873.101,337.401 872.818,337.119 872.469,337.119C872.121,337.119 871.838,337.401 871.838,337.75" style="fill:rgb(40,54,69);fill-rule:nonzero;"/>
                <rect x="869.944" y="334.593" width="6.314" height="1.263" style="fill:rgb(40,54,69);fill-rule:nonzero;"/>
                <path d="M870.39,335.671C871.283,334.778 872.023,334.038 872.916,333.145L872.023,332.253C871.13,333.145 870.39,333.885 869.497,334.778L870.39,335.671Z" style="fill:rgb(40,54,69);fill-rule:nonzero;"/>
                <path d="M869.497,335.671C870.39,336.564 871.13,337.304 872.023,338.197L872.915,337.304C872.023,336.411 871.283,335.671 870.39,334.778L869.497,335.671Z" style="fill:rgb(40,54,69);fill-rule:nonzero;"/>
            </g>
        </g>
    </g>
</svg>
