<svg xmlns="http://www.w3.org/2000/svg" width="10" height="10" viewBox="0 0 10 10">
    <path fill="#283645" fill-rule="evenodd" d="M6.355 4.824l3.523-3.54a.391.391 0 0 0 0-.568L9.336.15a.394.394 0 0 0-.57 0l-3.55 3.54a.262.262 0 0 1-.379 0L1.287.122a.394.394 0 0 0-.569 0L.15.689a.391.391 0 0 0 0 .568l3.55 3.54a.26.26 0 0 1 0 .379L.122 8.743a.391.391 0 0 0 0 .568l.57.567a.394.394 0 0 0 .568 0l3.55-3.54a.262.262 0 0 1 .38 0l3.55 3.54a.394.394 0 0 0 .569 0l.569-.567a.391.391 0 0 0 0-.568l-3.523-3.54a.26.26 0 0 1 0-.379z"/>
</svg>
