<svg xmlns="http://www.w3.org/2000/svg" width="116" height="18" viewBox="0 0 116 18">

<!-- VISA -->
<svg xmlns="http://www.w3.org/2000/svg" width="28" height="18" x="0" y="0" viewBox="0 0 28 18">
    <g fill="none" fill-rule="evenodd">
        <path fill="#FFFFFE" d="M0 18h28V0H0z"/>
        <path fill="#F7B600" d="M0 18h28v-2.89H0z"/>
        <path fill="#1A1F71" d="M0 2.89h28V0H0zM13.766 5.746l-1.426 6.76h-1.726l1.427-6.76h1.725zm7.26 4.365l.909-2.539.522 2.54h-1.43zm1.926 2.395h1.596l-1.394-6.76h-1.472a.785.785 0 0 0-.735.496l-2.59 6.264h1.813l.36-1.01h2.213l.21 1.01zM18.447 10.3c.008-1.784-2.433-1.883-2.417-2.68.006-.242.233-.5.732-.566.247-.032.929-.058 1.702.302l.302-1.434a4.599 4.599 0 0 0-1.614-.299c-1.706 0-2.906.919-2.916 2.235-.01.973.858 1.516 1.51 1.84.673.331.899.544.896.84-.005.454-.537.655-1.032.662-.868.014-1.371-.238-1.773-.427l-.313 1.482c.404.187 1.148.35 1.919.359 1.813 0 3-.908 3.004-2.314zm-7.146-4.553l-2.796 6.76H6.68L5.305 7.111c-.084-.332-.156-.454-.41-.594-.415-.228-1.1-.442-1.702-.575l.04-.196H6.17c.374 0 .71.252.796.689l.727 3.912 1.795-4.601H11.3z"/>
    </g>
</svg>

<!-- MasterCard -->
<svg xmlns="http://www.w3.org/2000/svg" width="29" height="18" x="32" y="0" viewBox="0 0 29 18">
    <g fill="none" fill-rule="nonzero">
        <path fill="#000" d="M0 0h29v18H0z"/>
        <path fill="#FFF" d="M8.113 16.565v-1.019a.587.587 0 0 0-.169-.463.608.608 0 0 0-.466-.179.644.644 0 0 0-.58.289.61.61 0 0 0-.546-.289.568.568 0 0 0-.497.238v-.199h-.34v1.625h.335v-.933a.387.387 0 0 1 .107-.311.4.4 0 0 1 .31-.12c.239 0 .374.152.374.427v.936h.335v-.932a.388.388 0 0 1 .108-.31.402.402 0 0 1 .31-.122c.244 0 .376.153.376.428v.936l.343-.002zm5.379-1.622h-.6v-.492h-.337v.492h-.346v.296h.346v.77c0 .376.134.6.559.6a.854.854 0 0 0 .449-.125l-.104-.29a.67.67 0 0 1-.318.093c-.172 0-.252-.11-.252-.272v-.78h.601l.002-.292zm3.066-.04a.52.52 0 0 0-.45.237v-.197h-.327v1.625h.331v-.916c0-.269.131-.442.366-.442a.594.594 0 0 1 .225.04l.11-.307a.78.78 0 0 0-.255-.044v.004zm-4.635.17a1.252 1.252 0 0 0-.673-.17c-.418 0-.674.193-.674.51 0 .264.187.424.556.475l.173.023c.197.027.304.095.304.187 0 .126-.145.207-.39.207a.873.873 0 0 1-.55-.17l-.172.255c.21.141.46.215.715.21.476 0 .74-.217.74-.526 0-.309-.202-.426-.56-.477l-.172-.024c-.155-.02-.293-.068-.293-.17 0-.101.131-.2.328-.2.182.002.36.05.518.14l.15-.27zm5.006.679a.803.803 0 0 0 .24.613.83.83 0 0 0 .623.236.872.872 0 0 0 .594-.194l-.173-.255a.734.734 0 0 1-.432.146.557.557 0 0 1-.508-.55c0-.286.22-.524.508-.552a.734.734 0 0 1 .432.146l.173-.254a.872.872 0 0 0-.594-.194.83.83 0 0 0-.623.236.803.803 0 0 0-.24.613v.009zm-2.324-.85c-.483 0-.816.34-.816.85a.792.792 0 0 0 .229.608.82.82 0 0 0 .611.24c.247.01.488-.072.677-.227l-.172-.24a.795.795 0 0 1-.48.169.483.483 0 0 1-.5-.416h1.235v-.136c0-.51-.314-.85-.779-.85l-.005.003zm0 .303a.425.425 0 0 1 .306.115.411.411 0 0 1 .13.296h-.886a.44.44 0 0 1 .455-.411h-.005zm-4.472.548v-.81H9.8v.197a.659.659 0 0 0-.535-.237.86.86 0 0 0-.867.853.86.86 0 0 0 .867.853.659.659 0 0 0 .535-.237v.196h.332v-.815zm-1.338 0a.504.504 0 0 1 .136-.386.522.522 0 0 1 .382-.164.557.557 0 0 1 .509.551c0 .285-.22.524-.51.551a.522.522 0 0 1-.38-.163.504.504 0 0 1-.137-.387v-.002zm12.755-.849a.52.52 0 0 0-.449.238v-.199h-.328v1.625h.331v-.916c0-.269.132-.442.366-.442a.594.594 0 0 1 .225.04l.11-.305a.78.78 0 0 0-.255-.044v.003zm2.662 1.43a.175.175 0 0 1 .119.046.156.156 0 0 1 0 .228.173.173 0 0 1-.054.034.173.173 0 0 1-.221-.085.157.157 0 0 1 .09-.211.175.175 0 0 1 .066-.017v.005zm0 .287a.124.124 0 0 0 .09-.037.124.124 0 0 0 0-.17.128.128 0 0 0-.09-.037.13.13 0 0 0-.092.037.124.124 0 0 0 0 .17.13.13 0 0 0 .041.027.13.13 0 0 0 .05.007v.003zm.01-.202a.07.07 0 0 1 .045.014c.01.008.016.022.015.035a.04.04 0 0 1-.012.03.06.06 0 0 1-.036.016l.05.056h-.04l-.046-.056h-.016v.056h-.033v-.15h.073zm-.038.029v.04h.038a.037.037 0 0 0 .02 0 .017.017 0 0 0 0-.015.017.017 0 0 0 0-.015.039.039 0 0 0-.02 0l-.038-.01zm-3.906-.691v-.814h-.332v.197a.659.659 0 0 0-.535-.237.86.86 0 0 0-.867.853.86.86 0 0 0 .867.853.659.659 0 0 0 .535-.237v.196h.332v-.811zm-1.338 0a.504.504 0 0 1 .136-.387.522.522 0 0 1 .382-.163.557.557 0 0 1 .508.55c0 .286-.22.524-.508.552a.522.522 0 0 1-.382-.164.504.504 0 0 1-.136-.387v-.001zm4.673 0v-1.47h-.332v.85a.659.659 0 0 0-.535-.238.86.86 0 0 0-.867.854.86.86 0 0 0 .867.853.659.659 0 0 0 .535-.238v.197h.332v-.808zm-1.338 0a.504.504 0 0 1 .136-.387.522.522 0 0 1 .382-.163.556.556 0 0 1 .477.55.557.557 0 0 1-.484.545.522.522 0 0 1-.381-.163.504.504 0 0 1-.137-.386l.007.004z"/>
        <path fill="#FF5F00" d="M11.808 2.57h5.438v9.614h-5.438z"/>
        <path fill="#EB001B" d="M12.154 7.378a6.067 6.067 0 0 1 2.374-4.805C11.98.603 8.32.89 6.122 3.232a6.04 6.04 0 0 0 0 8.295c2.199 2.342 5.858 2.628 8.406.659a6.067 6.067 0 0 1-2.374-4.808z"/>
        <path fill="#F79E1B" d="M24.583 7.378c0 2.34-1.359 4.476-3.499 5.499a6.298 6.298 0 0 1-6.556-.693 6.077 6.077 0 0 0 2.374-4.807 6.077 6.077 0 0 0-2.374-4.806 6.298 6.298 0 0 1 6.556-.693c2.14 1.023 3.499 3.158 3.499 5.499v.001z"/>
    </g>
</svg>

<!-- UnionPay -->
<svg xmlns="http://www.w3.org/2000/svg" width="28" height="18"  x="65" y="0" viewBox="0 0 28 18">
    <g fill="none" fill-rule="nonzero">
        <path fill="#01798A" d="M26.226.045L19.441.043h-.002l-.015.001c-.932.03-2.093.789-2.305 1.726L13.91 16.194c-.211.946.364 1.715 1.29 1.73h7.128c.91-.047 1.796-.797 2.004-1.723l3.21-14.425c.214-.955-.375-1.73-1.316-1.73"/>
        <path fill="#024381" d="M13.91 16.194L17.12 1.77C17.33.833 18.491.073 19.423.044L16.726.043l-4.86-.001c-.935.02-2.111.784-2.323 1.728l-3.21 14.424c-.212.946.364 1.715 1.29 1.73H15.2c-.926-.015-1.501-.784-1.29-1.73"/>
        <path fill="#DD0228" d="M6.334 16.194L9.544 1.77C9.753.826 10.93.06 11.864.042L5.64.04c-.94 0-2.145.774-2.36 1.73L.069 16.194c-.02.088-.03.175-.037.26v.267c.063.689.581 1.19 1.326 1.202h6.264c-.925-.014-1.5-.783-1.288-1.729"/>
        <path fill="#FFF" d="M11.997 10.553h.117c.109 0 .182-.037.216-.11l.306-.466h.82l-.171.306h.983l-.125.47h-1.17c-.134.205-.3.302-.5.29h-.609l.133-.49zm-.135.672h2.154l-.137.51h-.867l-.132.492h.843l-.137.51h-.843l-.196.726c-.048.122.015.176.19.164h.687l-.127.474h-1.319c-.25 0-.336-.146-.257-.437l.25-.928h-.539l.137-.51h.54l.131-.491h-.515l.137-.51zM15.3 9.974l-.034.298s.406-.31.775-.31h1.364l-.521 1.918c-.044.22-.229.328-.557.328h-1.545l-.362 1.347c-.021.072.008.109.086.109h.305l-.112.418h-.773c-.297 0-.42-.09-.372-.273l1.023-3.835h.723zm1.155.542h-1.217l-.146.517s.203-.149.542-.154c.337-.005.723 0 .723 0l.098-.363zm-.441 1.2c.09.013.14-.024.146-.109l.075-.273h-1.22l-.101.382h1.1zm-.822.62h.702l-.013.309h.187c.095 0 .142-.031.142-.092l.055-.2h.584l-.078.292c-.066.243-.24.37-.525.382h-.374l-.002.528c-.007.084.068.127.223.127h.352l-.113.419h-.844c-.237.011-.353-.103-.35-.346l.054-1.42zM6.677 7.418c-.095.475-.316.84-.658 1.098-.34.254-.778.382-1.314.382-.505 0-.875-.13-1.11-.392-.165-.186-.246-.421-.246-.707 0-.118.014-.244.042-.38l.571-2.8h.863L4.26 7.387a.905.905 0 0 0-.023.212c-.001.142.034.258.104.348.102.135.268.202.499.202.265 0 .484-.066.654-.2.17-.131.28-.319.33-.562l.566-2.768h.858l-.572 2.8M10.301 6.317h.676l-.53 2.498h-.674l.528-2.498m.213-.91h.682l-.128.607h-.681l.127-.607M11.575 8.625c-.177-.172-.266-.403-.267-.697a1.89 1.89 0 0 1 .036-.352c.08-.406.251-.728.514-.966s.58-.358.95-.358c.304 0 .544.086.72.259.177.173.265.407.265.705 0 .05-.003.11-.01.173a3.264 3.264 0 0 1-.028.187c-.078.4-.249.718-.512.951a1.372 1.372 0 0 1-.947.352c-.304 0-.544-.084-.72-.254m1.287-.495c.12-.13.204-.33.256-.595a1.493 1.493 0 0 0 .026-.245.511.511 0 0 0-.117-.358c-.077-.086-.186-.128-.328-.128a.587.587 0 0 0-.459.2c-.12.134-.206.337-.26.606a3.252 3.252 0 0 0-.019.123.91.91 0 0 0-.004.116c0 .153.038.27.116.354.077.084.186.125.33.125a.59.59 0 0 0 .459-.198M18.178 10.574l.163-.583h.824l-.036.214s.421-.214.724-.214h1.02l-.163.583h-.16l-.769 2.748h.16l-.152.545h-.16l-.067.237h-.798l.067-.237h-1.574l.153-.545h.158l.77-2.748h-.16zm.889 0l-.21.743s.359-.14.668-.18c.068-.259.158-.563.158-.563h-.616zm-.307 1.092l-.21.779s.397-.199.67-.216c.079-.3.158-.563.158-.563h-.618zm.154 1.656l.158-.565h-.615l-.159.565h.616zm1.993-3.367h.774l.033.29c-.005.074.038.11.13.11h.137l-.138.492h-.57c-.217.011-.329-.073-.34-.256l-.026-.636zm-.227 1.055h2.509l-.148.528h-.798l-.137.491h.798l-.148.528h-.89l-.2.309h.435l.1.618c.012.062.066.092.158.092h.135l-.142.51h-.478c-.248.012-.376-.073-.387-.255l-.115-.565-.396.601a.427.427 0 0 1-.431.237h-.73l.141-.51h.228c.094 0 .172-.042.242-.127l.62-.91h-.8l.149-.528h.866l.138-.49h-.867l.148-.529zM7.472 6.316h.61l-.07.361.088-.103a.942.942 0 0 1 .72-.321c.257 0 .442.076.558.228.114.152.145.363.091.633l-.336 1.702h-.626l.303-1.543c.032-.16.023-.278-.025-.355-.048-.076-.139-.114-.27-.114a.58.58 0 0 0-.407.152.76.76 0 0 0-.22.424l-.28 1.436h-.627l.491-2.5M14.461 6.316h.61l-.069.361.087-.103a.944.944 0 0 1 .72-.321c.257 0 .442.076.557.228.114.152.147.363.091.633l-.334 1.702h-.627l.303-1.543c.031-.16.023-.278-.025-.355-.05-.076-.139-.114-.27-.114a.585.585 0 0 0-.408.152.75.75 0 0 0-.219.424l-.28 1.436h-.627l.491-2.5M17.476 4.767h1.771c.34 0 .604.079.785.233.18.155.27.379.27.67v.01c0 .055-.003.117-.009.185-.008.067-.02.134-.034.205-.078.385-.26.695-.539.93-.28.234-.613.352-.996.352h-.95l-.293 1.464h-.823l.818-4.049m.443 1.881h.787c.206 0 .368-.048.487-.144.118-.097.196-.245.24-.445l.016-.102c.002-.029.006-.058.006-.086 0-.143-.05-.247-.15-.312-.101-.067-.259-.098-.477-.098h-.67l-.24 1.187M23.982 9.3c-.26.56-.507.888-.653 1.04-.146.151-.434.501-1.129.475l.06-.429c.585-.183.901-1.008 1.081-1.373l-.215-2.69.453-.006h.379l.04 1.688.712-1.688h.72L23.982 9.3M21.969 6.52l-.286.2c-.299-.237-.572-.384-1.098-.136-.718.338-1.317 2.93.658 2.076l.113.136.777.02.51-2.355-.674.06m-.442 1.287c-.125.374-.404.622-.622.551-.218-.068-.296-.43-.17-.804.125-.375.406-.622.622-.551.219.068.297.43.17.804"/>
    </g>
</svg>


<!-- American Express -->
<svg xmlns="http://www.w3.org/2000/svg" width="18" height="18" x="98" y="0" viewBox="0 0 18 18">
    <defs>
        <radialGradient id="a" cx="17.541%" cy="17.466%" r="93.287%" fx="17.541%" fy="17.466%" gradientTransform="matrix(1 0 0 .99879 0 0)">
            <stop offset="0%" stop-color="#9DD5F6"/>
            <stop offset="7.11%" stop-color="#98D3F5"/>
            <stop offset="15.75%" stop-color="#89CEF3"/>
            <stop offset="25.16%" stop-color="#70C6EF"/>
            <stop offset="35.14%" stop-color="#4EBBEA"/>
            <stop offset="45.46%" stop-color="#23ADE3"/>
            <stop offset="50%" stop-color="#0DA6E0"/>
            <stop offset="100%" stop-color="#2E77BC"/>
        </radialGradient>
    </defs>
    <g fill="none" fill-rule="nonzero">
        <path fill="url(#a)" d="M17.847.038H.04v17.934h17.807v-5.918a.68.68 0 0 0 .106-.395c0-.183-.035-.297-.106-.393"/>
        <path fill="#FFF" d="M1.645 7.798l-.342-.837-.34.837h.682zm7.547-.333c-.069.042-.15.043-.247.043h-.608v-.467h.616c.087 0 .178.004.237.038.065.03.105.096.105.186 0 .092-.038.166-.103.2zm4.338.333l-.347-.837-.344.837h.69zm-8.086.907h-.513L4.93 7.06l-.725 1.646h-.44l-.728-1.647v1.647H2.018l-.192-.469H.784l-.194.47H.046l.896-2.102h.744l.851 1.99v-1.99h.817l.655 1.425.602-1.425h.833v2.101zm2.045 0H5.817V6.604H7.49v.437H6.318v.38H7.46v.43H6.318v.42h1.171v.434zM9.847 7.17a.592.592 0 0 1-.353.56.58.58 0 0 1 .248.177c.07.104.082.198.082.385v.413H9.32l-.002-.265c0-.126.012-.308-.08-.41-.072-.073-.184-.09-.364-.09h-.537v.765h-.5V6.604h1.15c.256 0 .445.007.606.1.159.094.254.231.254.466zm.8 1.535h-.51V6.604h.51v2.101zm5.925 0h-.709l-.949-1.577v1.577h-1.019l-.195-.469h-1.04l-.188.47h-.586c-.243 0-.551-.055-.726-.233-.176-.179-.267-.42-.267-.802 0-.312.055-.597.27-.822.161-.168.415-.245.76-.245h.484v.45h-.474c-.183 0-.286.027-.385.125-.086.088-.144.255-.144.476 0 .225.045.387.138.493.077.083.217.108.348.108h.225l.706-1.652h.75l.847 1.987V6.604h.762l.88 1.463V6.604h.512v2.101zM.04 9.118h.856l.192-.467h.432l.192.467h1.683V8.76l.15.358h.874l.15-.363v.362H8.75l-.002-.766h.081c.057.002.073.007.073.1v.666h2.163V8.94c.175.093.446.178.803.178h.91l.195-.467h.431l.19.467h1.754v-.443l.266.443h1.405v-2.93h-1.391v.345l-.195-.346h-1.426v.346l-.18-.346H11.9c-.322 0-.606.045-.835.171v-.17h-1.33v.17c-.146-.13-.344-.17-.565-.17H4.311l-.326.756-.335-.757H2.12v.346l-.168-.346H.646L.04 7.581v1.537zM17.847 10.668h-.912c-.09 0-.151.003-.202.038-.053.034-.073.084-.073.151 0 .08.044.133.109.157.053.018.11.023.193.023l.271.008c.274.006.457.054.568.169.02.016.032.034.046.052v-.598zm0 1.386c-.121.178-.358.268-.679.268h-.966v-.45h.962c.096 0 .163-.013.203-.052a.185.185 0 0 0 .059-.137.173.173 0 0 0-.061-.14c-.036-.031-.09-.046-.176-.046-.47-.016-1.057.015-1.057-.65 0-.305.193-.626.718-.626h.997v-.419h-.926c-.28 0-.483.068-.626.172v-.172h-1.37c-.22 0-.477.055-.598.172v-.172H11.88v.172c-.195-.14-.523-.172-.675-.172H9.591v.172c-.154-.15-.496-.172-.705-.172H7.08l-.413.45-.388-.45H3.581v2.933H6.23l.426-.456.4.456 1.632.002v-.69h.16c.217.003.473-.006.698-.103v.791h1.346v-.764h.065c.083 0 .09.003.09.086v.678h4.09c.259 0 .53-.067.68-.188v.188h1.297c.27 0 .534-.038.734-.135v-.546zm-1.996-.84c.097.101.15.229.15.445 0 .452-.282.663-.787.663h-.974v-.45h.97c.095 0 .163-.013.205-.052a.187.187 0 0 0 .059-.137.18.18 0 0 0-.061-.14c-.038-.031-.091-.046-.178-.046-.468-.016-1.055.015-1.055-.65 0-.305.191-.626.716-.626h1.003v.447h-.918c-.09 0-.15.003-.2.038-.055.034-.075.084-.075.151 0 .08.046.133.11.157.052.018.109.024.194.024l.27.007c.271.006.458.054.57.169zm-4.516-.13c-.067.04-.15.043-.248.043h-.608v-.472h.617c.089 0 .178.002.239.038.064.034.103.1.103.19s-.039.162-.103.201zm.302.262a.544.544 0 0 1 .245.176c.07.103.081.198.083.384v.416h-.502v-.263c0-.126.012-.313-.081-.411-.074-.075-.185-.093-.368-.093h-.534v.767h-.503v-2.101h1.155c.254 0 .438.01.602.099a.493.493 0 0 1 .258.466.589.589 0 0 1-.355.56zm.632-1.125h1.67v.434h-1.171v.382h1.143v.43h-1.143v.417l1.172.002v.436h-1.67v-2.101zm-3.377.97h-.646v-.536h.652c.18 0 .306.074.306.258 0 .182-.12.278-.312.278zm-1.145.94l-.768-.856.768-.829v1.685zm-1.984-.247H4.532v-.418h1.099v-.429H4.532v-.382h1.255l.547.613-.571.616zm3.979-.971c0 .584-.434.704-.872.704h-.624v.705h-.973l-.617-.695-.64.695H4.033v-2.101h2.013l.616.689.637-.69h1.6c.396 0 .843.11.843.693z"/>
    </g>
</svg>


</svg>
