<svg xmlns="http://www.w3.org/2000/svg" width="17" height="115" viewBox="0 0 16 115">
    <svg xmlns="http://www.w3.org/2000/svg" width="12" height="16" x="2.5" y="0" viewBox="0 0 12 16">
        <g fill="#3498DB" fill-rule="evenodd" opacity=".4">
            <path d="M2 14h8V8H2v6zM4 4c0-1.103.897-2 2-2s2 .897 2 2v2H4V4zm6 2V4a4 4 0 0 0-8 0v2a2 2 0 0 0-2 2v6a2 2 0 0 0 2 2h8a2 2 0 0 0 2-2V8a2 2 0 0 0-2-2zm-5 5h2v-1H5v1zm2-2H5a1 1 0 0 0-1 1v1a1 1 0 0 0 1 1 1 1 0 0 0 2 0 1 1 0 0 0 1-1v-1a1 1 0 0 0-1-1z"/>
            <path fill-opacity=".4" d="M5 11h2v-1H5z"/>
        </g>
    </svg>

    <svg xmlns="http://www.w3.org/2000/svg" width="16" height="10" x="0.5" y="50" viewBox="0 0 16 10">
        <g fill="#3498DB" fill-rule="evenodd">
            <path fill-opacity=".4" d="M11 5a3 3 0 1 1-6 0 3 3 0 0 1 6 0"/>
            <path d="M9 5a.995.995 0 1 1-.416-1.903A1.98 1.98 0 0 0 8 3a2 2 0 1 0 2 2c0-.205-.04-.398-.098-.584A.995.995 0 0 1 9 5M4.521 6.941C3.465 6.308 2.644 5.529 2.219 5c.425-.529 1.246-1.308 2.303-1.941A3.957 3.957 0 0 0 4 5c0 .708.199 1.364.522 1.941m6.955 0A3.957 3.957 0 0 0 12 5c0-.708-.2-1.364-.523-1.941 1.057.633 1.878 1.412 2.303 1.941-.425.529-1.246 1.308-2.303 1.941M8 8a3 3 0 1 1 0-6 3 3 0 0 1 0 6m0-8C3.581 0 0 4 0 5s3.581 5 8 5c4.418 0 8-4 8-5s-3.582-5-8-5"/>
        </g>
    </svg>

    <svg xmlns="http://www.w3.org/2000/svg" width="17" height="15" x="0" y="100" viewBox="0 0 17 15">
    <g fill="#3498DB" fill-rule="evenodd">
        <path d="M10.482 3.282L9.047 4.547C8.945 4.36 8.75 4.25 8.5 4.25A2.507 2.507 0 0 0 6 6.75c0 .148.014.297.042.444l-1.05.925A3.903 3.903 0 0 1 4.75 6.75c0-.5 0-1 .25-1.5C3.5 6.25 2.375 7.5 2.25 8c.091.32.5.907 1.148 1.524l-.915.806C1.553 9.42 1 8.506 1 8c0-1.25 3.375-5 7.5-5 .685 0 1.35.104 1.982.282zm3.463 1.871C15.217 6.217 16 7.398 16 8c0 1.25-3.375 5-7.5 5a7.582 7.582 0 0 1-2.817-.567l1.064-.938c.553.16 1.14.255 1.753.255 3.375 0 6-2.875 6.25-3.75-.094-.377-.759-1.254-1.724-2.037l.92-.81zM7.923 10.46l4.325-3.81.002.101c0 2.125-1.625 3.75-3.75 3.75-.197 0-.39-.014-.577-.041z"/>
        <path fill-rule="nonzero" d="M14.563 1.02L.562 13.354c-.207.426.04.91.55 1.084.512.172 1.095-.033 1.302-.459L16.415 1.644c.207-.425-.04-.91-.55-1.083-.512-.173-1.095.033-1.302.458z"/>
    </g>
</svg>
</svg>
