<svg xmlns="http://www.w3.org/2000/svg" width="16" height="304" viewBox="0 0 16 304">

    <!-- account detail -->
    <svg xmlns="http://www.w3.org/2000/svg" width="16" height="16" x="0" y="0" viewBox="0 0 16 16">
        <g fill="#C7D2E8" fill-rule="evenodd">
            <path d="M9.855 9.358a5.025 5.025 0 0 1 2.68 2.563 6.077 6.077 0 0 1-.777.753A3.989 3.989 0 0 0 8 10a3.988 3.988 0 0 0-3.757 2.674 6.085 6.085 0 0 1-.778-.753 5.028 5.028 0 0 1 2.68-2.563 3 3 0 1 1 3.71 0zM8 0a8 8 0 1 1 0 16A8 8 0 0 1 8 0zm0 14A6 6 0 0 0 8 2a6 6 0 0 0 0 12zm0-5a2 2 0 1 0-.001-4.001A2 2 0 0 0 8 9z"/>
            <path fill-opacity=".4" d="M4.243 12.674A5.97 5.97 0 0 0 8 14a5.97 5.97 0 0 0 3.757-1.326A3.987 3.987 0 0 0 8 10a3.987 3.987 0 0 0-3.757 2.674z"/>
        </g>
    </svg>

    <svg xmlns="http://www.w3.org/2000/svg" width="16" height="16" x="0" y="32" viewBox="0 0 16 16">
        <g fill="#3498DB" fill-rule="evenodd">
            <path d="M9.855 9.358a5.025 5.025 0 0 1 2.68 2.563 6.077 6.077 0 0 1-.777.753A3.989 3.989 0 0 0 8 10a3.988 3.988 0 0 0-3.757 2.674 6.085 6.085 0 0 1-.778-.753 5.028 5.028 0 0 1 2.68-2.563 3 3 0 1 1 3.71 0zM8 0a8 8 0 1 1 0 16A8 8 0 0 1 8 0zm0 14A6 6 0 0 0 8 2a6 6 0 0 0 0 12zm0-5a2 2 0 1 0-.001-4.001A2 2 0 0 0 8 9z"/>
            <path fill-opacity=".4" d="M4.243 12.674A5.97 5.97 0 0 0 8 14a5.97 5.97 0 0 0 3.757-1.326A3.987 3.987 0 0 0 8 10a3.987 3.987 0 0 0-3.757 2.674z"/>
        </g>
    </svg>

    <!-- organisation -->

    <svg xmlns="http://www.w3.org/2000/svg" width="16" height="12" x="0" y="66" viewBox="0 0 16 12">
        <g fill="#C7D2E8" fill-rule="evenodd">
            <path fill-opacity=".4" d="M5 10h3V8H5z"/>
            <path d="M15 10a1 1 0 0 1 0 2H1a1 1 0 0 1 0-2V2a2 2 0 0 1 2-2h7a2 2 0 0 1 2 2v3h1a2 2 0 0 1 2 2v3zm-5 0V2H3v8h1V8a1 1 0 0 1 1-1h3a1 1 0 0 1 1 1v2h1zm2 0h1V7h-1v3zm-7 0h3V8H5v2zm.5-6h-1a.5.5 0 0 1 0-1h1a.5.5 0 0 1 0 1zm-1 2a.5.5 0 0 1 0-1h1a.5.5 0 0 1 0 1h-1zm3-2a.5.5 0 0 1 0-1h1a.5.5 0 0 1 0 1h-1zm0 2a.5.5 0 0 1 0-1h1a.5.5 0 0 1 0 1h-1z"/>
        </g>
    </svg>
    <svg xmlns="http://www.w3.org/2000/svg" width="16" height="12" x="0" y="98" viewBox="0 0 16 12">
        <g fill="#3498DB" fill-rule="evenodd">
            <path fill-opacity=".4" d="M5 10h3V8H5z"/>
            <path d="M15 10a1 1 0 0 1 0 2H1a1 1 0 0 1 0-2V2a2 2 0 0 1 2-2h7a2 2 0 0 1 2 2v3h1a2 2 0 0 1 2 2v3zm-5 0V2H3v8h1V8a1 1 0 0 1 1-1h3a1 1 0 0 1 1 1v2h1zm2 0h1V7h-1v3zm-7 0h3V8H5v2zm.5-6h-1a.5.5 0 0 1 0-1h1a.5.5 0 0 1 0 1zm-1 2a.5.5 0 0 1 0-1h1a.5.5 0 0 1 0 1h-1zm3-2a.5.5 0 0 1 0-1h1a.5.5 0 0 1 0 1h-1zm0 2a.5.5 0 0 1 0-1h1a.5.5 0 0 1 0 1h-1z"/>
        </g>
    </svg>

    <!-- billing -->

    <svg xmlns="http://www.w3.org/2000/svg" width="16" height="12" x="0" y="130" viewBox="0 0 16 12">
        <g fill="#C7D2E8" fill-rule="evenodd">
            <path d="M6.5 7h-3a.5.5 0 0 1 0-1h3a.5.5 0 0 1 0 1zm-1 2h-2a.5.5 0 0 1 0-1h2a.5.5 0 0 1 0 1zM2 3h12V2H2v1zm0 7h12V5H2v5zM14 0a2 2 0 0 1 2 2v8a2 2 0 0 1-2 2H2a2 2 0 0 1-2-2V2a2 2 0 0 1 2-2h12zm-4 8V7h2v1h-2zM9 7v1a1 1 0 0 0 1 1h2a1 1 0 0 0 1-1V7a1 1 0 0 0-1-1h-2a1 1 0 0 0-1 1z"/>
            <path fill-opacity=".4" d="M10 8h2V7h-2z"/>
        </g>
    </svg>
    <svg xmlns="http://www.w3.org/2000/svg" width="16" height="12" x="0" y="162" viewBox="0 0 16 12">
        <g fill="#3498DB" fill-rule="evenodd">
            <path d="M6.5 7h-3a.5.5 0 0 1 0-1h3a.5.5 0 0 1 0 1zm-1 2h-2a.5.5 0 0 1 0-1h2a.5.5 0 0 1 0 1zM2 3h12V2H2v1zm0 7h12V5H2v5zM14 0a2 2 0 0 1 2 2v8a2 2 0 0 1-2 2H2a2 2 0 0 1-2-2V2a2 2 0 0 1 2-2h12zm-4 8V7h2v1h-2zM9 7v1a1 1 0 0 0 1 1h2a1 1 0 0 0 1-1V7a1 1 0 0 0-1-1h-2a1 1 0 0 0-1 1z"/>
            <path fill-opacity=".4" d="M10 8h2V7h-2z"/>
        </g>
    </svg>

    <!-- security -->
    <svg xmlns="http://www.w3.org/2000/svg" width="12" height="16" x="2" y="192" viewBox="0 0 12 16">
        <g fill="#C7D2E8" fill-rule="evenodd">
            <path d="M2 14h8V8H2v6zm8-8H4V4c0-1.103.897-2 2-2s2 .897 2 2a1 1 0 0 0 2 0 4 4 0 0 0-8 0v2a2 2 0 0 0-2 2v6a2 2 0 0 0 2 2h8a2 2 0 0 0 2-2V8a2 2 0 0 0-2-2zm-5 5h2v-1H5v1zm2-2H5a1 1 0 0 0-1 1v1a1 1 0 0 0 1 1 1 1 0 0 0 2 0 1 1 0 0 0 1-1v-1a1 1 0 0 0-1-1z"/>
            <path fill-opacity=".4" d="M5 11h2v-1H5z"/>
        </g>
    </svg>

    <svg xmlns="http://www.w3.org/2000/svg" width="12" height="16" x="2" y="224" viewBox="0 0 12 16">
        <g fill="#3498DB" fill-rule="evenodd">
            <path d="M2 14h8V8H2v6zm8-8H4V4c0-1.103.897-2 2-2s2 .897 2 2a1 1 0 0 0 2 0 4 4 0 0 0-8 0v2a2 2 0 0 0-2 2v6a2 2 0 0 0 2 2h8a2 2 0 0 0 2-2V8a2 2 0 0 0-2-2zm-5 5h2v-1H5v1zm2-2H5a1 1 0 0 0-1 1v1a1 1 0 0 0 1 1 1 1 0 0 0 2 0 1 1 0 0 0 1-1v-1a1 1 0 0 0-1-1z"/>
            <path fill-opacity=".4" d="M5 11h2v-1H5z"/>
        </g>
    </svg>

    <!-- buy bundles -->
    <svg xmlns="http://www.w3.org/2000/svg" width="14" height="16" x="2" y="256" viewBox="0 0 14 16">
        <g fill="none" fill-rule="evenodd">
            <path fill="#C6D2E9" d="M7.5 13.551V8.287L12 5.662v5.264l-4.5 2.625zM2 10.926V5.662l4.5 2.625v5.264L2 10.926zm5-8.769l4.512 2.632L7 7.422 2.488 4.79 7 2.157zm6.504 1.48l-6-3.5a.999.999 0 0 0-1.008 0l-6 3.5A1 1 0 0 0 0 4.5v7c0 .356.188.685.496.864l6 3.5a.996.996 0 0 0 1.008 0l6-3.5A.998.998 0 0 0 14 11.5v-7a1 1 0 0 0-.496-.864z"/>
            <path fill="#E9EDF6" d="M2 10.926V5.662l4.5 2.625v5.264L2 10.926zm5.5 2.625V8.287L12 5.662v5.264l-4.5 2.625z"/>
        </g>
    </svg>

    <svg xmlns="http://www.w3.org/2000/svg" width="14" height="16" x="2" y="288" viewBox="0 0 14 16">
        <g fill="#3498DB" fill-rule="evenodd">
            <path d="M7.5 13.551V8.287L12 5.662v5.264l-4.5 2.625zM2 10.926V5.662l4.5 2.625v5.264L2 10.926zm5-8.769l4.512 2.632L7 7.422 2.488 4.79 7 2.157zm6.504 1.48l-6-3.5a.999.999 0 0 0-1.008 0l-6 3.5A1 1 0 0 0 0 4.5v7c0 .356.188.685.496.864l6 3.5a.996.996 0 0 0 1.008 0l6-3.5A.998.998 0 0 0 14 11.5v-7a1 1 0 0 0-.496-.864z"/>
            <path fill-opacity=".4" d="M2 10.926V5.662l4.5 2.625v5.264L2 10.926zm5.5 2.625V8.287L12 5.662v5.264l-4.5 2.625z"/>
        </g>
    </svg>
</svg>
