<svg height="163" viewBox="0 0 238 163" width="238" xmlns="http://www.w3.org/2000/svg" xmlns:xlink="http://www.w3.org/1999/xlink"><defs><path id="a" d="m3.21.3325h206c1.656854 0 3 1.34314575 3 3v132c0 1.656854-1.343146 3-3 3h-206c-1.65685425 0-3-1.343146-3-3v-132c0-1.65685425 1.34314575-3 3-3z"/><filter id="b" height="131.2%" width="120.3%" x="-10.1%" y="-12.7%"><feOffset dx="0" dy="4" in="SourceAlpha" result="shadowOffsetOuter1"/><feGaussianBlur in="shadowOffsetOuter1" result="shadowBlurOuter1" stdDeviation="6.5"/><feColorMatrix in="shadowBlurOuter1" result="shadowMatrixOuter1" type="matrix" values="0 0 0 0 0.137254902   0 0 0 0 0.403921569   0 0 0 0 0.858823529  0 0 0 0.1 0"/><feOffset dx="0" dy="2" in="SourceAlpha" result="shadowOffsetOuter2"/><feGaussianBlur in="shadowOffsetOuter2" result="shadowBlurOuter2" stdDeviation="2"/><feColorMatrix in="shadowBlurOuter2" result="shadowMatrixOuter2" type="matrix" values="0 0 0 0 0.0745098039   0 0 0 0 0.243137255   0 0 0 0 0.670588235  0 0 0 0.2 0"/><feMerge><feMergeNode in="shadowMatrixOuter1"/><feMergeNode in="shadowMatrixOuter2"/></feMerge></filter></defs><g fill="none" fill-rule="evenodd"><g transform="translate(13 8)"><use fill="#000" filter="url(#b)" xlink:href="#a"/><use fill="#fff" fill-rule="evenodd" xlink:href="#a"/><path d="m11 0h37v138h-37z" fill="#ebf0fa"/><g fill="#d9e4f5"><path d="m15 103.94h29v30h-29z"/><path d="m13 4h20v4h-20z"/><path d="m13 13h20v2h-20z"/><path d="m13 18h26v2h-26z"/></g><path d="m3 0h6v138h-6c-1.65685425 0-3-1.343146-3-3v-132c0-1.65685425 1.34314575-3 3-3z" fill="#ebf0fa"/><path d="m9 0h2v138h-2z" fill="#bdc9de"/><path d="m13 26h33v4h-33z" fill="#2367db"/><path d="m13 32h33v4h-33z" fill="#2367db"/><path d="m12.2764255 12.2136437h-4.30966157l2.26813387 5.0466124c.1579906.349867-.0225468.7421499-.38366239.8905874l-1.9973277.7951421c-.37232805.1484374-.78987171-.0211895-.9478623-.3604803l-2.15527767-4.7921535-3.52072425 3.3078536c-.46917803.4407478-1.23004349.1009745-1.23004349-.4770779v-15.94507305c0-.60859341.80929045-.90528269 1.23000286-.47707786l11.55423504 10.85604471c.4660499.4148454.1221594 1.1556224-.5078124 1.1556224z" fill="#fff" fill-rule="nonzero" stroke="#000" transform="translate(42 36)"/></g><g fill="#ebf0fa"><path d="m75 63h36v24h-36z"/><path d="m119 63h36v24h-36z"/><path d="m163 63h36v24h-36z"/></g></g></svg>