<svg xmlns="http://www.w3.org/2000/svg" xmlns:xlink="http://www.w3.org/1999/xlink" width="239" height="165"><defs><filter id="a" width="120.3%" height="131.2%" x="-10.1%" y="-12.7%" filterUnits="objectBoundingBox"><feOffset dy="4" in="SourceAlpha" result="shadowOffsetOuter1"/><feGaussianBlur in="shadowOffsetOuter1" result="shadowBlurOuter1" stdDeviation="6.5"/><feColorMatrix in="shadowBlurOuter1" result="shadowMatrixOuter1" values="0 0 0 0 0.137254902 0 0 0 0 0.403921569 0 0 0 0 0.858823529 0 0 0 0.1 0"/><feOffset dy="2" in="SourceAlpha" result="shadowOffsetOuter2"/><feGaussianBlur in="shadowOffsetOuter2" result="shadowBlurOuter2" stdDeviation="2"/><feColorMatrix in="shadowBlurOuter2" result="shadowMatrixOuter2" values="0 0 0 0 0.0745098039 0 0 0 0 0.243137255 0 0 0 0 0.670588235 0 0 0 0.2 0"/><feMerge><feMergeNode in="shadowMatrixOuter1"/><feMergeNode in="shadowMatrixOuter2"/></feMerge></filter><path id="b" d="M3.21.333h206a3 3 0 013 3v132a3 3 0 01-3 3h-206a3 3 0 01-3-3v-132a3 3 0 013-3z"/></defs><g fill="none" fill-rule="evenodd" transform="translate(13 9)"><use fill="#000" filter="url(#a)" xlink:href="#b"/><use fill="#FFF" xlink:href="#b"/><path fill="#EBF0FA" d="M11 0h37v138H11z"/><path fill="#D9E4F5" d="M15 103.94h29v30H15zM13 4h20v4H13zm0 9h20v2H13zm0 5h26v2H13z"/><path fill="#EBF0FA" d="M3 0h6v138H3a3 3 0 01-3-3V3a3 3 0 013-3z"/><path fill="#BDC9DE" d="M9 0h2v138H9z"/><path fill="#2367DB" d="M13 26h33v4H13zm0 6h33v4H13z"/><path d="M54.276 48.214h-4.31l2.269 5.046c.158.35-.023.742-.384.89l-1.997.796a.745.745 0 01-.948-.36l-2.155-4.793-3.521 3.308c-.47.441-1.23.101-1.23-.477V36.68c0-.61.81-.906 1.23-.478l11.554 10.856c.466.415.122 1.156-.508 1.156h0z" fill="#FFF" fill-rule="nonzero" stroke="#000"/><path fill="#EBF0FA" d="M62 55h36v24H62zm44 0h36v24h-36zm44 0h36v24h-36z"/></g></svg>