
<svg width="269px" height="130px" viewBox="0 0 269 130" version="1.1" xmlns="http://www.w3.org/2000/svg" xmlns:xlink="http://www.w3.org/1999/xlink">
    <defs>
        <rect id="path-1" x="0" y="0" width="130" height="67" rx="2"></rect>
        <linearGradient x1="103.723846%" y1="1.74799146%" x2="45.306897%" y2="100%" id="linearGradient-3">
            <stop stop-color="#F4F6FA" offset="0%"></stop>
            <stop stop-color="#F4F6FA" stop-opacity="0" offset="100%"></stop>
        </linearGradient>
    </defs>
    <g id="Symbols" stroke="none" stroke-width="1" fill="none" fill-rule="evenodd">
        <g id="image/-No-Projects-image" transform="translate(-3.000000, -10.000000)">
            <path d="M109,100 L170,100 L167.931902,108.272393 C167.530056,109.879778 168.507338,111.508581 170.114722,111.910428 C170.352684,111.969918 170.597044,112 170.842329,112 L179,112 C179.552285,112 180,112.447715 180,113 C180,113.552285 179.552285,114 179,114 L99,114 C98.4477153,114 98,113.552285 98,113 C98,112.447715 98.4477153,112 99,112 L108.157671,112 C109.814525,112 111.157671,110.656854 111.157671,109 C111.157671,108.754715 111.127589,108.510355 111.068098,108.272393 L109,100 Z" id="Rectangle-15" fill="#C7D2E8"></path>
            <path d="M71,22 L207,22 C208.656854,22 210,23.3431458 210,25 L210,98 C210,99.6568542 208.656854,101 207,101 L161,101 C159,101 159,104 157,104 L121,104 C119,104 119,101 117,101 L71,101 C69.3431458,101 68,99.6568542 68,98 L68,25 C68,23.3431458 69.3431458,22 71,22 Z" id="Rectangle-10" fill="#E9EDF6"></path>
            <path d="M74,26.5 C73.1715729,26.5 72.5,27.1715729 72.5,28 L72.5,95 C72.5,95.8284271 73.1715729,96.5 74,96.5 L204,96.5 C204.828427,96.5 205.5,95.8284271 205.5,95 L205.5,28 C205.5,27.1715729 204.828427,26.5 204,26.5 L74,26.5 Z" id="Rectangle-10" stroke="#C7D2E8" fill="#FFFFFF"></path>
            <g id="Rectangle-12-+-Rectangle-12-+-Rectangle-12-Mask" transform="translate(74.000000, 28.000000)">
                <mask id="mask-2" fill="white">
                    <use xlink:href="#path-1"></use>
                </mask>
                <g id="Rectangle-4"></g>
                <polygon id="Rectangle" fill="#F4F6FA" mask="url(#mask-2)" points="-1 -1 131 -1 131 3 3 3 3 68 -1 68"></polygon>
                <polygon id="Rectangle-12" fill="url(#linearGradient-3)" mask="url(#mask-2)" points="85 -1 106 -1 76 63 55 63"></polygon>
                <polygon id="Rectangle-12" fill="url(#linearGradient-3)" mask="url(#mask-2)" points="112 -1 133 -1 103 63 82 63"></polygon>
                <polygon id="Rectangle-12" fill="url(#linearGradient-3)" mask="url(#mask-2)" points="107 -1 110 -1 80 63 77 63"></polygon>
            </g>
            <g id="Group" transform="translate(217.000000, 68.000000)">
                <path d="M2,0 L53,0 C54.1045695,-2.02906125e-16 55,0.8954305 55,2 L55,31 C55,32.1045695 54.1045695,33 53,33 L2,33 C0.8954305,33 1.3527075e-16,32.1045695 0,31 L0,2 C-1.3527075e-16,0.8954305 0.8954305,2.02906125e-16 2,0 Z" id="Rectangle-14-Copy-2" fill="#C7D2E8"></path>
                <rect id="Rectangle-3" fill="#D4007B" x="3" y="2" width="2" height="2" rx="1"></rect>
                <rect id="Rectangle-3-Copy" fill="#4169B6" x="7" y="2" width="2" height="2" rx="1"></rect>
                <rect id="Rectangle-3-Copy-2" fill="#53B7E8" x="11" y="2" width="2" height="2" rx="1"></rect>
                <polygon id="Rectangle-2" fill="#E9EDF6" points="2 6 14 6 14 10 2 10"></polygon>
                <rect id="Rectangle-2-Copy" fill="#E9EDF6" x="15" y="6" width="12" height="4"></rect>
                <rect id="Rectangle-2-Copy" fill="#E9EDF6" x="28" y="6" width="12" height="4"></rect>
                <rect id="Rectangle-2-Copy" fill="#E9EDF6" x="41" y="6" width="12" height="4"></rect>
                <rect id="Rectangle-2" fill="#E9EDF6" x="2" y="11" width="12" height="6"></rect>
                <rect id="Rectangle-2-Copy" fill="#FFFFFF" x="15" y="11" width="12" height="6"></rect>
                <rect id="Rectangle-2-Copy" fill="#FFFFFF" x="28" y="11" width="12" height="6"></rect>
                <rect id="Rectangle-2-Copy" fill="#FFFFFF" x="41" y="11" width="12" height="6"></rect>
                <rect id="Rectangle-2" fill="#E9EDF6" x="2" y="18" width="12" height="6"></rect>
                <rect id="Rectangle-2-Copy" fill="#FFFFFF" x="15" y="18" width="12" height="6"></rect>
                <rect id="Rectangle-2-Copy" fill="#FFFFFF" x="28" y="18" width="12" height="6"></rect>
                <rect id="Rectangle-2-Copy" fill="#FFFFFF" x="41" y="18" width="12" height="6"></rect>
                <rect id="Rectangle-2" fill="#E9EDF6" x="2" y="25" width="12" height="6"></rect>
                <rect id="Rectangle-2-Copy" fill="#FFFFFF" x="15" y="25" width="12" height="6"></rect>
                <rect id="Rectangle-2-Copy" fill="#FFFFFF" x="28" y="25" width="12" height="6"></rect>
                <rect id="Rectangle-2-Copy" fill="#FFFFFF" x="41" y="25" width="12" height="6"></rect>
            </g>
            <path d="M123.5,99 L154.5,99 C155.328427,99 156,99.6715729 156,100.5 C156,101.328427 155.328427,102 154.5,102 L123.5,102 C122.671573,102 122,101.328427 122,100.5 C122,99.6715729 122.671573,99 123.5,99 Z" id="Rectangle-14" fill="#803FB5"></path>
            <path d="M123.5,100 L154.5,100 C154.776142,100 155,100.223858 155,100.5 C155,100.776142 154.776142,101 154.5,101 L123.5,101 C123.223858,101 123,100.776142 123,100.5 C123,100.223858 123.223858,100 123.5,100 Z" id="Rectangle-14" fill="#944AE9"></path>
            <path d="M138.5,100 L139.5,100 C139.776142,100 140,100.223858 140,100.5 C140,100.776142 139.776142,101 139.5,101 L138.5,101 C138.223858,101 138,100.776142 138,100.5 C138,100.223858 138.223858,100 138.5,100 Z" id="Rectangle-14" fill="#673391"></path>
            <path d="M125.5,100 L136.5,100 C136.776142,100 137,100.223858 137,100.5 C137,100.776142 136.776142,101 136.5,101 L125.5,101 C125.223858,101 125,100.776142 125,100.5 C125,100.223858 125.223858,100 125.5,100 Z" id="Rectangle-14-Copy" fill="#673391"></path>
            <g id="Group" transform="translate(3.000000, 14.000000)">
                <path d="M2,0 L53,0 C54.1045695,-2.02906125e-16 55,0.8954305 55,2 L55,31 C55,32.1045695 54.1045695,33 53,33 L2,33 C0.8954305,33 1.3527075e-16,32.1045695 0,31 L0,2 C-1.3527075e-16,0.8954305 0.8954305,2.02906125e-16 2,0 Z" id="Rectangle-14-Copy-2" fill="#C7D2E8"></path>
                <rect id="Rectangle-3" fill="#D4007B" x="3" y="2" width="2" height="2" rx="1"></rect>
                <rect id="Rectangle-3-Copy" fill="#4169B6" x="7" y="2" width="2" height="2" rx="1"></rect>
                <rect id="Rectangle-3-Copy-2" fill="#53B7E8" x="11" y="2" width="2" height="2" rx="1"></rect>
                <polygon id="Rectangle-2" fill="#E9EDF6" points="2 6 14 6 14 10 2 10"></polygon>
                <rect id="Rectangle-2-Copy" fill="#E9EDF6" x="15" y="6" width="12" height="4"></rect>
                <rect id="Rectangle-2-Copy" fill="#E9EDF6" x="28" y="6" width="12" height="4"></rect>
                <rect id="Rectangle-2-Copy" fill="#E9EDF6" x="41" y="6" width="12" height="4"></rect>
                <rect id="Rectangle-2" fill="#E9EDF6" x="2" y="11" width="12" height="6"></rect>
                <rect id="Rectangle-2-Copy" fill="#FFFFFF" x="15" y="11" width="12" height="6"></rect>
                <rect id="Rectangle-2-Copy" fill="#FFFFFF" x="28" y="11" width="12" height="6"></rect>
                <rect id="Rectangle-2-Copy" fill="#FFFFFF" x="41" y="11" width="12" height="6"></rect>
                <rect id="Rectangle-2" fill="#E9EDF6" x="2" y="18" width="12" height="6"></rect>
                <rect id="Rectangle-2-Copy" fill="#FFFFFF" x="15" y="18" width="12" height="6"></rect>
                <rect id="Rectangle-2-Copy" fill="#FFFFFF" x="28" y="18" width="12" height="6"></rect>
                <rect id="Rectangle-2-Copy" fill="#FFFFFF" x="41" y="18" width="12" height="6"></rect>
                <rect id="Rectangle-2" fill="#E9EDF6" x="2" y="25" width="12" height="6"></rect>
                <rect id="Rectangle-2-Copy" fill="#FFFFFF" x="15" y="25" width="12" height="6"></rect>
                <rect id="Rectangle-2-Copy" fill="#FFFFFF" x="28" y="25" width="12" height="6"></rect>
                <rect id="Rectangle-2-Copy" fill="#FFFFFF" x="41" y="25" width="12" height="6"></rect>
            </g>
            <g id="Group-2" transform="translate(49.000000, 10.000000)">
                <circle id="Oval-5" stroke-opacity="0.14" stroke="#283645" fill="#3498DB" cx="6" cy="6" r="5.5"></circle>
                <path d="M7,5 L8,5 C8.55228475,5 9,5.44771525 9,6 C9,6.55228475 8.55228475,7 8,7 L7,7 L7,8 C7,8.55228475 6.55228475,9 6,9 C5.44771525,9 5,8.55228475 5,8 L5,7 L4,7 C3.44771525,7 3,6.55228475 3,6 C3,5.44771525 3.44771525,5 4,5 L5,5 L5,4 C5,3.44771525 5.44771525,3 6,3 C6.55228475,3 7,3.44771525 7,4 L7,5 Z" id="Combined-Shape" fill="#FFFFFF"></path>
            </g>
            <path d="M99,112 L179,112 C179.552285,112 180,112.447715 180,113 C180,113.552285 179.552285,114 179,114 L99,114 C98.4477153,114 98,113.552285 98,113 C98,112.447715 98.4477153,112 99,112 Z" id="Rectangle-6" fill="#E9EDF6"></path>
            <path d="M139,140 C175.450333,140 205,136.866154 205,133 C205,129.133846 175.450333,126 139,126 C102.549667,126 73,129.133846 73,133 C73,136.866154 102.549667,140 139,140" id="Fill-1" fill="#F4F6FA"></path>
            <g id="Group" transform="translate(46.000000, 59.000000)">
                <g id="Group-3">
                    <g id="Group">
                        <path d="M2,0 L53,0 C54.1045695,-2.02906125e-16 55,0.8954305 55,2 L55,31 C55,32.1045695 54.1045695,33 53,33 L2,33 C0.8954305,33 1.3527075e-16,32.1045695 0,31 L0,2 C-1.3527075e-16,0.8954305 0.8954305,2.02906125e-16 2,0 Z" id="Rectangle-14-Copy-2" fill="#C7D2E8"></path>
                        <rect id="Rectangle-3" fill="#D4007B" x="3" y="2" width="2" height="2" rx="1"></rect>
                        <rect id="Rectangle-3-Copy" fill="#4169B6" x="7" y="2" width="2" height="2" rx="1"></rect>
                        <rect id="Rectangle-3-Copy-2" fill="#53B7E8" x="11" y="2" width="2" height="2" rx="1"></rect>
                        <polygon id="Rectangle-2" fill="#E9EDF6" points="2 6 14 6 14 10 2 10"></polygon>
                        <rect id="Rectangle-2-Copy" fill="#E9EDF6" x="15" y="6" width="12" height="4"></rect>
                        <rect id="Rectangle-2-Copy" fill="#E9EDF6" x="28" y="6" width="12" height="4"></rect>
                        <rect id="Rectangle-2-Copy" fill="#E9EDF6" x="41" y="6" width="12" height="4"></rect>
                        <rect id="Rectangle-2" fill="#E9EDF6" x="2" y="11" width="12" height="6"></rect>
                        <rect id="Rectangle-2-Copy" fill="#FFFFFF" x="15" y="11" width="12" height="6"></rect>
                        <rect id="Rectangle-2-Copy" fill="#FFFFFF" x="28" y="11" width="12" height="6"></rect>
                        <rect id="Rectangle-2-Copy" fill="#FFFFFF" x="41" y="11" width="12" height="6"></rect>
                        <rect id="Rectangle-2" fill="#E9EDF6" x="2" y="18" width="12" height="6"></rect>
                        <rect id="Rectangle-2-Copy" fill="#FFFFFF" x="15" y="18" width="12" height="6"></rect>
                        <rect id="Rectangle-2-Copy" fill="#FFFFFF" x="28" y="18" width="12" height="6"></rect>
                        <rect id="Rectangle-2-Copy" fill="#FFFFFF" x="41" y="18" width="12" height="6"></rect>
                        <rect id="Rectangle-2" fill="#E9EDF6" x="2" y="25" width="12" height="6"></rect>
                        <rect id="Rectangle-2-Copy" fill="#FFFFFF" x="15" y="25" width="12" height="6"></rect>
                        <rect id="Rectangle-2-Copy" fill="#FFFFFF" x="28" y="25" width="12" height="6"></rect>
                        <rect id="Rectangle-2-Copy" fill="#FFFFFF" x="41" y="25" width="12" height="6"></rect>
                        <path d="M18,13 L19,13 C19.5522847,13 20,13.4477153 20,14 C20,14.5522847 19.5522847,15 19,15 L18,15 C17.4477153,15 17,14.5522847 17,14 C17,13.4477153 17.4477153,13 18,13 Z M22,13 L24,13 C24.5522847,13 25,13.4477153 25,14 C25,14.5522847 24.5522847,15 24,15 L22,15 C21.4477153,15 21,14.5522847 21,14 C21,13.4477153 21.4477153,13 22,13 Z" id="Combined-Shape" fill="#C7D2E8"></path>
                        <rect id="Combined-Shape-Copy" fill="#C7D2E8" x="32" y="20" width="4" height="2"></rect>
                        <rect id="Combined-Shape-Copy" fill="#C7D2E8" x="43" y="27" width="8" height="2"></rect>
                        <path d="M44,7 L45,7 C45.5522847,7 46,7.44771525 46,8 C46,8.55228475 45.5522847,9 45,9 L44,9 C43.4477153,9 43,8.55228475 43,8 C43,7.44771525 43.4477153,7 44,7 Z M48,7 L50,7 C50.5522847,7 51,7.44771525 51,8 C51,8.55228475 50.5522847,9 50,9 L48,9 C47.4477153,9 47,8.55228475 47,8 C47,7.44771525 47.4477153,7 48,7 Z" id="Combined-Shape-Copy-2" fill="#C7D2E8"></path>
                        <path d="M31,7 L32,7 C32.5522847,7 33,7.44771525 33,8 C33,8.55228475 32.5522847,9 32,9 L31,9 C30.4477153,9 30,8.55228475 30,8 C30,7.44771525 30.4477153,7 31,7 Z M35,7 L37,7 C37.5522847,7 38,7.44771525 38,8 C38,8.55228475 37.5522847,9 37,9 L35,9 C34.4477153,9 34,8.55228475 34,8 C34,7.44771525 34.4477153,7 35,7 Z" id="Combined-Shape-Copy-3" fill="#C7D2E8"></path>
                        <path d="M19,9 L18,9 C17.4477153,9 17,8.55228475 17,8 C17,7.44771525 17.4477153,7 18,7 L19,7 C19.5522847,7 20,7.44771525 20,8 C20,8.55228475 19.5522847,9 19,9 Z M24,9 L22,9 C21.4477153,9 21,8.55228475 21,8 C21,7.44771525 21.4477153,7 22,7 L24,7 C24.5522847,7 25,7.44771525 25,8 C25,8.55228475 24.5522847,9 24,9 Z" id="Combined-Shape-Copy-4" fill="#C7D2E8" transform="translate(21.000000, 8.000000) scale(-1, 1) translate(-21.000000, -8.000000) "></path>
                        <rect id="Combined-Shape-Copy-5" fill="#C7D2E8" x="4" y="7" width="8" height="2"></rect>
                        <path d="M5,13 L6,13 C6.55228475,13 7,13.4477153 7,14 C7,14.5522847 6.55228475,15 6,15 L5,15 C4.44771525,15 4,14.5522847 4,14 C4,13.4477153 4.44771525,13 5,13 Z M9,13 L11,13 C11.5522847,13 12,13.4477153 12,14 C12,14.5522847 11.5522847,15 11,15 L9,15 C8.44771525,15 8,14.5522847 8,14 C8,13.4477153 8.44771525,13 9,13 Z" id="Combined-Shape-Copy-6" fill="#C7D2E8"></path>
                        <path d="M5,20 C5.55228475,20 6,20.4477153 6,21 C6,21.5522847 5.55228475,22 5,22 C4.44771525,22 4,21.5522847 4,21 C4,20.4477153 4.44771525,20 5,20 Z M8,20 L11,20 C11.5522847,20 12,20.4477153 12,21 C12,21.5522847 11.5522847,22 11,22 L8,22 C7.44771525,22 7,21.5522847 7,21 C7,20.4477153 7.44771525,20 8,20 Z" id="Combined-Shape-Copy-7" fill="#C7D2E8"></path>
                        <path d="M18,27 L21,27 C21.5522847,27 22,27.4477153 22,28 C22,28.5522847 21.5522847,29 21,29 L18,29 C17.4477153,29 17,28.5522847 17,28 C17,27.4477153 17.4477153,27 18,27 Z M24,27 C24.5522847,27 25,27.4477153 25,28 C25,28.5522847 24.5522847,29 24,29 C23.4477153,29 23,28.5522847 23,28 C23,27.4477153 23.4477153,27 24,27 Z" id="Combined-Shape-Copy-9" fill="#C7D2E8"></path>
                        <path d="M5,27 L9,27 C9.55228475,27 10,27.4477153 10,28 C10,28.5522847 9.55228475,29 9,29 L5,29 C4.44771525,29 4,28.5522847 4,28 C4,27.4477153 4.44771525,27 5,27 Z M11.5,27 C11.7761424,27 12,27.2238576 12,27.5 L12,28.5 C12,28.7761424 11.7761424,29 11.5,29 C11.2238576,29 11,28.7761424 11,28.5 L11,27.5 C11,27.2238576 11.2238576,27 11.5,27 Z" id="Combined-Shape-Copy-8" fill="#C7D2E8"></path>
                    </g>
                </g>
            </g>
            <g id="Group-3" transform="translate(178.000000, 14.000000)">
                <g id="Group">
                    <path d="M2,0 L53,0 C54.1045695,-2.02906125e-16 55,0.8954305 55,2 L55,31 C55,32.1045695 54.1045695,33 53,33 L2,33 C0.8954305,33 1.3527075e-16,32.1045695 0,31 L0,2 C-1.3527075e-16,0.8954305 0.8954305,2.02906125e-16 2,0 Z" id="Rectangle-14-Copy-2" fill="#C7D2E8"></path>
                    <rect id="Rectangle-3" fill="#D4007B" x="3" y="2" width="2" height="2" rx="1"></rect>
                    <rect id="Rectangle-3-Copy" fill="#4169B6" x="7" y="2" width="2" height="2" rx="1"></rect>
                    <rect id="Rectangle-3-Copy-2" fill="#53B7E8" x="11" y="2" width="2" height="2" rx="1"></rect>
                    <polygon id="Rectangle-2" fill="#E9EDF6" points="2 6 14 6 14 10 2 10"></polygon>
                    <rect id="Rectangle-2-Copy" fill="#E9EDF6" x="15" y="6" width="12" height="4"></rect>
                    <rect id="Rectangle-2-Copy" fill="#E9EDF6" x="28" y="6" width="12" height="4"></rect>
                    <rect id="Rectangle-2-Copy" fill="#E9EDF6" x="41" y="6" width="12" height="4"></rect>
                    <rect id="Rectangle-2" fill="#E9EDF6" x="2" y="11" width="12" height="6"></rect>
                    <rect id="Rectangle-2-Copy" fill="#FFFFFF" x="15" y="11" width="12" height="6"></rect>
                    <rect id="Rectangle-2-Copy" fill="#FFFFFF" x="28" y="11" width="12" height="6"></rect>
                    <rect id="Rectangle-2-Copy" fill="#FFFFFF" x="41" y="11" width="12" height="6"></rect>
                    <rect id="Rectangle-2" fill="#E9EDF6" x="2" y="18" width="12" height="6"></rect>
                    <rect id="Rectangle-2-Copy" fill="#FFFFFF" x="15" y="18" width="12" height="6"></rect>
                    <rect id="Rectangle-2-Copy" fill="#FFFFFF" x="28" y="18" width="12" height="6"></rect>
                    <rect id="Rectangle-2-Copy" fill="#FFFFFF" x="41" y="18" width="12" height="6"></rect>
                    <rect id="Rectangle-2" fill="#E9EDF6" x="2" y="25" width="12" height="6"></rect>
                    <rect id="Rectangle-2-Copy" fill="#FFFFFF" x="15" y="25" width="12" height="6"></rect>
                    <rect id="Rectangle-2-Copy" fill="#FFFFFF" x="28" y="25" width="12" height="6"></rect>
                    <rect id="Rectangle-2-Copy" fill="#FFFFFF" x="41" y="25" width="12" height="6"></rect>
                    <path d="M31,13 L32,13 C32.5522847,13 33,13.4477153 33,14 C33,14.5522847 32.5522847,15 32,15 L31,15 C30.4477153,15 30,14.5522847 30,14 C30,13.4477153 30.4477153,13 31,13 Z M35,13 L37,13 C37.5522847,13 38,13.4477153 38,14 C38,14.5522847 37.5522847,15 37,15 L35,15 C34.4477153,15 34,14.5522847 34,14 C34,13.4477153 34.4477153,13 35,13 Z" id="Combined-Shape" fill="#C7D2E8"></path>
                    <path d="M44,13 L45,13 C45.5522847,13 46,13.4477153 46,14 C46,14.5522847 45.5522847,15 45,15 L44,15 C43.4477153,15 43,14.5522847 43,14 C43,13.4477153 43.4477153,13 44,13 Z M48,13 L50,13 C50.5522847,13 51,13.4477153 51,14 C51,14.5522847 50.5522847,15 50,15 L48,15 C47.4477153,15 47,14.5522847 47,14 C47,13.4477153 47.4477153,13 48,13 Z" id="Combined-Shape-Copy-11" fill="#C7D2E8"></path>
                    <rect id="Combined-Shape-Copy" fill="#C7D2E8" x="19" y="20" width="4" height="2"></rect>
                    <rect id="Combined-Shape-Copy" fill="#C7D2E8" x="43" y="27" width="8" height="2"></rect>
                    <rect id="Combined-Shape-Copy-10" fill="#C7D2E8" x="17" y="27" width="8" height="2"></rect>
                    <path d="M44,7 L45,7 C45.5522847,7 46,7.44771525 46,8 C46,8.55228475 45.5522847,9 45,9 L44,9 C43.4477153,9 43,8.55228475 43,8 C43,7.44771525 43.4477153,7 44,7 Z M48,7 L50,7 C50.5522847,7 51,7.44771525 51,8 C51,8.55228475 50.5522847,9 50,9 L48,9 C47.4477153,9 47,8.55228475 47,8 C47,7.44771525 47.4477153,7 48,7 Z" id="Combined-Shape-Copy-2" fill="#C7D2E8"></path>
                    <path d="M31,7 L32,7 C32.5522847,7 33,7.44771525 33,8 C33,8.55228475 32.5522847,9 32,9 L31,9 C30.4477153,9 30,8.55228475 30,8 C30,7.44771525 30.4477153,7 31,7 Z M35,7 L37,7 C37.5522847,7 38,7.44771525 38,8 C38,8.55228475 37.5522847,9 37,9 L35,9 C34.4477153,9 34,8.55228475 34,8 C34,7.44771525 34.4477153,7 35,7 Z" id="Combined-Shape-Copy-3" fill="#C7D2E8"></path>
                    <path d="M19,9 L18,9 C17.4477153,9 17,8.55228475 17,8 C17,7.44771525 17.4477153,7 18,7 L19,7 C19.5522847,7 20,7.44771525 20,8 C20,8.55228475 19.5522847,9 19,9 Z M24,9 L22,9 C21.4477153,9 21,8.55228475 21,8 C21,7.44771525 21.4477153,7 22,7 L24,7 C24.5522847,7 25,7.44771525 25,8 C25,8.55228475 24.5522847,9 24,9 Z" id="Combined-Shape-Copy-4" fill="#C7D2E8" transform="translate(21.000000, 8.000000) scale(-1, 1) translate(-21.000000, -8.000000) "></path>
                    <rect id="Combined-Shape-Copy-5" fill="#C7D2E8" x="4" y="7" width="8" height="2"></rect>
                    <path d="M5,13 L6,13 C6.55228475,13 7,13.4477153 7,14 C7,14.5522847 6.55228475,15 6,15 L5,15 C4.44771525,15 4,14.5522847 4,14 C4,13.4477153 4.44771525,13 5,13 Z M9,13 L11,13 C11.5522847,13 12,13.4477153 12,14 C12,14.5522847 11.5522847,15 11,15 L9,15 C8.44771525,15 8,14.5522847 8,14 C8,13.4477153 8.44771525,13 9,13 Z" id="Combined-Shape-Copy-6" fill="#C7D2E8"></path>
                    <path d="M5,20 C5.55228475,20 6,20.4477153 6,21 C6,21.5522847 5.55228475,22 5,22 C4.44771525,22 4,21.5522847 4,21 C4,20.4477153 4.44771525,20 5,20 Z M8,20 L11,20 C11.5522847,20 12,20.4477153 12,21 C12,21.5522847 11.5522847,22 11,22 L8,22 C7.44771525,22 7,21.5522847 7,21 C7,20.4477153 7.44771525,20 8,20 Z" id="Combined-Shape-Copy-7" fill="#C7D2E8"></path>
                    <path d="M31,20 L34,20 C34.5522847,20 35,20.4477153 35,21 C35,21.5522847 34.5522847,22 34,22 L31,22 C30.4477153,22 30,21.5522847 30,21 C30,20.4477153 30.4477153,20 31,20 Z M37,20 C37.5522847,20 38,20.4477153 38,21 C38,21.5522847 37.5522847,22 37,22 C36.4477153,22 36,21.5522847 36,21 C36,20.4477153 36.4477153,20 37,20 Z" id="Combined-Shape-Copy-9" fill="#C7D2E8"></path>
                    <path d="M5,27 L9,27 C9.55228475,27 10,27.4477153 10,28 C10,28.5522847 9.55228475,29 9,29 L5,29 C4.44771525,29 4,28.5522847 4,28 C4,27.4477153 4.44771525,27 5,27 Z M11.5,27 C11.7761424,27 12,27.2238576 12,27.5 L12,28.5 C12,28.7761424 11.7761424,29 11.5,29 C11.2238576,29 11,28.7761424 11,28.5 L11,27.5 C11,27.2238576 11.2238576,27 11.5,27 Z" id="Combined-Shape-Copy-8" fill="#C7D2E8"></path>
                </g>
            </g>
        </g>
    </g>
</svg>
