<?xml version="1.0" encoding="UTF-8"?>
<svg width="19px" height="19px" viewBox="0 0 19 19" version="1.1" xmlns="http://www.w3.org/2000/svg" xmlns:xlink="http://www.w3.org/1999/xlink">
    <g id="times" fill="#ffffff" fill-rule="nonzero">
        <path d="M15.9531088,18.6062176 L18.6062176,15.9531088 C19.0689119,15.4904145 19.0689119,14.7471503 18.6062176,14.284456 L13.8217617,9.5 L18.6062176,4.71554404 C19.0689119,4.25284974 19.0689119,3.50958549 18.6062176,3.04689119 L15.9531088,0.393782383 C15.4904145,-0.0689119171 14.7471503,-0.0689119171 14.284456,0.393782383 L9.5,5.17823834 L4.71554404,0.393782383 C4.25284974,-0.0689119171 3.50958549,-0.0689119171 3.04689119,0.393782383 L0.393782383,3.04689119 C-0.0689119171,3.50958549 -0.0689119171,4.25284974 0.393782383,4.71554404 L5.17823834,9.5 L0.393782383,14.284456 C-0.0689119171,14.7471503 -0.0689119171,15.4904145 0.393782383,15.9531088 L3.04689119,18.6062176 C3.50958549,19.0689119 4.25284974,19.0689119 4.71554404,18.6062176 L9.5,13.8217617 L14.284456,18.6062176 C14.742228,19.0639896 15.4904145,19.0639896 15.9531088,18.6062176 Z" id="Shape"></path>
    </g>
</svg>
