<svg xmlns="http://www.w3.org/2000/svg" viewBox="0 0 40 30"><defs><style>.cls-1{opacity:0.4;}.cls-2{fill:#c7d2e8;}</style></defs><title>Widget_Mods_Designs_161122_V1-2_AN</title><g id="Visuals"><g class="cls-1"><rect class="cls-2" x="19" y="21" width="8" height="2" rx="1" ry="1"/></g><path class="cls-2" d="M26.71,11.29l-4-4a1,1,0,0,0-1.41,0l-10,10A1,1,0,0,0,11,18v4a1,1,0,0,0,1,1h4a1,1,0,0,0,.71-.29l10-10a1,1,0,0,0,0-1.41ZM15.59,21H13V18.41l9-9L24.59,12Z"/><g class="cls-1"><path class="cls-2" d="M21.71,12.29a1,1,0,1,0-1.41,1.41L21.59,15,23,13.59Z"/></g></g></svg>