<svg xmlns="http://www.w3.org/2000/svg" viewBox="0 0 40 30"><defs><style>.cls-1{isolation:isolate;}.cls-2{mix-blend-mode:multiply;}.cls-3{fill:#c7d2e8;}.cls-4{opacity:0.4;}</style></defs><title>Widget_Mods_Designs_161122_V1-2_AN</title><g class="cls-1"><g id="Visuals"><g class="cls-2"><path class="cls-3" d="M27,11a2,2,0,0,0-2-2H13a2,2,0,0,0-2,2v8a2,2,0,0,0,2,2H25a2,2,0,0,0,2-2Zm-2,8H13V11H25Z"/><polygon class="cls-3" points="25 14 25 13 17 13 17 11 16 11 16 13 13 13 13 14 16 14 16 16 13 16 13 17 16 17 16 19 17 19 17 17 25 17 25 16 17 16 17 14 25 14"/><g class="cls-4"><rect class="cls-3" x="13" y="11" width="3" height="2"/></g><g class="cls-4"><rect class="cls-3" x="13" y="14" width="3" height="2"/></g><g class="cls-4"><rect class="cls-3" x="13" y="17" width="3" height="2"/></g></g></g></g></svg>