<svg xmlns="http://www.w3.org/2000/svg" viewBox="0 0 40 30"><defs><style>.cls-1{isolation:isolate;}.cls-2{mix-blend-mode:multiply;}.cls-3{fill:#c7d2e8;}.cls-4{opacity:0.4;}</style></defs><title>Widget_Mods_Designs_161122_V1-2_AN</title><g class="cls-1"><g id="Visuals"><g class="cls-2"><rect class="cls-3" x="15" y="15" width="2" height="5" rx="1" ry="1"/><rect class="cls-3" x="21" y="16" width="2" height="4" rx="1" ry="1"/><rect class="cls-3" x="18" y="17" width="2" height="3" rx="1" ry="1"/><rect class="cls-3" x="13" y="19" width="12" height="1"/><g class="cls-4"><rect class="cls-3" x="13" y="20" width="12" height="1"/></g><path class="cls-3" d="M25,12H22a1,1,0,0,0,0,2h3v7H13V14h3a1,1,0,0,0,0-2H13a2,2,0,0,0-2,2v7a2,2,0,0,0,2,2H25a2,2,0,0,0,2-2V14A2,2,0,0,0,25,12Z"/><path class="cls-3" d="M20,11h1.5a.5.5,0,0,0,.5-.5.49.49,0,0,0-.11-.29h0L19.8,7.4h0a1,1,0,0,0-1.58,0h0l-2.1,2.8h0a.49.49,0,0,0-.11.29.5.5,0,0,0,.5.5H18v4a1,1,0,0,0,1,1h0a1,1,0,0,0,1-1Z"/></g></g></g></svg>