<svg xmlns="http://www.w3.org/2000/svg" viewBox="0 0 16 28"><defs><style>.cls-1,.cls-2{fill:#fff;}.cls-2{opacity:0.4;}</style></defs><title>Widget_Mods_Designs_161122_V1-2_AN</title><g id="Visuals"><path class="cls-1" d="M9.84,13.91a2,2,0,1,0-2,2A2,2,0,0,0,9.84,13.91Zm-3,0a1,1,0,1,1,1,1A1,1,0,0,1,6.84,13.91Z"/><path class="cls-1" d="M9.84,18.91a2,2,0,1,0-2,2A2,2,0,0,0,9.84,18.91Zm-3,0a1,1,0,1,1,1,1A1,1,0,0,1,6.84,18.91Z"/><path class="cls-1" d="M9.84,8.91a2,2,0,1,0-2,2A2,2,0,0,0,9.84,8.91Zm-3,0a1,1,0,1,1,1,1A1,1,0,0,1,6.84,8.91Z"/><circle class="cls-2" cx="7.84" cy="8.91" r="1"/><circle class="cls-2" cx="7.84" cy="13.91" r="1"/><circle class="cls-2" cx="7.84" cy="18.91" r="1"/></g></svg>
