<?xml version="1.0" encoding="UTF-8" standalone="no"?>
<!DOCTYPE svg PUBLIC "-//W3C//DTD SVG 1.1//EN" "http://www.w3.org/Graphics/SVG/1.1/DTD/svg11.dtd">
<svg width="100%" height="100%" viewBox="0 0 19 16" version="1.1" xmlns="http://www.w3.org/2000/svg" xmlns:xlink="http://www.w3.org/1999/xlink" xml:space="preserve" style="fill-rule:evenodd;clip-rule:evenodd;stroke-linejoin:round;stroke-miterlimit:1.41421;">
    <g id="Artboard1" transform="matrix(0.978065,0,0,0.818997,-745.792,-318.341)">
        <rect x="762.519" y="388.696" width="18.847" height="18.848" style="fill:none;"/>
        <g transform="matrix(2.04485,0,0,2.44201,-1282.36,-420.2)">
            <clipPath id="_clip1">
                <rect x="869.312" y="332.068" width="138.908" height="6.314"/>
            </clipPath>
            <g clip-path="url(#_clip1)">
                <g opacity="0.4">
                    <path d="M1001.91,335.225C1001.91,335.574 1001.63,335.856 1001.28,335.856C1000.93,335.856 1000.65,335.574 1000.65,335.225C1000.65,334.876 1000.93,334.594 1001.28,334.594C1001.63,334.594 1001.91,334.876 1001.91,335.225" style="fill:rgb(40,54,69);fill-rule:nonzero;"/>
                    <path d="M1008.23,335.225C1008.23,335.574 1007.94,335.856 1007.59,335.856C1007.25,335.856 1006.96,335.574 1006.96,335.225C1006.96,334.876 1007.25,334.594 1007.59,334.594C1007.94,334.594 1008.23,334.876 1008.23,335.225" style="fill:rgb(40,54,69);fill-rule:nonzero;"/>
                    <path d="M1005.7,332.699C1005.7,333.048 1005.42,333.33 1005.07,333.33C1004.72,333.33 1004.44,333.048 1004.44,332.699C1004.44,332.35 1004.72,332.068 1005.07,332.068C1005.42,332.068 1005.7,332.35 1005.7,332.699" style="fill:rgb(40,54,69);fill-rule:nonzero;"/>
                    <path d="M1005.7,337.75C1005.7,338.099 1005.42,338.381 1005.07,338.381C1004.72,338.381 1004.44,338.099 1004.44,337.75C1004.44,337.401 1004.72,337.119 1005.07,337.119C1005.42,337.119 1005.7,337.401 1005.7,337.75" style="fill:rgb(40,54,69);fill-rule:nonzero;"/>
                    <rect x="1001.28" y="334.593" width="6.314" height="1.263" style="fill:rgb(40,54,69);fill-rule:nonzero;"/>
                    <path d="M1007.15,335.671C1006.25,334.778 1005.51,334.038 1004.62,333.145L1005.51,332.253C1006.41,333.145 1007.15,333.885 1008.04,334.778L1007.15,335.671Z" style="fill:rgb(40,54,69);fill-rule:nonzero;"/>
                    <path d="M1008.04,335.671C1007.15,336.564 1006.41,337.304 1005.51,338.197L1004.62,337.304C1005.51,336.411 1006.25,335.671 1007.15,334.778L1008.04,335.671Z" style="fill:rgb(40,54,69);fill-rule:nonzero;"/>
                </g>
            </g>
        </g>
    </g>
</svg>
