<svg xmlns="http://www.w3.org/2000/svg" width="12" height="14" viewBox="0 0 12 14">
    <g fill="none" fill-rule="evenodd">
        <path fill="#FFF" d="M6.432.26a.856.856 0 0 0-.864 0l-5.143 3A.857.857 0 0 0 0 4v6c0 .305.161.587.425.74l5.143 3a.854.854 0 0 0 .864 0l5.143-3A.855.855 0 0 0 12 10V4a.857.857 0 0 0-.425-.74l-5.143-3z"/>
        <path fill="#63B7E6" d="M1 9.926V4.662l4.5 2.625v5.264z"/>
        <path fill="#D50181" d="M6.5 12.551V7.287L11 4.662v5.264z"/>
        <path fill="#4465AA" d="M6 1.157l4.512 2.632L6 6.422 1.488 3.79z"/>
    </g>
</svg>
