<svg xmlns="http://www.w3.org/2000/svg" width="12" height="24" viewBox="0 0 12 24">
    <svg xmlns="http://www.w3.org/2000/svg" width="12" height="12" y="0" viewBox="0 0 12 12">
        <path fill="#8792A9" fill-rule="evenodd" d="M11.24.87A2.159 2.159 0 0 0 9.665.222H2.23A2.16 2.16 0 0 0 .654.87 2.117 2.117 0 0 0 0 2.43v7.362c0 .608.218 1.128.654 1.56.437.432.962.648 1.576.648h7.435c.614 0 1.139-.216 1.575-.648.436-.432.655-.952.655-1.56V2.43c0-.608-.219-1.128-.655-1.56zM9.912 6.356a.459.459 0 0 1-.302.453.55.55 0 0 1-.193.038.463.463 0 0 1-.349-.146L7.953 5.597 3.818 9.692a.479.479 0 0 1-.349.146.48.48 0 0 1-.348-.146l-.79-.782a.469.469 0 0 1-.147-.345c0-.133.049-.248.147-.345l4.135-4.095L5.351 3.02c-.16-.148-.196-.328-.108-.537.087-.2.24-.3.457-.3h3.717c.134 0 .25.05.348.147a.469.469 0 0 1 .147.345v3.68z"/>
    </svg>
    <svg xmlns="http://www.w3.org/2000/svg" width="12" height="12"  y="12" viewBox="0 0 12 12">
        <path fill="#3498db" fill-rule="evenodd" d="M11.24.87A2.159 2.159 0 0 0 9.665.222H2.23A2.16 2.16 0 0 0 .654.87 2.117 2.117 0 0 0 0 2.43v7.362c0 .608.218 1.128.654 1.56.437.432.962.648 1.576.648h7.435c.614 0 1.139-.216 1.575-.648.436-.432.655-.952.655-1.56V2.43c0-.608-.219-1.128-.655-1.56zM9.912 6.356a.459.459 0 0 1-.302.453.55.55 0 0 1-.193.038.463.463 0 0 1-.349-.146L7.953 5.597 3.818 9.692a.479.479 0 0 1-.349.146.48.48 0 0 1-.348-.146l-.79-.782a.469.469 0 0 1-.147-.345c0-.133.049-.248.147-.345l4.135-4.095L5.351 3.02c-.16-.148-.196-.328-.108-.537.087-.2.24-.3.457-.3h3.717c.134 0 .25.05.348.147a.469.469 0 0 1 .147.345v3.68z"/>
    </svg>
</svg>
