<svg xmlns="http://www.w3.org/2000/svg" width="13" height="135" viewBox="0 0 13 135"><defs><clipPath id="a"><path d="M128.937 649.084h933.123v-532.8H128.937v532.8z"/></clipPath><clipPath id="b"><path d="M223.369 571.07h39.148v-13.26h-39.148v13.26z"/></clipPath><clipPath id="c"><path d="M203.163 604.536h46.094v-18.312h-46.094v18.312z"/></clipPath><clipPath id="d"><path d="M223.369 543.288h87.136v-24.626h-87.136v24.626z"/></clipPath><clipPath id="e"><path d="M223.369 505.402h100.396v-24.625H223.369v24.625z"/></clipPath><clipPath id="f"><path d="M223.369 467.517h90.293v-24.625h-90.293v24.625z"/></clipPath><clipPath id="g"><path d="M223.369 429.632h86.504v-24.625h-86.504v24.625z"/></clipPath><clipPath id="h"><path d="M223.369 391.747h92.818v-24.626h-92.818v24.626z"/></clipPath><clipPath id="i"><path d="M223.369 353.861h100.396v-24.625H223.369v24.625z"/></clipPath><clipPath id="j"><path d="M223.369 315.976h100.396v-24.625H223.369v24.625z"/></clipPath><clipPath id="k"><path d="M223.369 278.091h99.133v-24.626h-99.133v24.626z"/></clipPath><clipPath id="l"><path d="M223.369 240.206h92.818V215.58h-92.818v24.626z"/></clipPath><clipPath id="m"><path d="M223.369 202.32h95.976v-24.625h-95.976v24.625z"/></clipPath><clipPath id="n"><path d="M223.369 164.435h91.556V139.81h-91.556v24.625z"/></clipPath><clipPath id="o"><path d="M105.293 704.3h983.127V82.35H105.293V704.3z"/></clipPath><clipPath id="p"><path d="M141.469 436.507h909.251v-568.279H141.469v568.279z"/></clipPath><clipPath id="q"><path d="M128.937 649.084h933.123v-532.8H128.937v532.8z"/></clipPath><clipPath id="r"><path d="M102.767 709.351h983.123V87.401H102.767v621.95z"/></clipPath><clipPath id="s"><path d="M223.369 571.07h39.148v-13.26h-39.148v13.26z"/></clipPath><clipPath id="t"><path d="M203.163 604.536h46.094v-18.312h-46.094v18.312z"/></clipPath><clipPath id="u"><path d="M223.369 543.288h87.136v-24.626h-87.136v24.626z"/></clipPath><clipPath id="v"><path d="M223.369 505.402h100.396v-24.625H223.369v24.625z"/></clipPath><clipPath id="w"><path d="M223.369 467.517h90.293v-24.625h-90.293v24.625z"/></clipPath><clipPath id="x"><path d="M223.369 429.632h86.504v-24.625h-86.504v24.625z"/></clipPath><clipPath id="y"><path d="M223.369 391.747h92.818v-24.626h-92.818v24.626z"/></clipPath><clipPath id="z"><path d="M223.369 353.861h100.396v-24.625H223.369v24.625z"/></clipPath><clipPath id="A"><path d="M223.369 315.976h100.396v-24.625H223.369v24.625z"/></clipPath><clipPath id="B"><path d="M223.369 278.091h99.133v-24.626h-99.133v24.626z"/></clipPath><clipPath id="C"><path d="M223.369 240.206h92.818V215.58h-92.818v24.626z"/></clipPath><clipPath id="D"><path d="M223.369 202.32h95.976v-24.625h-95.976v24.625z"/></clipPath><clipPath id="E"><path d="M223.369 164.435h91.556V139.81h-91.556v24.625z"/></clipPath><clipPath id="F"><path d="M109.307 308.313h983.123v-621.95H109.307v621.95z"/></clipPath><clipPath id="G"><path d="M1038.76 643.609h983.12V21.659h-983.12v621.95z"/></clipPath><clipPath id="H"><path d="M1038.76 643.609h983.12V21.659h-983.12v621.95z"/></clipPath></defs><path d="M9 14.215h1.731v-1.768h-1.73v1.768zm0-2.162h1.731V10.09h-1.73v1.964zm0-2.356h1.731V7.928h-1.73v1.769zm.191-2.947V4.982a.19.19 0 0 0-.056-.137A.18.18 0 0 0 9 4.787h-.385a.179.179 0 0 0-.135.058.19.19 0 0 0-.057.137V6.75c0 .054.02.1.057.138.038.04.083.059.135.059H9a.18.18 0 0 0 .135-.059.19.19 0 0 0 .056-.138m-2.5 7.465h1.924v-1.768H6.692v1.768zm0-2.162h1.924V10.09H6.692v1.964zm0-2.356h1.924V7.928H6.692v1.769zm-2.306 4.518h1.923v-1.768H4.385v1.768zm0-2.162h1.923V10.09H4.385v1.964zm0-2.356h1.923V7.928H4.385v1.769zm.192-2.947V4.982a.19.19 0 0 0-.057-.137.179.179 0 0 0-.135-.058H4a.18.18 0 0 0-.136.058.19.19 0 0 0-.057.137V6.75c0 .054.02.1.057.138A.18.18 0 0 0 4 6.947h.385a.179.179 0 0 0 .135-.059.19.19 0 0 0 .057-.138M2.27 14.215H4v-1.768H2.27v1.768zm0-2.162H4V10.09H2.27v1.964zm0-2.356H4V7.928H2.27v1.769zm9.23-3.34v7.858a.764.764 0 0 1-.23.552.731.731 0 0 1-.54.233H2.27a.73.73 0 0 1-.541-.233.764.764 0 0 1-.23-.552V6.357c0-.212.078-.396.23-.551a.73.73 0 0 1 .54-.234h.77v-.59c0-.269.093-.5.282-.692A.909.909 0 0 1 4 4h.385c.264 0 .49.096.68.29a.955.955 0 0 1 .28.692v.59h2.31v-.59c0-.269.093-.5.28-.692a.913.913 0 0 1 .68-.29H9c.265 0 .49.096.679.29a.956.956 0 0 1 .282.692v.59h.769c.208 0 .389.078.54.234.153.155.23.34.23.55M12.25 41.322c0 .21-.075.39-.224.535L9.052 44.78a.785.785 0 0 1-.551.22.692.692 0 0 1-.357-.083 1.77 1.77 0 0 1-.32-.269l2.846-2.79a.723.723 0 0 0 .223-.536.755.755 0 0 0-.223-.54L6.34 36.54a1.884 1.884 0 0 0-.618-.383A1.903 1.903 0 0 0 5.013 36H6.37c.213 0 .45.053.708.158.258.105.464.232.618.383l4.33 4.24a.756.756 0 0 1 .224.541m-9.014-2.884a.726.726 0 0 0 .227-.537c0-.21-.076-.39-.227-.538a.754.754 0 0 0-.548-.223.757.757 0 0 0-.548.223.727.727 0 0 0-.228.538c0 .21.077.39.228.537a.757.757 0 0 0 .548.223.755.755 0 0 0 .548-.223m6.689 2.884a.72.72 0 0 1-.225.535L6.727 44.78a.787.787 0 0 1-.551.22.755.755 0 0 1-.545-.22L1.3 40.526a1.76 1.76 0 0 1-.39-.6 1.812 1.812 0 0 1-.161-.694V36.76c0-.206.077-.383.23-.534A.753.753 0 0 1 1.527 36h2.519c.213 0 .45.053.708.158.258.105.464.232.618.383l4.33 4.24c.149.155.224.336.224.541" fill="#308ccb"/><path d="M12.243 70.946H.757c-.418 0-.757.326-.757.729v2.596c0 .403.34.729.757.729h11.486c.418 0 .757-.326.757-.729v-2.596c0-.403-.34-.729-.757-.729" fill="#c7d2e8"/><path d="M7.426 74.36h.941c.21 0 .379-.162.379-.364v-.113a.37.37 0 0 0-.379-.364h-.94a.371.371 0 0 0-.38.364v.113c0 .202.17.365.38.365M10.077 74.36h.942a.371.371 0 0 0 .377-.364v-.113a.37.37 0 0 0-.377-.364h-.942a.371.371 0 0 0-.379.364v.113c0 .202.17.365.379.365" fill="#fff"/><path d="M9.765 66.02l-2.913 2.807a.444.444 0 0 1-.307.118.445.445 0 0 1-.305-.118l-2.922-2.816a.402.402 0 0 1-.097-.462c.07-.16.201-.246.403-.262h1.6v-2.866A.43.43 0 0 1 5.663 62h1.75c.244 0 .437.185.437.421v2.874h1.61a.45.45 0 0 1 .402.261c.071.16.035.337-.096.464" fill="#c7d2e8"/><g fill="#c7d2e8"><path d="M9.683 100.501a.81.81 0 0 0-1.149 0 .812.812 0 0 0 0 1.15l3.08 3.11a.813.813 0 0 0 1.148-1.15z"/><path d="M5.281 92a5.281 5.281 0 1 0 0 10.563 5.281 5.281 0 0 0 0-10.563m0 .812a4.474 4.474 0 0 1 4.47 4.469 4.474 4.474 0 0 1-4.47 4.469 4.474 4.474 0 0 1-4.47-4.47 4.474 4.474 0 0 1 4.47-4.468"/></g><g fill="#fff"><path d="M9.683 130.501a.81.81 0 0 0-1.149 0 .812.812 0 0 0 0 1.15l3.08 3.11a.813.813 0 0 0 1.148-1.15z"/><path d="M5.281 122a5.281 5.281 0 1 0 0 10.563 5.281 5.281 0 0 0 0-10.563m0 .812a4.474 4.474 0 0 1 4.47 4.469 4.474 4.474 0 0 1-4.47 4.469 4.474 4.474 0 0 1-4.47-4.47 4.474 4.474 0 0 1 4.47-4.468"/></g></svg>
