<?xml version="1.0" encoding="UTF-8" standalone="no"?>
<!DOCTYPE svg PUBLIC "-//W3C//DTD SVG 1.1//EN" "http://www.w3.org/Graphics/SVG/1.1/DTD/svg11.dtd">
<svg width="100%" height="100%" viewBox="0 0 100 67" version="1.1" xmlns="http://www.w3.org/2000/svg" xmlns:xlink="http://www.w3.org/1999/xlink" xml:space="preserve" style="fill-rule:evenodd;clip-rule:evenodd;stroke-linejoin:round;stroke-miterlimit:1.41421;">
    <g id="arrow-right">
        <g transform="matrix(4.16667,0,0,4.16667,-1676.75,-1157.09)">
            <g>
                <path d="M413.041,282.658C413.146,282.658 413.236,282.707 413.299,282.781L413.303,282.779C413.751,283.302 415.61,285.355 416.059,285.879L416.055,285.881C416.107,285.942 416.141,286.017 416.141,286.103C416.141,286.188 416.107,286.264 416.055,286.324L416.059,286.327C415.61,286.85 413.751,288.904 413.303,289.427L413.299,289.424C413.236,289.499 413.146,289.548 413.041,289.548C412.851,289.548 412.696,289.393 412.696,289.203C412.696,289.118 412.731,289.042 412.783,288.981L412.779,288.979C413.174,288.519 414.814,286.72 415.343,286.103C414.814,285.486 413.174,283.687 412.779,283.226L412.783,283.224C412.731,283.164 412.696,283.088 412.696,283.002C412.696,282.812 412.851,282.658 413.041,282.658" style="fill:#e9edf6;fill-rule:nonzero;"/>
            </g>
        </g>
    </g>
</svg>
