<?xml version="1.0" encoding="UTF-8" standalone="no"?>
<!DOCTYPE svg PUBLIC "-//W3C//DTD SVG 1.1//EN" "http://www.w3.org/Graphics/SVG/1.1/DTD/svg11.dtd">
<svg width="100%" height="100%" viewBox="0 0 75 75" version="1.1" xmlns="http://www.w3.org/2000/svg" xmlns:xlink="http://www.w3.org/1999/xlink" xml:space="preserve" style="fill-rule:evenodd;clip-rule:evenodd;stroke-linejoin:round;stroke-miterlimit:1.41421;">
    <g>
        <g transform="matrix(1,0,0,1,-13,4.26326e-14)">
            <path d="M67.415,45.692C68.869,45.692 70.044,46.871 70.044,48.321L70.044,55.717C70.044,57.167 68.869,58.346 67.415,58.346L33.586,58.346C32.132,58.346 30.957,57.167 30.957,55.717L30.957,48.321C30.957,46.871 32.132,45.692 33.586,45.692L67.415,45.692ZM53.462,56.351L55.937,56.351C56.662,56.351 57.254,55.764 57.254,55.035C57.254,54.31 56.662,53.722 55.937,53.722L53.462,53.722C52.737,53.722 52.146,54.31 52.146,55.035C52.146,55.764 52.737,56.351 53.462,56.351ZM63.909,53.722L61.434,53.722C60.709,53.722 60.118,54.31 60.118,55.035C60.118,55.764 60.709,56.351 61.434,56.351L63.909,56.351C64.634,56.351 65.226,55.764 65.226,55.035C65.226,54.31 64.635,53.722 63.909,53.722Z" style="fill:white;"/>
        </g>
        <g transform="matrix(4.16667,0,0,4.16667,-1286.53,-1193.52)">
            <path d="M320.123,293.721L318.02,295.824C317.964,295.88 317.881,295.913 317.799,295.913C317.717,295.913 317.635,295.88 317.578,295.824L315.469,293.715C315.375,293.62 315.349,293.488 315.4,293.367C315.45,293.247 315.545,293.184 315.69,293.172L316.846,293.172L316.846,291.025C316.846,290.848 316.991,290.709 317.162,290.709L318.424,290.709C318.601,290.709 318.74,290.848 318.74,291.025L318.74,293.179L319.902,293.179C320.028,293.179 320.142,293.261 320.192,293.374C320.243,293.494 320.218,293.627 320.123,293.721" style="fill:white;fill-rule:nonzero;"/>
        </g>
    </g>
</svg>
