<svg xmlns="http://www.w3.org/2000/svg" xmlns:xlink="http://www.w3.org/1999/xlink" width="14" height="14" viewBox="0 0 14 14">
    <defs>
        <path id="a" d="M21.894 22.616l-3.912-3.875a5.543 5.543 0 0 0 .993-3.992c-.35-2.506-2.394-4.487-4.933-4.72-3.445-.35-6.364 2.564-6.013 6.031.233 2.506 2.218 4.575 4.728 4.924a5.569 5.569 0 0 0 4-.99l3.882 3.875a.424.424 0 0 0 .613 0l.613-.612a.488.488 0 0 0 .029-.641zM9.75 15.506a3.771 3.771 0 0 1 3.765-3.758 3.771 3.771 0 0 1 3.766 3.758 3.771 3.771 0 0 1-3.766 3.76 3.753 3.753 0 0 1-3.765-3.76z"/>
    </defs>
    <use fill="#C7D2E8" fill-rule="evenodd" transform="translate(-8 -10)" xlink:href="#a"/>
</svg>
