<?xml version="1.0"?>
<!--Icons from directory ""-->
<svg xmlns="http://www.w3.org/2000/svg" width="16" height="96" viewBox="0 0 16 96"><svg width="16" viewBox="0 0 16 16" height="16" id="alphabetical_normal" y="0"><defs>
<style>.normal { fill: #c7d2e8; }
       .hover { fill: #3498db; }
</style></defs>
<g class="normal">
<path class="normal" d="m10.1 12.8l2.1 2.8a1 1 0 0 0 1.6 0l2.1-2.8a0.5 0.5 0 0 0 0.1 -0.3 0.5 0.5 0 0 0 -0.5 -0.5h-1.5v-11a1 1 0 0 0 -2 0v11h-1.5a0.5 0.5 0 0 0 -0.5 0.5 0.5 0.5 0 0 0 0.1 0.3z"/><path d="m3 7 1.6-7h2.7l1.5 7h-1.4l-0.3-1.3h-2.4l-0.3 1.3zm2.7-5.8-0.7 3.3h1.9l-0.7-3.3z"/><path d="m3.2 10.2v-1.2h4.7v1.2l-2.9 4.4v0.2h2.9v1.2h-4.7v-1.2l2.9-4.4v-0.2z"/>
</g>
</svg>

<svg width="16" viewBox="0 0 16 16" height="16" id="alphabetical_hover" y="16">
<g class="hover">
<path class="hover" d="m10.1 12.8l2.1 2.8a1 1 0 0 0 1.6 0l2.1-2.8a0.5 0.5 0 0 0 0.1 -0.3 0.5 0.5 0 0 0 -0.5 -0.5h-1.5v-11a1 1 0 0 0 -2 0v11h-1.5a0.5 0.5 0 0 0 -0.5 0.5 0.5 0.5 0 0 0 0.1 0.3z"/><path d="m3 7 1.6-7h2.7l1.5 7h-1.4l-0.3-1.3h-2.4l-0.3 1.3zm2.7-5.8-0.7 3.3h1.9l-0.7-3.3z"/><path d="m3.2 10.2v-1.2h4.7v1.2l-2.9 4.4v0.2h2.9v1.2h-4.7v-1.2l2.9-4.4v-0.2z"/>
</g>
</svg>

<svg width="16" viewBox="0 0 16 16" height="16" y="32">
<g class="normal" >
  <rect y="13" width="14" height="2" rx="1" ry="1"/>
  <rect y="10" width="11" height="2" rx="1" ry="1"/>
  <rect y="7" width="8" height="2" rx="1" ry="1"/>
  <rect x="1.5" y="2.5" width="2" height="5" rx="1" ry="1" transform="translate(-2.5 7.5) rotate(-90)"/>
  <rect y="1" width="2" height="2" rx="1" ry="1" transform="translate(3 1) rotate(90)"/>
</g>
</svg>

<svg width="16" viewBox="0 0 16 16" height="16" id="asc_normal" y="48">
<g class="hover" >
  <rect y="13" width="14" height="2" rx="1" ry="1"/>
  <rect y="10" width="11" height="2" rx="1" ry="1"/>
  <rect y="7" width="8" height="2" rx="1" ry="1"/>
  <rect x="1.5" y="2.5" width="2" height="5" rx="1" ry="1" transform="translate(-2.5 7.5) rotate(-90)"/>
  <rect y="1" width="2" height="2" rx="1" ry="1" transform="translate(3 1) rotate(90)"/>
</g>
</svg>

<svg width="16" viewBox="0 0 16 16" height="16" id="desc_hover" y="64">
<g class="normal" >
  <rect y="1" width="14" height="2" rx="1" ry="1"/>
  <rect y="4" width="11" height="2" rx="1" ry="1"/>
  <rect y="7" width="8" height="2" rx="1" ry="1"/>
  <rect x="1.5" y="8.5" width="2" height="5" rx="1" ry="1" transform="translate(13.5 8.5) rotate(90)"/>
  <rect y="13" width="2" height="2" rx="1" ry="1" transform="translate(15 13) rotate(90)"/>
</g>
</svg>

<svg width="16" viewBox="0 0 16 16" height="16" id="desc_normal" y="80">
<g class="hover" >
  <rect y="1" width="14" height="2" rx="1" ry="1"/>
  <rect y="4" width="11" height="2" rx="1" ry="1"/>
  <rect y="7" width="8" height="2" rx="1" ry="1"/>
  <rect x="1.5" y="8.5" width="2" height="5" rx="1" ry="1" transform="translate(13.5 8.5) rotate(90)"/>
  <rect y="13" width="2" height="2" rx="1" ry="1" transform="translate(15 13) rotate(90)"/>
</g>
</svg>

</svg>
