<svg xmlns="http://www.w3.org/2000/svg" width="16" height="16" viewBox="0 0 16 16">
  <defs>
    <style>
      .a {
        fill: #8792a9;
      }
    </style>
  </defs>
  <title>Artboard 50</title>
  <g>
    <path class="a" d="M15.9,14.6h0l-2-4h0A1,1,0,0,0,12,11a1,1,0,0,0,.1.4h0L13.4,14H2.6l1.3-2.6h0A1,1,0,0,0,4,11a1,1,0,0,0-1.9-.4h0l-2,4h0A1,1,0,0,0,0,15a1,1,0,0,0,1,1H15a1,1,0,0,0,1-1A1,1,0,0,0,15.9,14.6Z"/>
    <path class="a" d="M8,0A5,5,0,0,0,3,5c0,5,5,8,5,8s5-3,5-8A5,5,0,0,0,8,0ZM8,7a2,2,0,1,1,2-2A2,2,0,0,1,8,7Z"/>
  </g>
</svg>
