<?xml version="1.0" encoding="UTF-8" standalone="no"?>
<svg
   xmlns:dc="http://purl.org/dc/elements/1.1/"
   xmlns:cc="http://creativecommons.org/ns#"
   xmlns:rdf="http://www.w3.org/1999/02/22-rdf-syntax-ns#"
   xmlns:svg="http://www.w3.org/2000/svg"
   xmlns="http://www.w3.org/2000/svg"
   viewBox="0 0 12.62729 12.628562"
   height="12.628563"
   width="12.62729"
   xml:space="preserve"
   version="1.1">
  <g
     transform="translate(-1087.5567,-319.03917)"
     style="display:inline"
     id="layer1"><path
       d="m 2.6587367,-2.6329238 c -0.2456709,0.2483219 -0.646,0.247 -0.893,0 -0.247,-0.247 -0.247,-0.646 0,-0.893 L 4.159,-5.944 c 0.246,-0.247 0.645,-0.247 0.892,0 0.247,0.247 0.245671,0.6446782 0,0.893 z"
       style="display:inline;fill:#c7d2e8;fill-opacity:1;fill-rule:nonzero;stroke:none"
       id="path4419"
       transform="matrix(1.25,0,0,-1.25,1093.6393,324.00617)" /><path
       d="m 0,0 c -2.267,0 -4.104,-1.838 -4.104,-4.104 0,-2.267 1.837,-4.104 4.104,-4.104 2.267,0 4.104,1.837 4.104,4.104 C 4.104,-1.838 2.267,0 0,0 m 0,-0.631 c 1.915,0 3.473,-1.558 3.473,-3.473 0,-1.915 -1.558,-3.473 -3.473,-3.473 -1.915,0 -3.473,1.558 -3.473,3.473 0,1.915 1.558,3.473 3.473,3.473"
       style="display:inline;fill:#c7d2e8;fill-opacity:1;fill-rule:nonzero;stroke:none"
       id="path4427"
       transform="matrix(1.25,0,0,-1.25,1092.6867,319.03917)" /></g></svg>