<?xml version="1.0" encoding="UTF-8"?>
<svg width="1451" height="843" version="1.1" viewBox="0 0 1451 843" xmlns="http://www.w3.org/2000/svg" xmlns:cc="http://creativecommons.org/ns#" xmlns:dc="http://purl.org/dc/elements/1.1/" xmlns:rdf="http://www.w3.org/1999/02/22-rdf-syntax-ns#">
 <metadata>
  <rdf:RDF>
   <cc:Work rdf:about="">
    <dc:format>image/svg+xml</dc:format>
    <dc:type rdf:resource="http://purl.org/dc/dcmitype/StillImage"/>
    <dc:title/>
   </cc:Work>
  </rdf:RDF>
 </metadata>
 <g fill="none" fill-rule="evenodd">
  <path d="m0 305h1451v144h-1451zm0 287h1451v144h-1451z" fill="#f5f7fc"/>
  <g fill="#abb8cf">
   <path d="m296 36h1v799h-1zm219 0h1v799h-1zm219 0h1v799h-1zm438 0h1v799h-1zm-219 0h1v799h-1zm438 0h1v799h-1z"/>
   <g font-family="Faktum" font-size="12px" font-weight="500">
    <g aria-label="A">
     <path d="m408.65 12h1.392l-3.216-8.4h-1.776l-3.228 8.4h1.38l0.816-2.196h3.816zm-4.2-3.324 0.984-2.64 0.504-1.452 0.492 1.452 0.984 2.64z"/>
    </g>
    <g aria-label="B">
     <path d="m626.33 7.68c1.224-0.288 1.8-0.984 1.8-1.968 0-1.272-0.972-2.112-2.508-2.112h-3.552v8.4h3.816c1.536 0 2.58-0.924 2.58-2.364 0-0.96-0.612-1.764-2.136-1.956zm-3-2.976h2.184c0.828 0 1.272 0.372 1.272 1.176 0 0.9-0.42 1.32-1.308 1.32h-2.148zm2.352 6.192h-2.352v-2.628h2.244c1.032 0 1.548 0.396 1.548 1.236 0 0.948-0.468 1.392-1.44 1.392z"/>
    </g>
    <g aria-label="D">
     <path d="m1059.5 12h3.072c2.832 0 4.524-1.68 4.524-4.2s-1.692-4.2-4.524-4.2h-3.072zm1.272-1.128v-6.144h1.776c2.364 0 3.24 0.828 3.24 3.072s-0.876 3.072-3.24 3.072z"/>
    </g>
    <g aria-label="C">
     <path d="m844.16 10.956c-2.064 0-2.988-0.984-2.988-3.18 0-2.172 0.924-3.132 2.988-3.132 1.788 0 2.556 0.66 2.832 2.472l1.248-0.3c-0.384-2.172-1.92-3.336-4.08-3.336-2.376 0-4.308 1.74-4.308 4.296s1.932 4.344 4.308 4.344c2.16 0 3.696-1.164 4.08-3.336l-1.248-0.3c-0.276 1.812-1.044 2.472-2.832 2.472z"/>
    </g>
    <g aria-label="E">
     <path d="m1284.8 4.764v-1.164h-5.316v8.4h5.316v-1.164h-4.056v-2.796h3.828v-1.152h-3.828v-2.124z"/>
    </g>
    <g aria-label="1">
     <path d="m20.228 227.6-2.64 1.368 0.648 1.116 1.92-1.62v7.536h1.26v-8.4z"/>
    </g>
   </g>
  </g>
  <g fill="#ced9eb">
   <path transform="translate(524,32)" d="m20.5 9.35h-9c-1.187 0-2.15 0.963-2.15 2.15v9c0 1.187 0.963 2.15 2.15 2.15h9c1.188 0 2.15-0.963 2.15-2.15v-9c0-1.187-0.962-2.15-2.15-2.15zm-9 1.3h9c0.47 0 0.85 0.38 0.85 0.85v9c0 0.47-0.38 0.85-0.85 0.85h-9c-0.469 0-0.85-0.381-0.85-0.85v-9c0-0.469 0.381-0.85 0.85-0.85z"/>
   <path transform="translate(743,32)" d="m20.5 9.35h-9c-1.187 0-2.15 0.963-2.15 2.15v9c0 1.187 0.963 2.15 2.15 2.15h9c1.188 0 2.15-0.963 2.15-2.15v-9c0-1.187-0.962-2.15-2.15-2.15zm-9 1.3h9c0.47 0 0.85 0.38 0.85 0.85v9c0 0.47-0.38 0.85-0.85 0.85h-9c-0.469 0-0.85-0.381-0.85-0.85v-9c0-0.469 0.381-0.85 0.85-0.85z"/>
   <path transform="translate(1181,32)" d="m20.5 9.35h-9c-1.187 0-2.15 0.963-2.15 2.15v9c0 1.187 0.963 2.15 2.15 2.15h9c1.188 0 2.15-0.963 2.15-2.15v-9c0-1.187-0.962-2.15-2.15-2.15zm-9 1.3h9c0.47 0 0.85 0.38 0.85 0.85v9c0 0.47-0.38 0.85-0.85 0.85h-9c-0.469 0-0.85-0.381-0.85-0.85v-9c0-0.469 0.381-0.85 0.85-0.85z"/>
   <path transform="translate(962,32)" d="m20.5 9.35h-9c-1.187 0-2.15 0.963-2.15 2.15v9c0 1.187 0.963 2.15 2.15 2.15h9c1.188 0 2.15-0.963 2.15-2.15v-9c0-1.187-0.962-2.15-2.15-2.15zm-9 1.3h9c0.47 0 0.85 0.38 0.85 0.85v9c0 0.47-0.38 0.85-0.85 0.85h-9c-0.469 0-0.85-0.381-0.85-0.85v-9c0-0.469 0.381-0.85 0.85-0.85z"/>
   <path transform="translate(1400,32)" d="m20.5 9.35h-9c-1.187 0-2.15 0.963-2.15 2.15v9c0 1.187 0.963 2.15 2.15 2.15h9c1.188 0 2.15-0.963 2.15-2.15v-9c0-1.187-0.962-2.15-2.15-2.15zm-9 1.3h9c0.47 0 0.85 0.38 0.85 0.85v9c0 0.47-0.38 0.85-0.85 0.85h-9c-0.469 0-0.85-0.381-0.85-0.85v-9c0-0.469 0.381-0.85 0.85-0.85z"/>
  </g>
  <g fill="#dfe7f5" aria-label="Total">
   <path d="m351.59 43.6h-6.408v0.876h2.736v7.524h0.948v-7.524h2.724z"/>
   <path d="m353.92 46.24c-1.62 0-2.916 1.176-2.916 2.94s1.296 2.94 2.916 2.94 2.916-1.176 2.916-2.94-1.296-2.94-2.916-2.94zm0 5.04c-1.416 0-1.968-0.588-1.968-2.1s0.552-2.1 1.968-2.1 1.968 0.588 1.968 2.1-0.552 2.1-1.968 2.1z"/>
   <path d="m361.55 47.2v-0.84h-1.8v-1.776h-0.924v1.776h-1.272v0.84h1.272v3.42c0 0.828 0.552 1.38 1.38 1.38h1.14v-0.84h-1.596v-3.96z"/>
   <path d="m367.06 46.36v1.152c-0.42-0.804-1.164-1.272-2.136-1.272-1.62 0-2.7 1.176-2.7 2.94s1.08 2.94 2.7 2.94c0.972 0 1.716-0.468 2.136-1.272v1.152h0.924v-5.64zm-1.92 4.92c-1.416 0-1.968-0.588-1.968-2.1s0.552-2.1 1.968-2.1 1.968 0.588 1.968 2.1-0.552 2.1-1.968 2.1z"/>
   <path d="m370.02 52h0.924v-8.4h-0.924z"/>
  </g>
  <g fill="#ced9eb">
   <path transform="rotate(180,363,32)" d="m15.617 19.318c0.892 0 1.617 0.724 1.617 1.617 0 0.892-0.725 1.617-1.617 1.617-0.893 0-1.617-0.725-1.617-1.617 0-0.893 0.724-1.617 1.617-1.617zm0-5.66c0.892 0 1.617 0.725 1.617 1.618 0 0.892-0.725 1.617-1.617 1.617-0.893 0-1.617-0.725-1.617-1.617 0-0.893 0.724-1.617 1.617-1.617zm0-5.658c0.892 0 1.617 0.724 1.617 1.617 0 0.892-0.725 1.617-1.617 1.617-0.893 0-1.617-0.725-1.617-1.617 0-0.893 0.724-1.617 1.617-1.617z"/>
   <path transform="rotate(180,472.5,32)" d="m15.617 19.318c0.892 0 1.617 0.724 1.617 1.617 0 0.892-0.725 1.617-1.617 1.617-0.893 0-1.617-0.725-1.617-1.617 0-0.893 0.724-1.617 1.617-1.617zm0-5.66c0.892 0 1.617 0.725 1.617 1.618 0 0.892-0.725 1.617-1.617 1.617-0.893 0-1.617-0.725-1.617-1.617 0-0.893 0.724-1.617 1.617-1.617zm0-5.658c0.892 0 1.617 0.724 1.617 1.617 0 0.892-0.725 1.617-1.617 1.617-0.893 0-1.617-0.725-1.617-1.617 0-0.893 0.724-1.617 1.617-1.617z"/>
   <path transform="rotate(180,691.5,32)" d="m15.617 19.318c0.892 0 1.617 0.724 1.617 1.617 0 0.892-0.725 1.617-1.617 1.617-0.893 0-1.617-0.725-1.617-1.617 0-0.893 0.724-1.617 1.617-1.617zm0-5.66c0.892 0 1.617 0.725 1.617 1.618 0 0.892-0.725 1.617-1.617 1.617-0.893 0-1.617-0.725-1.617-1.617 0-0.893 0.724-1.617 1.617-1.617zm0-5.658c0.892 0 1.617 0.724 1.617 1.617 0 0.892-0.725 1.617-1.617 1.617-0.893 0-1.617-0.725-1.617-1.617 0-0.893 0.724-1.617 1.617-1.617z"/>
  </g>
  <path d="m169 173h81c1.108 0 2 0.892 2 2v20c0 1.108-0.892 2-2 2h-81c-1.108 0-2-0.892-2-2v-20c0-1.108 0.892-2 2-2z" fill="#fff"/>
  <g fill="#dfe7f5" aria-label="Universe">
   <path d="m181.6 181.6v5.256c0 1.548-0.636 2.1-2.184 2.1-1.536 0-2.184-0.552-2.184-2.1v-5.256h-1.272v5.04c0 2.316 1.356 3.48 3.456 3.48s3.456-1.164 3.456-3.48v-5.04z"/>
   <path d="m188.01 184.12c-1.128 0-1.74 0.588-2.016 1.512v-1.392h-1.224v5.76h1.224v-2.712c0-1.332 0.624-2.052 1.596-2.052 0.78 0 1.26 0.444 1.26 1.308v3.456h1.224v-3.54c0-1.524-0.708-2.34-2.064-2.34z"/>
   <path d="m192.52 183.05c0.552 0 0.852-0.3 0.84-0.828-0.012-0.516-0.312-0.792-0.84-0.792-0.54 0-0.852 0.276-0.84 0.792 0.012 0.528 0.312 0.828 0.84 0.828zm-0.624 6.948h1.224v-5.76h-1.224z"/>
   <path d="m198.94 184.24-1.668 4.872-1.68-4.872h-1.356l2.268 5.76h1.524l2.256-5.76z"/>
   <path d="m206.31 187c0-1.764-1.116-2.88-2.724-2.88-1.656 0-2.832 1.212-2.832 3.012 0 1.812 1.14 2.988 2.892 2.988 1.176 0 2.124-0.48 2.532-1.488l-1.104-0.444c-0.264 0.684-0.612 0.9-1.416 0.9-1.08 0-1.56-0.468-1.656-1.584h4.296c0.012-0.228 0.012-0.324 0.012-0.504zm-2.712-1.872c0.99599 0 1.44 0.408 1.488 1.476h-3.072c0.12001-1.008 0.624-1.476 1.584-1.476z"/>
   <path d="m210.75 184.13c-1.152 0-1.608 0.864-1.788 1.788v-1.68h-1.224v5.76h1.224v-2.496c0-1.356 0.6-2.232 1.692-2.232 0.432 0 0.612 0.072 0.78 0.144v-1.188c-0.18-0.084-0.432-0.096-0.684-0.096z"/>
   <path d="m214.49 190.12c1.488 0 2.412-0.708 2.412-1.836 0-0.924-0.588-1.428-1.488-1.584l-1.308-0.228c-0.552-0.084-0.708-0.288-0.708-0.684 0-0.48 0.324-0.708 1.02-0.708 0.684 0 1.056 0.168 1.164 1.08l1.2-0.288c-0.216-1.212-1.068-1.752-2.412-1.752-1.356 0-2.208 0.672-2.208 1.74 0 1.032 0.696 1.524 1.62 1.68l1.044 0.192c0.684 0.12 0.852 0.288 0.852 0.72 0 0.468-0.348 0.684-1.104 0.684-0.804 0-1.236-0.264-1.356-1.104l-1.212 0.348c0.204 1.056 1.116 1.74 2.484 1.74z"/>
   <path d="m223.38 187c0-1.764-1.116-2.88-2.724-2.88-1.656 0-2.832 1.212-2.832 3.012 0 1.812 1.14 2.988 2.892 2.988 1.176 0 2.124-0.48 2.532-1.488l-1.104-0.444c-0.264 0.684-0.612 0.9-1.416 0.9-1.08 0-1.56-0.468-1.656-1.584h4.296c0.012-0.228 0.012-0.324 0.012-0.504zm-2.712-1.872c0.99599 0 1.44 0.408 1.488 1.476h-3.072c0.12001-1.008 0.624-1.476 1.584-1.476z"/>
  </g>
  <path d="m339 173h81c1.108 0 2 0.892 2 2v20c0 1.108-0.892 2-2 2h-81c-1.108 0-2-0.892-2-2v-20c0-1.108 0.892-2 2-2z" fill="#fff"/>
  <path d="m169 197h81c1.108 0 2 0.892 2 2v20c0 1.108-0.892 2-2 2h-81c-1.108 0-2-0.892-2-2v-20c0-1.108 0.892-2 2-2z" fill="#fff"/>
  <g fill="#dfe7f5" aria-label="Responses">
   <path d="m180.93 214h1.2l-1.68-2.892-0.72-0.936c1.38-0.132 2.292-1.02 2.292-2.28 0-1.38-1.08-2.292-2.688-2.292h-3.192v8.4h0.936v-3.804h1.8zm-3.852-7.524h2.4c1.116 0 1.548 0.396 1.548 1.416 0 1.032-0.432 1.44-1.548 1.44h-2.4z"/>
   <path d="m188.15 211.02c0-1.728-1.08-2.784-2.604-2.784-1.572 0-2.736 1.188-2.736 2.94 0 1.788 1.092 2.94 2.784 2.94 1.056 0 2.028-0.432 2.424-1.428l-0.86399-0.336c-0.26401 0.744-0.63601 0.972-1.56 0.972-1.236 0-1.776-0.528-1.836-1.86h4.38c0.012-0.204 0.012-0.276 0.012-0.444zm-2.616-2.004c1.14 0 1.62 0.48 1.692 1.692h-3.456c0.108-1.152 0.684-1.692 1.764-1.692z"/>
   <path d="m191.6 214.12c1.344 0 2.232-0.696 2.232-1.74 0-0.9-0.576-1.32-1.404-1.476l-1.416-0.276c-0.516-0.096-0.684-0.312-0.684-0.768 0-0.552 0.372-0.804 1.176-0.804 0.744 0 1.2 0.156 1.32 1.224l0.912-0.252c-0.24-1.356-1.188-1.788-2.268-1.788-1.248 0-2.076 0.672-2.076 1.692 0 1.044 0.756 1.452 1.572 1.608l1.104 0.216c0.684 0.132 0.852 0.3 0.852 0.78 0 0.528-0.408 0.768-1.26 0.768-0.936 0-1.392-0.312-1.548-1.224l-0.912 0.3c0.264 1.164 1.176 1.74 2.4 1.74z"/>
   <path d="m198.42 208.24c-0.972 0-1.716 0.468-2.136 1.272v-1.152h-0.924v7.68h0.924v-3.192c0.42 0.804 1.164 1.272 2.136 1.272 1.62 0 2.7-1.176 2.7-2.94s-1.08-2.94-2.7-2.94zm-0.216 5.04c-1.416 0-1.968-0.588-1.968-2.1s0.552-2.1 1.968-2.1 1.968 0.588 1.968 2.1-0.552 2.1-1.968 2.1z"/>
   <path d="m205.1 208.24c-1.62 0-2.916 1.176-2.916 2.94s1.296 2.94 2.916 2.94 2.916-1.176 2.916-2.94-1.296-2.94-2.916-2.94zm0 5.04c-1.416 0-1.968-0.588-1.968-2.1s0.552-2.1 1.968-2.1 1.968 0.588 1.968 2.1-0.552 2.1-1.968 2.1z"/>
   <path d="m212.57 208.24c-1.188 0-1.788 0.624-2.064 1.512v-1.392h-0.924v5.64h0.924v-2.604c0-1.464 0.696-2.316 1.8-2.316 0.84 0 1.392 0.504 1.392 1.428v3.492h0.924v-3.552c0-1.416-0.732-2.208-2.052-2.208z"/>
   <path d="m218.51 214.12c1.344 0 2.232-0.696 2.232-1.74 0-0.9-0.576-1.32-1.404-1.476l-1.416-0.276c-0.516-0.096-0.684-0.312-0.684-0.768 0-0.552 0.372-0.804 1.176-0.804 0.744 0 1.2 0.156 1.32 1.224l0.912-0.252c-0.24-1.356-1.188-1.788-2.268-1.788-1.248 0-2.076 0.672-2.076 1.692 0 1.044 0.756 1.452 1.572 1.608l1.104 0.216c0.684 0.132 0.852 0.3 0.852 0.78 0 0.528-0.408 0.768-1.26 0.768-0.936 0-1.392-0.312-1.548-1.224l-0.912 0.3c0.264 1.164 1.176 1.74 2.4 1.74z"/>
   <path d="m227.12 211.02c0-1.728-1.08-2.784-2.604-2.784-1.572 0-2.736 1.188-2.736 2.94 0 1.788 1.092 2.94 2.784 2.94 1.056 0 2.028-0.432 2.424-1.428l-0.864-0.336c-0.264 0.744-0.636 0.972-1.56 0.972-1.236 0-1.776-0.528-1.836-1.86h4.38c0.012-0.204 0.012-0.276 0.012-0.444zm-2.616-2.004c1.14 0 1.62 0.48 1.692 1.692h-3.456c0.108-1.152 0.684-1.692 1.764-1.692z"/>
   <path d="m230.58 214.12c1.344 0 2.232-0.696 2.232-1.74 0-0.9-0.576-1.32-1.404-1.476l-1.416-0.276c-0.516-0.096-0.684-0.312-0.684-0.768 0-0.552 0.372-0.804 1.176-0.804 0.744 0 1.2 0.156 1.32 1.224l0.912-0.252c-0.24-1.356-1.188-1.788-2.268-1.788-1.248 0-2.076 0.672-2.076 1.692 0 1.044 0.756 1.452 1.572 1.608l1.104 0.216c0.684 0.132 0.852 0.3 0.852 0.78 0 0.528-0.408 0.768-1.26 0.768-0.936 0-1.392-0.312-1.548-1.224l-0.912 0.3c0.264 1.164 1.176 1.74 2.4 1.74z"/>
  </g>
  <path d="m169 221h81c1.108 0 2 0.892 2 2v20c0 1.108-0.892 2-2 2h-81c-1.108 0-2-0.892-2-2v-20c0-1.108 0.892-2 2-2z" fill="#fff"/>
  <g fill="#dfe7f5" aria-label="% Column">
   <path d="m177.78 233.72c1.164 0 2.172-0.864 2.172-2.136 0-1.236-0.996-2.1-2.172-2.1-1.188 0-2.184 0.864-2.184 2.1 0 1.272 0.996 2.136 2.184 2.136zm5.088-4.116-2.94 4.104-3.3 4.296h0.912l3.024-4.188 3.216-4.212zm-5.088 3.348c-0.912 0-1.344-0.432-1.344-1.368 0-0.9 0.432-1.332 1.344-1.332s1.344 0.432 1.344 1.332c0 0.936-0.432 1.368-1.344 1.368zm4.908 5.172c1.164 0 2.172-0.864 2.172-2.136 0-1.236-0.996-2.1-2.172-2.1-1.188 0-2.184 0.864-2.184 2.1 0 1.272 0.996 2.136 2.184 2.136zm0-0.768c-0.912 0-1.344-0.432-1.344-1.368 0-0.9 0.432-1.332 1.344-1.332s1.344 0.432 1.344 1.332c0 0.936-0.432 1.368-1.344 1.368z"/>
   <path d="m193.43 237.24c-2.22 0-3.264-1.116-3.264-3.48 0-2.316 1.044-3.408 3.264-3.408 1.956 0 2.832 0.744 3.12 2.64l0.912-0.264c-0.408-2.124-1.824-3.252-4.032-3.252-2.328 0-4.26 1.752-4.26 4.284s1.932 4.356 4.26 4.356c2.208 0 3.624-1.128 4.032-3.252l-0.912-0.264c-0.288 1.896-1.164 2.64-3.12 2.64z"/>
   <path d="m201.4 232.24c-1.62 0-2.916 1.176-2.916 2.94s1.296 2.94 2.916 2.94 2.916-1.176 2.916-2.94-1.296-2.94-2.916-2.94zm0 5.04c-1.416 0-1.968-0.588-1.968-2.1s0.552-2.1 1.968-2.1 1.968 0.588 1.968 2.1-0.552 2.1-1.968 2.1z"/>
   <path d="m205.88 238h0.924v-8.4h-0.924z"/>
   <path d="m212.89 232.36v2.604c0 1.464-0.696 2.316-1.8 2.316-0.84 0-1.392-0.504-1.392-1.428v-3.492h-0.924v3.552c0 1.416 0.732 2.208 2.052 2.208 1.188 0 1.788-0.624 2.064-1.512v1.392h0.924v-5.64z"/>
   <path d="m222.91 232.24c-1.068 0-1.74 0.576-2.052 1.596-0.192-1.032-0.888-1.596-2.004-1.596-1.188 0-1.788 0.624-2.064 1.512v-1.392h-0.924v5.64h0.924v-2.604c0-1.464 0.696-2.316 1.8-2.316 0.84 0 1.392 0.504 1.392 1.428v3.492h0.924v-2.28c0-1.644 0.54-2.64 1.812-2.64 0.828 0 1.38 0.504 1.38 1.512v3.408h0.924v-3.468c0-1.452-0.756-2.292-2.112-2.292z"/>
   <path d="m229.98 232.24c-1.188 0-1.788 0.624-2.064 1.512v-1.392h-0.924v5.64h0.924v-2.604c0-1.464 0.696-2.316 1.8-2.316 0.84 0 1.392 0.504 1.392 1.428v3.492h0.924v-3.552c0-1.416-0.732-2.208-2.052-2.208z"/>
  </g>
  <path d="m169 245h81c1.108 0 2 0.892 2 2v20c0 1.108-0.892 2-2 2h-81c-1.108 0-2-0.892-2-2v-20c0-1.108 0.892-2 2-2z" fill="#fff"/>
  <g fill="#dfe7f5" aria-label="% Row">
   <path d="m177.78 257.72c1.164 0 2.172-0.864 2.172-2.136 0-1.236-0.996-2.1-2.172-2.1-1.188 0-2.184 0.864-2.184 2.1 0 1.272 0.996 2.136 2.184 2.136zm5.088-4.116-2.94 4.104-3.3 4.296h0.912l3.024-4.188 3.216-4.212zm-5.088 3.348c-0.912 0-1.344-0.432-1.344-1.368 0-0.9 0.432-1.332 1.344-1.332s1.344 0.432 1.344 1.332c0 0.936-0.432 1.368-1.344 1.368zm4.908 5.172c1.164 0 2.172-0.864 2.172-2.136 0-1.236-0.996-2.1-2.172-2.1-1.188 0-2.184 0.864-2.184 2.1 0 1.272 0.996 2.136 2.184 2.136zm0-0.768c-0.912 0-1.344-0.432-1.344-1.368 0-0.9 0.432-1.332 1.344-1.332s1.344 0.432 1.344 1.332c0 0.936-0.432 1.368-1.344 1.368z"/>
   <path d="m194.5 262h1.2l-1.68-2.892-0.72-0.936c1.38-0.132 2.292-1.02 2.292-2.28 0-1.38-1.08-2.292-2.688-2.292h-3.192v8.4h0.936v-3.804h1.8zm-3.852-7.524h2.4c1.116 0 1.548 0.396 1.548 1.416 0 1.032-0.432 1.44-1.548 1.44h-2.4z"/>
   <path d="m199.29 256.24c-1.62 0-2.916 1.176-2.916 2.94s1.296 2.94 2.916 2.94 2.916-1.176 2.916-2.94-1.296-2.94-2.916-2.94zm0 5.04c-1.416 0-1.968-0.588-1.968-2.1s0.552-2.1 1.968-2.1 1.968 0.588 1.968 2.1-0.552 2.1-1.968 2.1z"/>
   <path d="m210.26 256.36-0.888 3.624-0.288 1.356-0.396-1.368-1.188-3.612h-0.984l-1.188 3.624-0.384 1.308-0.276-1.296-0.9-3.636h-1.044l1.608 5.64h1.104l1.26-3.552 0.324-1.056 0.312 1.032 1.26 3.576h1.116l1.596-5.64z"/>
  </g>
  <path d="m169 269h81c1.108 0 2 0.892 2 2v20c0 1.108-0.892 2-2 2h-81c-1.108 0-2-0.892-2-2v-20c0-1.108 0.892-2 2-2z" fill="#fff"/>
  <path d="m169 556h81c1.108 0 2 0.892 2 2v20c0 1.108-0.892 2-2 2h-81c-1.108 0-2-0.892-2-2v-20c0-1.108 0.892-2 2-2z" fill="#fff"/>
  <g fill="#dfe7f5" font-family="Faktum" font-size="12px">
   <g aria-label="Index">
    <path d="m176.14 286h0.96v-8.4h-0.96z"/>
    <path d="m182.24 280.24c-1.188 0-1.788 0.624-2.064 1.512v-1.392h-0.924v5.64h0.924v-2.604c0-1.464 0.696-2.316 1.8-2.316 0.84 0 1.392 0.504 1.392 1.428v3.492h0.924v-3.552c0-1.416-0.732-2.208-2.052-2.208z"/>
    <path d="m190.64 277.6v3.912c-0.42-0.804-1.164-1.272-2.136-1.272-1.62 0-2.7 1.176-2.7 2.94s1.08 2.94 2.7 2.94c0.972 0 1.716-0.468 2.136-1.272v1.152h0.924v-8.4zm-1.92 7.68c-1.416 0-1.968-0.588-1.968-2.1s0.552-2.1 1.968-2.1c1.416 0 1.968 0.588 1.968 2.1s-0.55199 2.1-1.968 2.1z"/>
    <path d="m198.46 283.02c0-1.728-1.08-2.784-2.604-2.784-1.572 0-2.736 1.188-2.736 2.94 0 1.788 1.092 2.94 2.784 2.94 1.056 0 2.028-0.432 2.424-1.428l-0.86399-0.336c-0.26401 0.744-0.63601 0.972-1.56 0.972-1.236 0-1.776-0.528-1.836-1.86h4.38c0.012-0.204 0.012-0.276 0.012-0.444zm-2.616-2.004c1.14 0 1.62 0.48 1.692 1.692h-3.456c0.108-1.152 0.684-1.692 1.764-1.692z"/>
    <path d="m202.41 283.2 2.028-2.844h-1.164l-1.056 1.692-0.36 0.624-0.396-0.684-1.02-1.632h-1.164l2.004 2.844-2.052 2.796h1.152l1.08-1.656 0.384-0.636 0.384 0.648 1.08 1.644h1.152z"/>
   </g>
   <g aria-label="Index">
    <path d="m176.14 573h0.96v-8.4h-0.96z"/>
    <path d="m182.24 567.24c-1.188 0-1.788 0.624-2.064 1.512v-1.392h-0.924v5.64h0.924v-2.604c0-1.464 0.696-2.316 1.8-2.316 0.84 0 1.392 0.504 1.392 1.428v3.492h0.924v-3.552c0-1.416-0.732-2.208-2.052-2.208z"/>
    <path d="m190.64 564.6v3.912c-0.42-0.804-1.164-1.272-2.136-1.272-1.62 0-2.7 1.176-2.7 2.94s1.08 2.94 2.7 2.94c0.972 0 1.716-0.468 2.136-1.272v1.152h0.924v-8.4zm-1.92 7.68c-1.416 0-1.968-0.588-1.968-2.1s0.552-2.1 1.968-2.1c1.416 0 1.968 0.588 1.968 2.1s-0.55199 2.1-1.968 2.1z"/>
    <path d="m198.46 570.02c0-1.728-1.08-2.784-2.604-2.784-1.572 0-2.736 1.188-2.736 2.94 0 1.788 1.092 2.94 2.784 2.94 1.056 0 2.028-0.432 2.424-1.428l-0.86399-0.336c-0.26401 0.744-0.63601 0.972-1.56 0.972-1.236 0-1.776-0.528-1.836-1.86h4.38c0.012-0.204 0.012-0.276 0.012-0.444zm-2.616-2.004c1.14 0 1.62 0.48 1.692 1.692h-3.456c0.108-1.152 0.684-1.692 1.764-1.692z"/>
    <path d="m202.41 570.2 2.028-2.844h-1.164l-1.056 1.692-0.36 0.624-0.396-0.684-1.02-1.632h-1.164l2.004 2.844-2.052 2.796h1.152l1.08-1.656 0.384-0.636 0.384 0.648 1.08 1.644h1.152z"/>
   </g>
   <g aria-label="Total">
    <path d="m78.588 180.6h-6.408v0.876h2.736v7.524h0.948v-7.524h2.724z"/>
    <path d="m80.917 183.24c-1.62 0-2.916 1.176-2.916 2.94s1.296 2.94 2.916 2.94c1.62 0 2.916-1.176 2.916-2.94s-1.296-2.94-2.916-2.94zm0 5.04c-1.416 0-1.968-0.588-1.968-2.1s0.552-2.1 1.968-2.1c1.416 0 1.968 0.588 1.968 2.1s-0.552 2.1-1.968 2.1z"/>
    <path d="m88.551 184.2v-0.84h-1.8v-1.776h-0.924v1.776h-1.272v0.84h1.272v3.42c0 0.828 0.552 1.38 1.38 1.38h1.14v-0.84h-1.596v-3.96z"/>
    <path d="m94.064 183.36v1.152c-0.42-0.804-1.164-1.272-2.136-1.272-1.62 0-2.7 1.176-2.7 2.94s1.08 2.94 2.7 2.94c0.972 0 1.716-0.468 2.136-1.272v1.152h0.924v-5.64zm-1.92 4.92c-1.416 0-1.968-0.588-1.968-2.1s0.552-2.1 1.968-2.1 1.968 0.588 1.968 2.1-0.552 2.1-1.968 2.1z"/>
    <path d="m97.02 189h0.924v-8.4h-0.924z"/>
   </g>
  </g>
  <path d="m169 317h81c1.108 0 2 0.892 2 2v20c0 1.108-0.892 2-2 2h-81c-1.108 0-2-0.892-2-2v-20c0-1.108 0.892-2 2-2z"/>
  <path d="m169 604h81c1.108 0 2 0.892 2 2v20c0 1.108-0.892 2-2 2h-81c-1.108 0-2-0.892-2-2v-20c0-1.108 0.892-2 2-2z"/>
  <g fill="#dfe7f5" aria-label="Universe">
   <path d="m181.6 325.6v5.256c0 1.548-0.636 2.1-2.184 2.1-1.536 0-2.184-0.552-2.184-2.1v-5.256h-1.272v5.04c0 2.316 1.356 3.48 3.456 3.48s3.456-1.164 3.456-3.48v-5.04z"/>
   <path d="m188.01 328.12c-1.128 0-1.74 0.588-2.016 1.512v-1.392h-1.224v5.76h1.224v-2.712c0-1.332 0.624-2.052 1.596-2.052 0.78 0 1.26 0.444 1.26 1.308v3.456h1.224v-3.54c0-1.524-0.708-2.34-2.064-2.34z"/>
   <path d="m192.52 327.05c0.552 0 0.852-0.3 0.84-0.828-0.012-0.516-0.312-0.792-0.84-0.792-0.54 0-0.852 0.276-0.84 0.792 0.012 0.528 0.312 0.828 0.84 0.828zm-0.624 6.948h1.224v-5.76h-1.224z"/>
   <path d="m198.94 328.24-1.668 4.872-1.68-4.872h-1.356l2.268 5.76h1.524l2.256-5.76z"/>
   <path d="m206.31 331c0-1.764-1.116-2.88-2.724-2.88-1.656 0-2.832 1.212-2.832 3.012 0 1.812 1.14 2.988 2.892 2.988 1.176 0 2.124-0.48 2.532-1.488l-1.104-0.444c-0.264 0.684-0.612 0.9-1.416 0.9-1.08 0-1.56-0.468-1.656-1.584h4.296c0.012-0.228 0.012-0.324 0.012-0.504zm-2.712-1.872c0.99599 0 1.44 0.408 1.488 1.476h-3.072c0.12001-1.008 0.624-1.476 1.584-1.476z"/>
   <path d="m210.75 328.13c-1.152 0-1.608 0.864-1.788 1.788v-1.68h-1.224v5.76h1.224v-2.496c0-1.356 0.6-2.232 1.692-2.232 0.432 0 0.612 0.072 0.78 0.144v-1.188c-0.18-0.084-0.432-0.096-0.684-0.096z"/>
   <path d="m214.49 334.12c1.488 0 2.412-0.708 2.412-1.836 0-0.924-0.588-1.428-1.488-1.584l-1.308-0.228c-0.552-0.084-0.708-0.288-0.708-0.684 0-0.48 0.324-0.708 1.02-0.708 0.684 0 1.056 0.168 1.164 1.08l1.2-0.288c-0.216-1.212-1.068-1.752-2.412-1.752-1.356 0-2.208 0.672-2.208 1.74 0 1.032 0.696 1.524 1.62 1.68l1.044 0.192c0.684 0.12 0.852 0.288 0.852 0.72 0 0.468-0.348 0.684-1.104 0.684-0.804 0-1.236-0.264-1.356-1.104l-1.212 0.348c0.204 1.056 1.116 1.74 2.484 1.74z"/>
   <path d="m223.38 331c0-1.764-1.116-2.88-2.724-2.88-1.656 0-2.832 1.212-2.832 3.012 0 1.812 1.14 2.988 2.892 2.988 1.176 0 2.124-0.48 2.532-1.488l-1.104-0.444c-0.264 0.684-0.612 0.9-1.416 0.9-1.08 0-1.56-0.468-1.656-1.584h4.296c0.012-0.228 0.012-0.324 0.012-0.504zm-2.712-1.872c0.99599 0 1.44 0.408 1.488 1.476h-3.072c0.12001-1.008 0.624-1.476 1.584-1.476z"/>
  </g>
  <g fill="#dfe7f5" aria-label="Universe">
   <path d="m181.6 612.6v5.256c0 1.548-0.636 2.1-2.184 2.1-1.536 0-2.184-0.552-2.184-2.1v-5.256h-1.272v5.04c0 2.316 1.356 3.48 3.456 3.48s3.456-1.164 3.456-3.48v-5.04z"/>
   <path d="m188.01 615.12c-1.128 0-1.74 0.588-2.016 1.512v-1.392h-1.224v5.76h1.224v-2.712c0-1.332 0.624-2.052 1.596-2.052 0.78 0 1.26 0.444 1.26 1.308v3.456h1.224v-3.54c0-1.524-0.708-2.34-2.064-2.34z"/>
   <path d="m192.52 614.05c0.552 0 0.852-0.3 0.84-0.828-0.012-0.516-0.312-0.792-0.84-0.792-0.54 0-0.852 0.276-0.84 0.792 0.012 0.528 0.312 0.828 0.84 0.828zm-0.624 6.948h1.224v-5.76h-1.224z"/>
   <path d="m198.94 615.24-1.668 4.872-1.68-4.872h-1.356l2.268 5.76h1.524l2.256-5.76z"/>
   <path d="m206.31 618c0-1.764-1.116-2.88-2.724-2.88-1.656 0-2.832 1.212-2.832 3.012 0 1.812 1.14 2.988 2.892 2.988 1.176 0 2.124-0.48 2.532-1.488l-1.104-0.444c-0.264 0.684-0.612 0.9-1.416 0.9-1.08 0-1.56-0.468-1.656-1.584h4.296c0.012-0.228 0.012-0.324 0.012-0.504zm-2.712-1.872c0.99599 0 1.44 0.408 1.488 1.476h-3.072c0.12001-1.008 0.624-1.476 1.584-1.476z"/>
   <path d="m210.75 615.13c-1.152 0-1.608 0.864-1.788 1.788v-1.68h-1.224v5.76h1.224v-2.496c0-1.356 0.6-2.232 1.692-2.232 0.432 0 0.612 0.072 0.78 0.144v-1.188c-0.18-0.084-0.432-0.096-0.684-0.096z"/>
   <path d="m214.49 621.12c1.488 0 2.412-0.708 2.412-1.836 0-0.924-0.588-1.428-1.488-1.584l-1.308-0.228c-0.552-0.084-0.708-0.288-0.708-0.684 0-0.48 0.324-0.708 1.02-0.708 0.684 0 1.056 0.168 1.164 1.08l1.2-0.288c-0.216-1.212-1.068-1.752-2.412-1.752-1.356 0-2.208 0.672-2.208 1.74 0 1.032 0.696 1.524 1.62 1.68l1.044 0.192c0.684 0.12 0.852 0.288 0.852 0.72 0 0.468-0.348 0.684-1.104 0.684-0.804 0-1.236-0.264-1.356-1.104l-1.212 0.348c0.204 1.056 1.116 1.74 2.484 1.74z"/>
   <path d="m223.38 618c0-1.764-1.116-2.88-2.724-2.88-1.656 0-2.832 1.212-2.832 3.012 0 1.812 1.14 2.988 2.892 2.988 1.176 0 2.124-0.48 2.532-1.488l-1.104-0.444c-0.264 0.684-0.612 0.9-1.416 0.9-1.08 0-1.56-0.468-1.656-1.584h4.296c0.012-0.228 0.012-0.324 0.012-0.504zm-2.712-1.872c0.99599 0 1.44 0.408 1.488 1.476h-3.072c0.12001-1.008 0.624-1.476 1.584-1.476z"/>
  </g>
  <path d="m169 341h81c1.108 0 2 0.892 2 2v20c0 1.108-0.892 2-2 2h-81c-1.108 0-2-0.892-2-2v-20c0-1.108 0.892-2 2-2z"/>
  <path d="m169 628h81c1.108 0 2 0.892 2 2v20c0 1.108-0.892 2-2 2h-81c-1.108 0-2-0.892-2-2v-20c0-1.108 0.892-2 2-2z"/>
  <g fill="#dfe7f5" aria-label="Responses">
   <path d="m180.93 358h1.2l-1.68-2.892-0.72-0.936c1.38-0.132 2.292-1.02 2.292-2.28 0-1.38-1.08-2.292-2.688-2.292h-3.192v8.4h0.936v-3.804h1.8zm-3.852-7.524h2.4c1.116 0 1.548 0.396 1.548 1.416 0 1.032-0.432 1.44-1.548 1.44h-2.4z"/>
   <path d="m188.15 355.02c0-1.728-1.08-2.784-2.604-2.784-1.572 0-2.736 1.188-2.736 2.94 0 1.788 1.092 2.94 2.784 2.94 1.056 0 2.028-0.432 2.424-1.428l-0.86399-0.336c-0.26401 0.744-0.63601 0.972-1.56 0.972-1.236 0-1.776-0.528-1.836-1.86h4.38c0.012-0.204 0.012-0.276 0.012-0.444zm-2.616-2.004c1.14 0 1.62 0.48 1.692 1.692h-3.456c0.108-1.152 0.684-1.692 1.764-1.692z"/>
   <path d="m191.6 358.12c1.344 0 2.232-0.696 2.232-1.74 0-0.9-0.576-1.32-1.404-1.476l-1.416-0.276c-0.516-0.096-0.684-0.312-0.684-0.768 0-0.552 0.372-0.804 1.176-0.804 0.744 0 1.2 0.156 1.32 1.224l0.912-0.252c-0.24-1.356-1.188-1.788-2.268-1.788-1.248 0-2.076 0.672-2.076 1.692 0 1.044 0.756 1.452 1.572 1.608l1.104 0.216c0.684 0.132 0.852 0.3 0.852 0.78 0 0.528-0.408 0.768-1.26 0.768-0.936 0-1.392-0.312-1.548-1.224l-0.912 0.3c0.264 1.164 1.176 1.74 2.4 1.74z"/>
   <path d="m198.42 352.24c-0.972 0-1.716 0.468-2.136 1.272v-1.152h-0.924v7.68h0.924v-3.192c0.42 0.804 1.164 1.272 2.136 1.272 1.62 0 2.7-1.176 2.7-2.94s-1.08-2.94-2.7-2.94zm-0.216 5.04c-1.416 0-1.968-0.588-1.968-2.1s0.552-2.1 1.968-2.1 1.968 0.588 1.968 2.1-0.552 2.1-1.968 2.1z"/>
   <path d="m205.1 352.24c-1.62 0-2.916 1.176-2.916 2.94s1.296 2.94 2.916 2.94 2.916-1.176 2.916-2.94-1.296-2.94-2.916-2.94zm0 5.04c-1.416 0-1.968-0.588-1.968-2.1s0.552-2.1 1.968-2.1 1.968 0.588 1.968 2.1-0.552 2.1-1.968 2.1z"/>
   <path d="m212.57 352.24c-1.188 0-1.788 0.624-2.064 1.512v-1.392h-0.924v5.64h0.924v-2.604c0-1.464 0.696-2.316 1.8-2.316 0.84 0 1.392 0.504 1.392 1.428v3.492h0.924v-3.552c0-1.416-0.732-2.208-2.052-2.208z"/>
   <path d="m218.51 358.12c1.344 0 2.232-0.696 2.232-1.74 0-0.9-0.576-1.32-1.404-1.476l-1.416-0.276c-0.516-0.096-0.684-0.312-0.684-0.768 0-0.552 0.372-0.804 1.176-0.804 0.744 0 1.2 0.156 1.32 1.224l0.912-0.252c-0.24-1.356-1.188-1.788-2.268-1.788-1.248 0-2.076 0.672-2.076 1.692 0 1.044 0.756 1.452 1.572 1.608l1.104 0.216c0.684 0.132 0.852 0.3 0.852 0.78 0 0.528-0.408 0.768-1.26 0.768-0.936 0-1.392-0.312-1.548-1.224l-0.912 0.3c0.264 1.164 1.176 1.74 2.4 1.74z"/>
   <path d="m227.12 355.02c0-1.728-1.08-2.784-2.604-2.784-1.572 0-2.736 1.188-2.736 2.94 0 1.788 1.092 2.94 2.784 2.94 1.056 0 2.028-0.432 2.424-1.428l-0.864-0.336c-0.264 0.744-0.636 0.972-1.56 0.972-1.236 0-1.776-0.528-1.836-1.86h4.38c0.012-0.204 0.012-0.276 0.012-0.444zm-2.616-2.004c1.14 0 1.62 0.48 1.692 1.692h-3.456c0.108-1.152 0.684-1.692 1.764-1.692z"/>
   <path d="m230.58 358.12c1.344 0 2.232-0.696 2.232-1.74 0-0.9-0.576-1.32-1.404-1.476l-1.416-0.276c-0.516-0.096-0.684-0.312-0.684-0.768 0-0.552 0.372-0.804 1.176-0.804 0.744 0 1.2 0.156 1.32 1.224l0.912-0.252c-0.24-1.356-1.188-1.788-2.268-1.788-1.248 0-2.076 0.672-2.076 1.692 0 1.044 0.756 1.452 1.572 1.608l1.104 0.216c0.684 0.132 0.852 0.3 0.852 0.78 0 0.528-0.408 0.768-1.26 0.768-0.936 0-1.392-0.312-1.548-1.224l-0.912 0.3c0.264 1.164 1.176 1.74 2.4 1.74z"/>
  </g>
  <g fill="#dfe7f5" aria-label="Responses">
   <path d="m180.93 645h1.2l-1.68-2.892-0.72-0.936c1.38-0.132 2.292-1.02 2.292-2.28 0-1.38-1.08-2.292-2.688-2.292h-3.192v8.4h0.936v-3.804h1.8zm-3.852-7.524h2.4c1.116 0 1.548 0.396 1.548 1.416 0 1.032-0.432 1.44-1.548 1.44h-2.4z"/>
   <path d="m188.15 642.02c0-1.728-1.08-2.784-2.604-2.784-1.572 0-2.736 1.188-2.736 2.94 0 1.788 1.092 2.94 2.784 2.94 1.056 0 2.028-0.432 2.424-1.428l-0.86399-0.336c-0.26401 0.744-0.63601 0.972-1.56 0.972-1.236 0-1.776-0.528-1.836-1.86h4.38c0.012-0.204 0.012-0.276 0.012-0.444zm-2.616-2.004c1.14 0 1.62 0.48 1.692 1.692h-3.456c0.108-1.152 0.684-1.692 1.764-1.692z"/>
   <path d="m191.6 645.12c1.344 0 2.232-0.696 2.232-1.74 0-0.9-0.576-1.32-1.404-1.476l-1.416-0.276c-0.516-0.096-0.684-0.312-0.684-0.768 0-0.552 0.372-0.804 1.176-0.804 0.744 0 1.2 0.156 1.32 1.224l0.912-0.252c-0.24-1.356-1.188-1.788-2.268-1.788-1.248 0-2.076 0.672-2.076 1.692 0 1.044 0.756 1.452 1.572 1.608l1.104 0.216c0.684 0.132 0.852 0.3 0.852 0.78 0 0.528-0.408 0.768-1.26 0.768-0.936 0-1.392-0.312-1.548-1.224l-0.912 0.3c0.264 1.164 1.176 1.74 2.4 1.74z"/>
   <path d="m198.42 639.24c-0.972 0-1.716 0.468-2.136 1.272v-1.152h-0.924v7.68h0.924v-3.192c0.42 0.804 1.164 1.272 2.136 1.272 1.62 0 2.7-1.176 2.7-2.94s-1.08-2.94-2.7-2.94zm-0.216 5.04c-1.416 0-1.968-0.588-1.968-2.1s0.552-2.1 1.968-2.1 1.968 0.588 1.968 2.1-0.552 2.1-1.968 2.1z"/>
   <path d="m205.1 639.24c-1.62 0-2.916 1.176-2.916 2.94s1.296 2.94 2.916 2.94 2.916-1.176 2.916-2.94-1.296-2.94-2.916-2.94zm0 5.04c-1.416 0-1.968-0.588-1.968-2.1s0.552-2.1 1.968-2.1 1.968 0.588 1.968 2.1-0.552 2.1-1.968 2.1z"/>
   <path d="m212.57 639.24c-1.188 0-1.788 0.624-2.064 1.512v-1.392h-0.924v5.64h0.924v-2.604c0-1.464 0.696-2.316 1.8-2.316 0.84 0 1.392 0.504 1.392 1.428v3.492h0.924v-3.552c0-1.416-0.732-2.208-2.052-2.208z"/>
   <path d="m218.51 645.12c1.344 0 2.232-0.696 2.232-1.74 0-0.9-0.576-1.32-1.404-1.476l-1.416-0.276c-0.516-0.096-0.684-0.312-0.684-0.768 0-0.552 0.372-0.804 1.176-0.804 0.744 0 1.2 0.156 1.32 1.224l0.912-0.252c-0.24-1.356-1.188-1.788-2.268-1.788-1.248 0-2.076 0.672-2.076 1.692 0 1.044 0.756 1.452 1.572 1.608l1.104 0.216c0.684 0.132 0.852 0.3 0.852 0.78 0 0.528-0.408 0.768-1.26 0.768-0.936 0-1.392-0.312-1.548-1.224l-0.912 0.3c0.264 1.164 1.176 1.74 2.4 1.74z"/>
   <path d="m227.12 642.02c0-1.728-1.08-2.784-2.604-2.784-1.572 0-2.736 1.188-2.736 2.94 0 1.788 1.092 2.94 2.784 2.94 1.056 0 2.028-0.432 2.424-1.428l-0.864-0.336c-0.264 0.744-0.636 0.972-1.56 0.972-1.236 0-1.776-0.528-1.836-1.86h4.38c0.012-0.204 0.012-0.276 0.012-0.444zm-2.616-2.004c1.14 0 1.62 0.48 1.692 1.692h-3.456c0.108-1.152 0.684-1.692 1.764-1.692z"/>
   <path d="m230.58 645.12c1.344 0 2.232-0.696 2.232-1.74 0-0.9-0.576-1.32-1.404-1.476l-1.416-0.276c-0.516-0.096-0.684-0.312-0.684-0.768 0-0.552 0.372-0.804 1.176-0.804 0.744 0 1.2 0.156 1.32 1.224l0.912-0.252c-0.24-1.356-1.188-1.788-2.268-1.788-1.248 0-2.076 0.672-2.076 1.692 0 1.044 0.756 1.452 1.572 1.608l1.104 0.216c0.684 0.132 0.852 0.3 0.852 0.78 0 0.528-0.408 0.768-1.26 0.768-0.936 0-1.392-0.312-1.548-1.224l-0.912 0.3c0.264 1.164 1.176 1.74 2.4 1.74z"/>
  </g>
  <path d="m169 365h81c1.108 0 2 0.892 2 2v20c0 1.108-0.892 2-2 2h-81c-1.108 0-2-0.892-2-2v-20c0-1.108 0.892-2 2-2z"/>
  <path d="m169 652h81c1.108 0 2 0.892 2 2v20c0 1.108-0.892 2-2 2h-81c-1.108 0-2-0.892-2-2v-20c0-1.108 0.892-2 2-2z"/>
  <g fill="#dfe7f5" aria-label="% Column">
   <path d="m177.78 377.72c1.164 0 2.172-0.864 2.172-2.136 0-1.236-0.996-2.1-2.172-2.1-1.188 0-2.184 0.864-2.184 2.1 0 1.272 0.996 2.136 2.184 2.136zm5.088-4.116-2.94 4.104-3.3 4.296h0.912l3.024-4.188 3.216-4.212zm-5.088 3.348c-0.912 0-1.344-0.432-1.344-1.368 0-0.9 0.432-1.332 1.344-1.332s1.344 0.432 1.344 1.332c0 0.936-0.432 1.368-1.344 1.368zm4.908 5.172c1.164 0 2.172-0.864 2.172-2.136 0-1.236-0.996-2.1-2.172-2.1-1.188 0-2.184 0.864-2.184 2.1 0 1.272 0.996 2.136 2.184 2.136zm0-0.768c-0.912 0-1.344-0.432-1.344-1.368 0-0.9 0.432-1.332 1.344-1.332s1.344 0.432 1.344 1.332c0 0.936-0.432 1.368-1.344 1.368z"/>
   <path d="m193.43 381.24c-2.22 0-3.264-1.116-3.264-3.48 0-2.316 1.044-3.408 3.264-3.408 1.956 0 2.832 0.744 3.12 2.64l0.912-0.264c-0.408-2.124-1.824-3.252-4.032-3.252-2.328 0-4.26 1.752-4.26 4.284s1.932 4.356 4.26 4.356c2.208 0 3.624-1.128 4.032-3.252l-0.912-0.264c-0.288 1.896-1.164 2.64-3.12 2.64z"/>
   <path d="m201.4 376.24c-1.62 0-2.916 1.176-2.916 2.94s1.296 2.94 2.916 2.94 2.916-1.176 2.916-2.94-1.296-2.94-2.916-2.94zm0 5.04c-1.416 0-1.968-0.588-1.968-2.1s0.552-2.1 1.968-2.1 1.968 0.588 1.968 2.1-0.552 2.1-1.968 2.1z"/>
   <path d="m205.88 382h0.924v-8.4h-0.924z"/>
   <path d="m212.89 376.36v2.604c0 1.464-0.696 2.316-1.8 2.316-0.84 0-1.392-0.504-1.392-1.428v-3.492h-0.924v3.552c0 1.416 0.732 2.208 2.052 2.208 1.188 0 1.788-0.624 2.064-1.512v1.392h0.924v-5.64z"/>
   <path d="m222.91 376.24c-1.068 0-1.74 0.576-2.052 1.596-0.192-1.032-0.888-1.596-2.004-1.596-1.188 0-1.788 0.624-2.064 1.512v-1.392h-0.924v5.64h0.924v-2.604c0-1.464 0.696-2.316 1.8-2.316 0.84 0 1.392 0.504 1.392 1.428v3.492h0.924v-2.28c0-1.644 0.54-2.64 1.812-2.64 0.828 0 1.38 0.504 1.38 1.512v3.408h0.924v-3.468c0-1.452-0.756-2.292-2.112-2.292z"/>
   <path d="m229.98 376.24c-1.188 0-1.788 0.624-2.064 1.512v-1.392h-0.924v5.64h0.924v-2.604c0-1.464 0.696-2.316 1.8-2.316 0.84 0 1.392 0.504 1.392 1.428v3.492h0.924v-3.552c0-1.416-0.732-2.208-2.052-2.208z"/>
  </g>
  <g fill="#dfe7f5" aria-label="% Column">
   <path d="m177.78 664.72c1.164 0 2.172-0.864 2.172-2.136 0-1.236-0.996-2.1-2.172-2.1-1.188 0-2.184 0.864-2.184 2.1 0 1.272 0.996 2.136 2.184 2.136zm5.088-4.116-2.94 4.104-3.3 4.296h0.912l3.024-4.188 3.216-4.212zm-5.088 3.348c-0.912 0-1.344-0.432-1.344-1.368 0-0.9 0.432-1.332 1.344-1.332s1.344 0.432 1.344 1.332c0 0.936-0.432 1.368-1.344 1.368zm4.908 5.172c1.164 0 2.172-0.864 2.172-2.136 0-1.236-0.996-2.1-2.172-2.1-1.188 0-2.184 0.864-2.184 2.1 0 1.272 0.996 2.136 2.184 2.136zm0-0.768c-0.912 0-1.344-0.432-1.344-1.368 0-0.9 0.432-1.332 1.344-1.332s1.344 0.432 1.344 1.332c0 0.936-0.432 1.368-1.344 1.368z"/>
   <path d="m193.43 668.24c-2.22 0-3.264-1.116-3.264-3.48 0-2.316 1.044-3.408 3.264-3.408 1.956 0 2.832 0.744 3.12 2.64l0.912-0.264c-0.408-2.124-1.824-3.252-4.032-3.252-2.328 0-4.26 1.752-4.26 4.284s1.932 4.356 4.26 4.356c2.208 0 3.624-1.128 4.032-3.252l-0.912-0.264c-0.288 1.896-1.164 2.64-3.12 2.64z"/>
   <path d="m201.4 663.24c-1.62 0-2.916 1.176-2.916 2.94s1.296 2.94 2.916 2.94 2.916-1.176 2.916-2.94-1.296-2.94-2.916-2.94zm0 5.04c-1.416 0-1.968-0.588-1.968-2.1s0.552-2.1 1.968-2.1 1.968 0.588 1.968 2.1-0.552 2.1-1.968 2.1z"/>
   <path d="m205.88 669h0.924v-8.4h-0.924z"/>
   <path d="m212.89 663.36v2.604c0 1.464-0.696 2.316-1.8 2.316-0.84 0-1.392-0.504-1.392-1.428v-3.492h-0.924v3.552c0 1.416 0.732 2.208 2.052 2.208 1.188 0 1.788-0.624 2.064-1.512v1.392h0.924v-5.64z"/>
   <path d="m222.91 663.24c-1.068 0-1.74 0.576-2.052 1.596-0.192-1.032-0.888-1.596-2.004-1.596-1.188 0-1.788 0.624-2.064 1.512v-1.392h-0.924v5.64h0.924v-2.604c0-1.464 0.696-2.316 1.8-2.316 0.84 0 1.392 0.504 1.392 1.428v3.492h0.924v-2.28c0-1.644 0.54-2.64 1.812-2.64 0.828 0 1.38 0.504 1.38 1.512v3.408h0.924v-3.468c0-1.452-0.756-2.292-2.112-2.292z"/>
   <path d="m229.98 663.24c-1.188 0-1.788 0.624-2.064 1.512v-1.392h-0.924v5.64h0.924v-2.604c0-1.464 0.696-2.316 1.8-2.316 0.84 0 1.392 0.504 1.392 1.428v3.492h0.924v-3.552c0-1.416-0.732-2.208-2.052-2.208z"/>
  </g>
  <path d="m169 389h81c1.108 0 2 0.892 2 2v20c0 1.108-0.892 2-2 2h-81c-1.108 0-2-0.892-2-2v-20c0-1.108 0.892-2 2-2z"/>
  <path d="m169 676h81c1.108 0 2 0.892 2 2v20c0 1.108-0.892 2-2 2h-81c-1.108 0-2-0.892-2-2v-20c0-1.108 0.892-2 2-2z"/>
  <g fill="#dfe7f5" aria-label="% Row">
   <path d="m177.78 401.72c1.164 0 2.172-0.864 2.172-2.136 0-1.236-0.996-2.1-2.172-2.1-1.188 0-2.184 0.864-2.184 2.1 0 1.272 0.996 2.136 2.184 2.136zm5.088-4.116-2.94 4.104-3.3 4.296h0.912l3.024-4.188 3.216-4.212zm-5.088 3.348c-0.912 0-1.344-0.432-1.344-1.368 0-0.9 0.432-1.332 1.344-1.332s1.344 0.432 1.344 1.332c0 0.936-0.432 1.368-1.344 1.368zm4.908 5.172c1.164 0 2.172-0.864 2.172-2.136 0-1.236-0.996-2.1-2.172-2.1-1.188 0-2.184 0.864-2.184 2.1 0 1.272 0.996 2.136 2.184 2.136zm0-0.768c-0.912 0-1.344-0.432-1.344-1.368 0-0.9 0.432-1.332 1.344-1.332s1.344 0.432 1.344 1.332c0 0.936-0.432 1.368-1.344 1.368z"/>
   <path d="m194.5 406h1.2l-1.68-2.892-0.72-0.936c1.38-0.132 2.292-1.02 2.292-2.28 0-1.38-1.08-2.292-2.688-2.292h-3.192v8.4h0.936v-3.804h1.8zm-3.852-7.524h2.4c1.116 0 1.548 0.396 1.548 1.416 0 1.032-0.432 1.44-1.548 1.44h-2.4z"/>
   <path d="m199.29 400.24c-1.62 0-2.916 1.176-2.916 2.94s1.296 2.94 2.916 2.94 2.916-1.176 2.916-2.94-1.296-2.94-2.916-2.94zm0 5.04c-1.416 0-1.968-0.588-1.968-2.1s0.552-2.1 1.968-2.1 1.968 0.588 1.968 2.1-0.552 2.1-1.968 2.1z"/>
   <path d="m210.26 400.36-0.888 3.624-0.288 1.356-0.396-1.368-1.188-3.612h-0.984l-1.188 3.624-0.384 1.308-0.276-1.296-0.9-3.636h-1.044l1.608 5.64h1.104l1.26-3.552 0.324-1.056 0.312 1.032 1.26 3.576h1.116l1.596-5.64z"/>
  </g>
  <g fill="#dfe7f5" aria-label="% Row">
   <path d="m177.78 688.72c1.164 0 2.172-0.864 2.172-2.136 0-1.236-0.996-2.1-2.172-2.1-1.188 0-2.184 0.864-2.184 2.1 0 1.272 0.996 2.136 2.184 2.136zm5.088-4.116-2.94 4.104-3.3 4.296h0.912l3.024-4.188 3.216-4.212zm-5.088 3.348c-0.912 0-1.344-0.432-1.344-1.368 0-0.9 0.432-1.332 1.344-1.332s1.344 0.432 1.344 1.332c0 0.936-0.432 1.368-1.344 1.368zm4.908 5.172c1.164 0 2.172-0.864 2.172-2.136 0-1.236-0.996-2.1-2.172-2.1-1.188 0-2.184 0.864-2.184 2.1 0 1.272 0.996 2.136 2.184 2.136zm0-0.768c-0.912 0-1.344-0.432-1.344-1.368 0-0.9 0.432-1.332 1.344-1.332s1.344 0.432 1.344 1.332c0 0.936-0.432 1.368-1.344 1.368z"/>
   <path d="m194.5 693h1.2l-1.68-2.892-0.72-0.936c1.38-0.132 2.292-1.02 2.292-2.28 0-1.38-1.08-2.292-2.688-2.292h-3.192v8.4h0.936v-3.804h1.8zm-3.852-7.524h2.4c1.116 0 1.548 0.396 1.548 1.416 0 1.032-0.432 1.44-1.548 1.44h-2.4z"/>
   <path d="m199.29 687.24c-1.62 0-2.916 1.176-2.916 2.94s1.296 2.94 2.916 2.94 2.916-1.176 2.916-2.94-1.296-2.94-2.916-2.94zm0 5.04c-1.416 0-1.968-0.588-1.968-2.1s0.552-2.1 1.968-2.1 1.968 0.588 1.968 2.1-0.552 2.1-1.968 2.1z"/>
   <path d="m210.26 687.36-0.888 3.624-0.288 1.356-0.396-1.368-1.188-3.612h-0.984l-1.188 3.624-0.384 1.308-0.276-1.296-0.9-3.636h-1.044l1.608 5.64h1.104l1.26-3.552 0.324-1.056 0.312 1.032 1.26 3.576h1.116l1.596-5.64z"/>
  </g>
  <path d="m169 413h81c1.108 0 2 0.892 2 2v20c0 1.108-0.892 2-2 2h-81c-1.108 0-2-0.892-2-2v-20c0-1.108 0.892-2 2-2z"/>
  <path d="m169 700h81c1.108 0 2 0.892 2 2v20c0 1.108-0.892 2-2 2h-81c-1.108 0-2-0.892-2-2v-20c0-1.108 0.892-2 2-2z"/>
  <g fill="#dfe7f5" aria-label="Index">
   <path d="m176.14 430h0.96v-8.4h-0.96z"/>
   <path d="m182.24 424.24c-1.188 0-1.788 0.624-2.064 1.512v-1.392h-0.924v5.64h0.924v-2.604c0-1.464 0.696-2.316 1.8-2.316 0.84 0 1.392 0.504 1.392 1.428v3.492h0.924v-3.552c0-1.416-0.732-2.208-2.052-2.208z"/>
   <path d="m190.64 421.6v3.912c-0.42-0.804-1.164-1.272-2.136-1.272-1.62 0-2.7 1.176-2.7 2.94s1.08 2.94 2.7 2.94c0.972 0 1.716-0.468 2.136-1.272v1.152h0.924v-8.4zm-1.92 7.68c-1.416 0-1.968-0.588-1.968-2.1s0.552-2.1 1.968-2.1c1.416 0 1.968 0.588 1.968 2.1s-0.55199 2.1-1.968 2.1z"/>
   <path d="m198.46 427.02c0-1.728-1.08-2.784-2.604-2.784-1.572 0-2.736 1.188-2.736 2.94 0 1.788 1.092 2.94 2.784 2.94 1.056 0 2.028-0.432 2.424-1.428l-0.86399-0.336c-0.26401 0.744-0.63601 0.972-1.56 0.972-1.236 0-1.776-0.528-1.836-1.86h4.38c0.012-0.204 0.012-0.276 0.012-0.444zm-2.616-2.004c1.14 0 1.62 0.48 1.692 1.692h-3.456c0.108-1.152 0.684-1.692 1.764-1.692z"/>
   <path d="m202.41 427.2 2.028-2.844h-1.164l-1.056 1.692-0.36 0.624-0.396-0.684-1.02-1.632h-1.164l2.004 2.844-2.052 2.796h1.152l1.08-1.656 0.384-0.636 0.384 0.648 1.08 1.644h1.152z"/>
  </g>
  <g fill="#dfe7f5" aria-label="Index">
   <path d="m176.14 717h0.96v-8.4h-0.96z"/>
   <path d="m182.24 711.24c-1.188 0-1.788 0.624-2.064 1.512v-1.392h-0.924v5.64h0.924v-2.604c0-1.464 0.696-2.316 1.8-2.316 0.84 0 1.392 0.504 1.392 1.428v3.492h0.924v-3.552c0-1.416-0.732-2.208-2.052-2.208z"/>
   <path d="m190.64 708.6v3.912c-0.42-0.804-1.164-1.272-2.136-1.272-1.62 0-2.7 1.176-2.7 2.94s1.08 2.94 2.7 2.94c0.972 0 1.716-0.468 2.136-1.272v1.152h0.924v-8.4zm-1.92 7.68c-1.416 0-1.968-0.588-1.968-2.1s0.552-2.1 1.968-2.1c1.416 0 1.968 0.588 1.968 2.1s-0.55199 2.1-1.968 2.1z"/>
   <path d="m198.46 714.02c0-1.728-1.08-2.784-2.604-2.784-1.572 0-2.736 1.188-2.736 2.94 0 1.788 1.092 2.94 2.784 2.94 1.056 0 2.028-0.432 2.424-1.428l-0.86399-0.336c-0.26401 0.744-0.63601 0.972-1.56 0.972-1.236 0-1.776-0.528-1.836-1.86h4.38c0.012-0.204 0.012-0.276 0.012-0.444zm-2.616-2.004c1.14 0 1.62 0.48 1.692 1.692h-3.456c0.108-1.152 0.684-1.692 1.764-1.692z"/>
   <path d="m202.41 714.2 2.028-2.844h-1.164l-1.056 1.692-0.36 0.624-0.396-0.684-1.02-1.632h-1.164l2.004 2.844-2.052 2.796h1.152l1.08-1.656 0.384-0.636 0.384 0.648 1.08 1.644h1.152z"/>
  </g>
  <g fill="#ced9eb">
   <path transform="translate(32,313)" d="m20.5 9.35h-9c-1.187 0-2.15 0.963-2.15 2.15v9c0 1.187 0.963 2.15 2.15 2.15h9c1.188 0 2.15-0.963 2.15-2.15v-9c0-1.187-0.962-2.15-2.15-2.15zm-9 1.3h9c0.47 0 0.85 0.38 0.85 0.85v9c0 0.47-0.38 0.85-0.85 0.85h-9c-0.469 0-0.85-0.381-0.85-0.85v-9c0-0.469 0.381-0.85 0.85-0.85z"/>
   <path transform="translate(32,600)" d="m20.5 9.35h-9c-1.187 0-2.15 0.963-2.15 2.15v9c0 1.187 0.963 2.15 2.15 2.15h9c1.188 0 2.15-0.963 2.15-2.15v-9c0-1.187-0.962-2.15-2.15-2.15zm-9 1.3h9c0.47 0 0.85 0.38 0.85 0.85v9c0 0.47-0.38 0.85-0.85 0.85h-9c-0.469 0-0.85-0.381-0.85-0.85v-9c0-0.469 0.381-0.85 0.85-0.85z"/>
   <path transform="rotate(180,144,172)" d="m15.617 19.318c0.892 0 1.617 0.724 1.617 1.617 0 0.892-0.725 1.617-1.617 1.617-0.893 0-1.617-0.725-1.617-1.617 0-0.893 0.724-1.617 1.617-1.617zm0-5.66c0.892 0 1.617 0.725 1.617 1.618 0 0.892-0.725 1.617-1.617 1.617-0.893 0-1.617-0.725-1.617-1.617 0-0.893 0.724-1.617 1.617-1.617zm0-5.658c0.892 0 1.617 0.724 1.617 1.617 0 0.892-0.725 1.617-1.617 1.617-0.893 0-1.617-0.725-1.617-1.617 0-0.893 0.724-1.617 1.617-1.617z"/>
   <path transform="rotate(180,144,315.5)" d="m15.617 19.318c0.892 0 1.617 0.724 1.617 1.617 0 0.892-0.725 1.617-1.617 1.617-0.893 0-1.617-0.725-1.617-1.617 0-0.893 0.724-1.617 1.617-1.617zm0-5.66c0.892 0 1.617 0.725 1.617 1.618 0 0.892-0.725 1.617-1.617 1.617-0.893 0-1.617-0.725-1.617-1.617 0-0.893 0.724-1.617 1.617-1.617zm0-5.658c0.892 0 1.617 0.724 1.617 1.617 0 0.892-0.725 1.617-1.617 1.617-0.893 0-1.617-0.725-1.617-1.617 0-0.893 0.724-1.617 1.617-1.617z"/>
  </g>
  <path d="m169 460h81c1.108 0 2 0.892 2 2v20c0 1.108-0.892 2-2 2h-81c-1.108 0-2-0.892-2-2v-20c0-1.108 0.892-2 2-2z"/>
  <path d="m169 747h81c1.108 0 2 0.892 2 2v20c0 1.108-0.892 2-2 2h-81c-1.108 0-2-0.892-2-2v-20c0-1.108 0.892-2 2-2z"/>
  <g fill="#dfe7f5" aria-label="Universe">
   <path d="m181.6 468.6v5.256c0 1.548-0.636 2.1-2.184 2.1-1.536 0-2.184-0.552-2.184-2.1v-5.256h-1.272v5.04c0 2.316 1.356 3.48 3.456 3.48s3.456-1.164 3.456-3.48v-5.04z"/>
   <path d="m188.01 471.12c-1.128 0-1.74 0.588-2.016 1.512v-1.392h-1.224v5.76h1.224v-2.712c0-1.332 0.624-2.052 1.596-2.052 0.78 0 1.26 0.444 1.26 1.308v3.456h1.224v-3.54c0-1.524-0.708-2.34-2.064-2.34z"/>
   <path d="m192.52 470.05c0.552 0 0.852-0.3 0.84-0.828-0.012-0.516-0.312-0.792-0.84-0.792-0.54 0-0.852 0.276-0.84 0.792 0.012 0.528 0.312 0.828 0.84 0.828zm-0.624 6.948h1.224v-5.76h-1.224z"/>
   <path d="m198.94 471.24-1.668 4.872-1.68-4.872h-1.356l2.268 5.76h1.524l2.256-5.76z"/>
   <path d="m206.31 474c0-1.764-1.116-2.88-2.724-2.88-1.656 0-2.832 1.212-2.832 3.012 0 1.812 1.14 2.988 2.892 2.988 1.176 0 2.124-0.48 2.532-1.488l-1.104-0.444c-0.264 0.684-0.612 0.9-1.416 0.9-1.08 0-1.56-0.468-1.656-1.584h4.296c0.012-0.228 0.012-0.324 0.012-0.504zm-2.712-1.872c0.99599 0 1.44 0.408 1.488 1.476h-3.072c0.12001-1.008 0.624-1.476 1.584-1.476z"/>
   <path d="m210.75 471.13c-1.152 0-1.608 0.864-1.788 1.788v-1.68h-1.224v5.76h1.224v-2.496c0-1.356 0.6-2.232 1.692-2.232 0.432 0 0.612 0.072 0.78 0.144v-1.188c-0.18-0.084-0.432-0.096-0.684-0.096z"/>
   <path d="m214.49 477.12c1.488 0 2.412-0.708 2.412-1.836 0-0.924-0.588-1.428-1.488-1.584l-1.308-0.228c-0.552-0.084-0.708-0.288-0.708-0.684 0-0.48 0.324-0.708 1.02-0.708 0.684 0 1.056 0.168 1.164 1.08l1.2-0.288c-0.216-1.212-1.068-1.752-2.412-1.752-1.356 0-2.208 0.672-2.208 1.74 0 1.032 0.696 1.524 1.62 1.68l1.044 0.192c0.684 0.12 0.852 0.288 0.852 0.72 0 0.468-0.348 0.684-1.104 0.684-0.804 0-1.236-0.264-1.356-1.104l-1.212 0.348c0.204 1.056 1.116 1.74 2.484 1.74z"/>
   <path d="m223.38 474c0-1.764-1.116-2.88-2.724-2.88-1.656 0-2.832 1.212-2.832 3.012 0 1.812 1.14 2.988 2.892 2.988 1.176 0 2.124-0.48 2.532-1.488l-1.104-0.444c-0.264 0.684-0.612 0.9-1.416 0.9-1.08 0-1.56-0.468-1.656-1.584h4.296c0.012-0.228 0.012-0.324 0.012-0.504zm-2.712-1.872c0.99599 0 1.44 0.408 1.488 1.476h-3.072c0.12001-1.008 0.624-1.476 1.584-1.476z"/>
  </g>
  <g fill="#dfe7f5" aria-label="Universe">
   <path d="m181.6 755.6v5.256c0 1.548-0.636 2.1-2.184 2.1-1.536 0-2.184-0.552-2.184-2.1v-5.256h-1.272v5.04c0 2.316 1.356 3.48 3.456 3.48s3.456-1.164 3.456-3.48v-5.04z"/>
   <path d="m188.01 758.12c-1.128 0-1.74 0.588-2.016 1.512v-1.392h-1.224v5.76h1.224v-2.712c0-1.332 0.624-2.052 1.596-2.052 0.78 0 1.26 0.444 1.26 1.308v3.456h1.224v-3.54c0-1.524-0.708-2.34-2.064-2.34z"/>
   <path d="m192.52 757.05c0.552 0 0.852-0.3 0.84-0.828-0.012-0.516-0.312-0.792-0.84-0.792-0.54 0-0.852 0.276-0.84 0.792 0.012 0.528 0.312 0.828 0.84 0.828zm-0.624 6.948h1.224v-5.76h-1.224z"/>
   <path d="m198.94 758.24-1.668 4.872-1.68-4.872h-1.356l2.268 5.76h1.524l2.256-5.76z"/>
   <path d="m206.31 761c0-1.764-1.116-2.88-2.724-2.88-1.656 0-2.832 1.212-2.832 3.012 0 1.812 1.14 2.988 2.892 2.988 1.176 0 2.124-0.48 2.532-1.488l-1.104-0.444c-0.264 0.684-0.612 0.9-1.416 0.9-1.08 0-1.56-0.468-1.656-1.584h4.296c0.012-0.228 0.012-0.324 0.012-0.504zm-2.712-1.872c0.99599 0 1.44 0.408 1.488 1.476h-3.072c0.12001-1.008 0.624-1.476 1.584-1.476z"/>
   <path d="m210.75 758.13c-1.152 0-1.608 0.864-1.788 1.788v-1.68h-1.224v5.76h1.224v-2.496c0-1.356 0.6-2.232 1.692-2.232 0.432 0 0.612 0.072 0.78 0.144v-1.188c-0.18-0.084-0.432-0.096-0.684-0.096z"/>
   <path d="m214.49 764.12c1.488 0 2.412-0.708 2.412-1.836 0-0.924-0.588-1.428-1.488-1.584l-1.308-0.228c-0.552-0.084-0.708-0.288-0.708-0.684 0-0.48 0.324-0.708 1.02-0.708 0.684 0 1.056 0.168 1.164 1.08l1.2-0.288c-0.216-1.212-1.068-1.752-2.412-1.752-1.356 0-2.208 0.672-2.208 1.74 0 1.032 0.696 1.524 1.62 1.68l1.044 0.192c0.684 0.12 0.852 0.288 0.852 0.72 0 0.468-0.348 0.684-1.104 0.684-0.804 0-1.236-0.264-1.356-1.104l-1.212 0.348c0.204 1.056 1.116 1.74 2.484 1.74z"/>
   <path d="m223.38 761c0-1.764-1.116-2.88-2.724-2.88-1.656 0-2.832 1.212-2.832 3.012 0 1.812 1.14 2.988 2.892 2.988 1.176 0 2.124-0.48 2.532-1.488l-1.104-0.444c-0.264 0.684-0.612 0.9-1.416 0.9-1.08 0-1.56-0.468-1.656-1.584h4.296c0.012-0.228 0.012-0.324 0.012-0.504zm-2.712-1.872c0.99599 0 1.44 0.408 1.488 1.476h-3.072c0.12001-1.008 0.624-1.476 1.584-1.476z"/>
  </g>
  <path d="m169 484h81c1.108 0 2 0.892 2 2v20c0 1.108-0.892 2-2 2h-81c-1.108 0-2-0.892-2-2v-20c0-1.108 0.892-2 2-2z"/>
  <path d="m169 771h81c1.108 0 2 0.892 2 2v20c0 1.108-0.892 2-2 2h-81c-1.108 0-2-0.892-2-2v-20c0-1.108 0.892-2 2-2z"/>
  <g fill="#dfe7f5" aria-label="Responses">
   <path d="m180.93 501h1.2l-1.68-2.892-0.72-0.936c1.38-0.132 2.292-1.02 2.292-2.28 0-1.38-1.08-2.292-2.688-2.292h-3.192v8.4h0.936v-3.804h1.8zm-3.852-7.524h2.4c1.116 0 1.548 0.396 1.548 1.416 0 1.032-0.432 1.44-1.548 1.44h-2.4z"/>
   <path d="m188.15 498.02c0-1.728-1.08-2.784-2.604-2.784-1.572 0-2.736 1.188-2.736 2.94 0 1.788 1.092 2.94 2.784 2.94 1.056 0 2.028-0.432 2.424-1.428l-0.86399-0.336c-0.26401 0.744-0.63601 0.972-1.56 0.972-1.236 0-1.776-0.528-1.836-1.86h4.38c0.012-0.204 0.012-0.276 0.012-0.444zm-2.616-2.004c1.14 0 1.62 0.48 1.692 1.692h-3.456c0.108-1.152 0.684-1.692 1.764-1.692z"/>
   <path d="m191.6 501.12c1.344 0 2.232-0.696 2.232-1.74 0-0.9-0.576-1.32-1.404-1.476l-1.416-0.276c-0.516-0.096-0.684-0.312-0.684-0.768 0-0.552 0.372-0.804 1.176-0.804 0.744 0 1.2 0.156 1.32 1.224l0.912-0.252c-0.24-1.356-1.188-1.788-2.268-1.788-1.248 0-2.076 0.672-2.076 1.692 0 1.044 0.756 1.452 1.572 1.608l1.104 0.216c0.684 0.132 0.852 0.3 0.852 0.78 0 0.528-0.408 0.768-1.26 0.768-0.936 0-1.392-0.312-1.548-1.224l-0.912 0.3c0.264 1.164 1.176 1.74 2.4 1.74z"/>
   <path d="m198.42 495.24c-0.972 0-1.716 0.468-2.136 1.272v-1.152h-0.924v7.68h0.924v-3.192c0.42 0.804 1.164 1.272 2.136 1.272 1.62 0 2.7-1.176 2.7-2.94s-1.08-2.94-2.7-2.94zm-0.216 5.04c-1.416 0-1.968-0.588-1.968-2.1s0.552-2.1 1.968-2.1 1.968 0.588 1.968 2.1-0.552 2.1-1.968 2.1z"/>
   <path d="m205.1 495.24c-1.62 0-2.916 1.176-2.916 2.94s1.296 2.94 2.916 2.94 2.916-1.176 2.916-2.94-1.296-2.94-2.916-2.94zm0 5.04c-1.416 0-1.968-0.588-1.968-2.1s0.552-2.1 1.968-2.1 1.968 0.588 1.968 2.1-0.552 2.1-1.968 2.1z"/>
   <path d="m212.57 495.24c-1.188 0-1.788 0.624-2.064 1.512v-1.392h-0.924v5.64h0.924v-2.604c0-1.464 0.696-2.316 1.8-2.316 0.84 0 1.392 0.504 1.392 1.428v3.492h0.924v-3.552c0-1.416-0.732-2.208-2.052-2.208z"/>
   <path d="m218.51 501.12c1.344 0 2.232-0.696 2.232-1.74 0-0.9-0.576-1.32-1.404-1.476l-1.416-0.276c-0.516-0.096-0.684-0.312-0.684-0.768 0-0.552 0.372-0.804 1.176-0.804 0.744 0 1.2 0.156 1.32 1.224l0.912-0.252c-0.24-1.356-1.188-1.788-2.268-1.788-1.248 0-2.076 0.672-2.076 1.692 0 1.044 0.756 1.452 1.572 1.608l1.104 0.216c0.684 0.132 0.852 0.3 0.852 0.78 0 0.528-0.408 0.768-1.26 0.768-0.936 0-1.392-0.312-1.548-1.224l-0.912 0.3c0.264 1.164 1.176 1.74 2.4 1.74z"/>
   <path d="m227.12 498.02c0-1.728-1.08-2.784-2.604-2.784-1.572 0-2.736 1.188-2.736 2.94 0 1.788 1.092 2.94 2.784 2.94 1.056 0 2.028-0.432 2.424-1.428l-0.864-0.336c-0.264 0.744-0.636 0.972-1.56 0.972-1.236 0-1.776-0.528-1.836-1.86h4.38c0.012-0.204 0.012-0.276 0.012-0.444zm-2.616-2.004c1.14 0 1.62 0.48 1.692 1.692h-3.456c0.108-1.152 0.684-1.692 1.764-1.692z"/>
   <path d="m230.58 501.12c1.344 0 2.232-0.696 2.232-1.74 0-0.9-0.576-1.32-1.404-1.476l-1.416-0.276c-0.516-0.096-0.684-0.312-0.684-0.768 0-0.552 0.372-0.804 1.176-0.804 0.744 0 1.2 0.156 1.32 1.224l0.912-0.252c-0.24-1.356-1.188-1.788-2.268-1.788-1.248 0-2.076 0.672-2.076 1.692 0 1.044 0.756 1.452 1.572 1.608l1.104 0.216c0.684 0.132 0.852 0.3 0.852 0.78 0 0.528-0.408 0.768-1.26 0.768-0.936 0-1.392-0.312-1.548-1.224l-0.912 0.3c0.264 1.164 1.176 1.74 2.4 1.74z"/>
  </g>
  <g fill="#dfe7f5" aria-label="Responses">
   <path d="m180.93 788h1.2l-1.68-2.892-0.72-0.936c1.38-0.132 2.292-1.02 2.292-2.28 0-1.38-1.08-2.292-2.688-2.292h-3.192v8.4h0.936v-3.804h1.8zm-3.852-7.524h2.4c1.116 0 1.548 0.396 1.548 1.416 0 1.032-0.432 1.44-1.548 1.44h-2.4z"/>
   <path d="m188.15 785.02c0-1.728-1.08-2.784-2.604-2.784-1.572 0-2.736 1.188-2.736 2.94 0 1.788 1.092 2.94 2.784 2.94 1.056 0 2.028-0.432 2.424-1.428l-0.86399-0.336c-0.26401 0.744-0.63601 0.972-1.56 0.972-1.236 0-1.776-0.528-1.836-1.86h4.38c0.012-0.204 0.012-0.276 0.012-0.444zm-2.616-2.004c1.14 0 1.62 0.48 1.692 1.692h-3.456c0.108-1.152 0.684-1.692 1.764-1.692z"/>
   <path d="m191.6 788.12c1.344 0 2.232-0.696 2.232-1.74 0-0.9-0.576-1.32-1.404-1.476l-1.416-0.276c-0.516-0.096-0.684-0.312-0.684-0.768 0-0.552 0.372-0.804 1.176-0.804 0.744 0 1.2 0.156 1.32 1.224l0.912-0.252c-0.24-1.356-1.188-1.788-2.268-1.788-1.248 0-2.076 0.672-2.076 1.692 0 1.044 0.756 1.452 1.572 1.608l1.104 0.216c0.684 0.132 0.852 0.3 0.852 0.78 0 0.528-0.408 0.768-1.26 0.768-0.936 0-1.392-0.312-1.548-1.224l-0.912 0.3c0.264 1.164 1.176 1.74 2.4 1.74z"/>
   <path d="m198.42 782.24c-0.972 0-1.716 0.468-2.136 1.272v-1.152h-0.924v7.68h0.924v-3.192c0.42 0.804 1.164 1.272 2.136 1.272 1.62 0 2.7-1.176 2.7-2.94s-1.08-2.94-2.7-2.94zm-0.216 5.04c-1.416 0-1.968-0.588-1.968-2.1s0.552-2.1 1.968-2.1 1.968 0.588 1.968 2.1-0.552 2.1-1.968 2.1z"/>
   <path d="m205.1 782.24c-1.62 0-2.916 1.176-2.916 2.94s1.296 2.94 2.916 2.94 2.916-1.176 2.916-2.94-1.296-2.94-2.916-2.94zm0 5.04c-1.416 0-1.968-0.588-1.968-2.1s0.552-2.1 1.968-2.1 1.968 0.588 1.968 2.1-0.552 2.1-1.968 2.1z"/>
   <path d="m212.57 782.24c-1.188 0-1.788 0.624-2.064 1.512v-1.392h-0.924v5.64h0.924v-2.604c0-1.464 0.696-2.316 1.8-2.316 0.84 0 1.392 0.504 1.392 1.428v3.492h0.924v-3.552c0-1.416-0.732-2.208-2.052-2.208z"/>
   <path d="m218.51 788.12c1.344 0 2.232-0.696 2.232-1.74 0-0.9-0.576-1.32-1.404-1.476l-1.416-0.276c-0.516-0.096-0.684-0.312-0.684-0.768 0-0.552 0.372-0.804 1.176-0.804 0.744 0 1.2 0.156 1.32 1.224l0.912-0.252c-0.24-1.356-1.188-1.788-2.268-1.788-1.248 0-2.076 0.672-2.076 1.692 0 1.044 0.756 1.452 1.572 1.608l1.104 0.216c0.684 0.132 0.852 0.3 0.852 0.78 0 0.528-0.408 0.768-1.26 0.768-0.936 0-1.392-0.312-1.548-1.224l-0.912 0.3c0.264 1.164 1.176 1.74 2.4 1.74z"/>
   <path d="m227.12 785.02c0-1.728-1.08-2.784-2.604-2.784-1.572 0-2.736 1.188-2.736 2.94 0 1.788 1.092 2.94 2.784 2.94 1.056 0 2.028-0.432 2.424-1.428l-0.864-0.336c-0.264 0.744-0.636 0.972-1.56 0.972-1.236 0-1.776-0.528-1.836-1.86h4.38c0.012-0.204 0.012-0.276 0.012-0.444zm-2.616-2.004c1.14 0 1.62 0.48 1.692 1.692h-3.456c0.108-1.152 0.684-1.692 1.764-1.692z"/>
   <path d="m230.58 788.12c1.344 0 2.232-0.696 2.232-1.74 0-0.9-0.576-1.32-1.404-1.476l-1.416-0.276c-0.516-0.096-0.684-0.312-0.684-0.768 0-0.552 0.372-0.804 1.176-0.804 0.744 0 1.2 0.156 1.32 1.224l0.912-0.252c-0.24-1.356-1.188-1.788-2.268-1.788-1.248 0-2.076 0.672-2.076 1.692 0 1.044 0.756 1.452 1.572 1.608l1.104 0.216c0.684 0.132 0.852 0.3 0.852 0.78 0 0.528-0.408 0.768-1.26 0.768-0.936 0-1.392-0.312-1.548-1.224l-0.912 0.3c0.264 1.164 1.176 1.74 2.4 1.74z"/>
  </g>
  <path d="m169 508h81c1.108 0 2 0.892 2 2v20c0 1.108-0.892 2-2 2h-81c-1.108 0-2-0.892-2-2v-20c0-1.108 0.892-2 2-2z"/>
  <path d="m169 795h81c1.108 0 2 0.892 2 2v20c0 1.108-0.892 2-2 2h-81c-1.108 0-2-0.892-2-2v-20c0-1.108 0.892-2 2-2z"/>
  <g fill="#dfe7f5" aria-label="% Column">
   <path d="m177.78 520.72c1.164 0 2.172-0.864 2.172-2.136 0-1.236-0.996-2.1-2.172-2.1-1.188 0-2.184 0.864-2.184 2.1 0 1.272 0.996 2.136 2.184 2.136zm5.088-4.116-2.94 4.104-3.3 4.296h0.912l3.024-4.188 3.216-4.212zm-5.088 3.348c-0.912 0-1.344-0.432-1.344-1.368 0-0.9 0.432-1.332 1.344-1.332s1.344 0.432 1.344 1.332c0 0.936-0.432 1.368-1.344 1.368zm4.908 5.172c1.164 0 2.172-0.864 2.172-2.136 0-1.236-0.996-2.1-2.172-2.1-1.188 0-2.184 0.864-2.184 2.1 0 1.272 0.996 2.136 2.184 2.136zm0-0.768c-0.912 0-1.344-0.432-1.344-1.368 0-0.9 0.432-1.332 1.344-1.332s1.344 0.432 1.344 1.332c0 0.936-0.432 1.368-1.344 1.368z"/>
   <path d="m193.43 524.24c-2.22 0-3.264-1.116-3.264-3.48 0-2.316 1.044-3.408 3.264-3.408 1.956 0 2.832 0.744 3.12 2.64l0.912-0.264c-0.408-2.124-1.824-3.252-4.032-3.252-2.328 0-4.26 1.752-4.26 4.284s1.932 4.356 4.26 4.356c2.208 0 3.624-1.128 4.032-3.252l-0.912-0.264c-0.288 1.896-1.164 2.64-3.12 2.64z"/>
   <path d="m201.4 519.24c-1.62 0-2.916 1.176-2.916 2.94s1.296 2.94 2.916 2.94 2.916-1.176 2.916-2.94-1.296-2.94-2.916-2.94zm0 5.04c-1.416 0-1.968-0.588-1.968-2.1s0.552-2.1 1.968-2.1 1.968 0.588 1.968 2.1-0.552 2.1-1.968 2.1z"/>
   <path d="m205.88 525h0.924v-8.4h-0.924z"/>
   <path d="m212.89 519.36v2.604c0 1.464-0.696 2.316-1.8 2.316-0.84 0-1.392-0.504-1.392-1.428v-3.492h-0.924v3.552c0 1.416 0.732 2.208 2.052 2.208 1.188 0 1.788-0.624 2.064-1.512v1.392h0.924v-5.64z"/>
   <path d="m222.91 519.24c-1.068 0-1.74 0.576-2.052 1.596-0.192-1.032-0.888-1.596-2.004-1.596-1.188 0-1.788 0.624-2.064 1.512v-1.392h-0.924v5.64h0.924v-2.604c0-1.464 0.696-2.316 1.8-2.316 0.84 0 1.392 0.504 1.392 1.428v3.492h0.924v-2.28c0-1.644 0.54-2.64 1.812-2.64 0.828 0 1.38 0.504 1.38 1.512v3.408h0.924v-3.468c0-1.452-0.756-2.292-2.112-2.292z"/>
   <path d="m229.98 519.24c-1.188 0-1.788 0.624-2.064 1.512v-1.392h-0.924v5.64h0.924v-2.604c0-1.464 0.696-2.316 1.8-2.316 0.84 0 1.392 0.504 1.392 1.428v3.492h0.924v-3.552c0-1.416-0.732-2.208-2.052-2.208z"/>
  </g>
  <g fill="#dfe7f5" aria-label="% Column">
   <path d="m177.78 807.72c1.164 0 2.172-0.864 2.172-2.136 0-1.236-0.996-2.1-2.172-2.1-1.188 0-2.184 0.864-2.184 2.1 0 1.272 0.996 2.136 2.184 2.136zm5.088-4.116-2.94 4.104-3.3 4.296h0.912l3.024-4.188 3.216-4.212zm-5.088 3.348c-0.912 0-1.344-0.432-1.344-1.368 0-0.9 0.432-1.332 1.344-1.332s1.344 0.432 1.344 1.332c0 0.936-0.432 1.368-1.344 1.368zm4.908 5.172c1.164 0 2.172-0.864 2.172-2.136 0-1.236-0.996-2.1-2.172-2.1-1.188 0-2.184 0.864-2.184 2.1 0 1.272 0.996 2.136 2.184 2.136zm0-0.768c-0.912 0-1.344-0.432-1.344-1.368 0-0.9 0.432-1.332 1.344-1.332s1.344 0.432 1.344 1.332c0 0.936-0.432 1.368-1.344 1.368z"/>
   <path d="m193.43 811.24c-2.22 0-3.264-1.116-3.264-3.48 0-2.316 1.044-3.408 3.264-3.408 1.956 0 2.832 0.744 3.12 2.64l0.912-0.264c-0.408-2.124-1.824-3.252-4.032-3.252-2.328 0-4.26 1.752-4.26 4.284s1.932 4.356 4.26 4.356c2.208 0 3.624-1.128 4.032-3.252l-0.912-0.264c-0.288 1.896-1.164 2.64-3.12 2.64z"/>
   <path d="m201.4 806.24c-1.62 0-2.916 1.176-2.916 2.94s1.296 2.94 2.916 2.94 2.916-1.176 2.916-2.94-1.296-2.94-2.916-2.94zm0 5.04c-1.416 0-1.968-0.588-1.968-2.1s0.552-2.1 1.968-2.1 1.968 0.588 1.968 2.1-0.552 2.1-1.968 2.1z"/>
   <path d="m205.88 812h0.924v-8.4h-0.924z"/>
   <path d="m212.89 806.36v2.604c0 1.464-0.696 2.316-1.8 2.316-0.84 0-1.392-0.504-1.392-1.428v-3.492h-0.924v3.552c0 1.416 0.732 2.208 2.052 2.208 1.188 0 1.788-0.624 2.064-1.512v1.392h0.924v-5.64z"/>
   <path d="m222.91 806.24c-1.068 0-1.74 0.576-2.052 1.596-0.192-1.032-0.888-1.596-2.004-1.596-1.188 0-1.788 0.624-2.064 1.512v-1.392h-0.924v5.64h0.924v-2.604c0-1.464 0.696-2.316 1.8-2.316 0.84 0 1.392 0.504 1.392 1.428v3.492h0.924v-2.28c0-1.644 0.54-2.64 1.812-2.64 0.828 0 1.38 0.504 1.38 1.512v3.408h0.924v-3.468c0-1.452-0.756-2.292-2.112-2.292z"/>
   <path d="m229.98 806.24c-1.188 0-1.788 0.624-2.064 1.512v-1.392h-0.924v5.64h0.924v-2.604c0-1.464 0.696-2.316 1.8-2.316 0.84 0 1.392 0.504 1.392 1.428v3.492h0.924v-3.552c0-1.416-0.732-2.208-2.052-2.208z"/>
  </g>
  <path d="m169 532h81c1.108 0 2 0.892 2 2v20c0 1.108-0.892 2-2 2h-81c-1.108 0-2-0.892-2-2v-20c0-1.108 0.892-2 2-2z"/>
  <path d="m169 819h81c1.108 0 2 0.892 2 2v20c0 1.108-0.892 2-2 2h-81c-1.108 0-2-0.892-2-2v-20c0-1.108 0.892-2 2-2z"/>
  <g fill="#dfe7f5" aria-label="% Row">
   <path d="m177.78 544.72c1.164 0 2.172-0.864 2.172-2.136 0-1.236-0.996-2.1-2.172-2.1-1.188 0-2.184 0.864-2.184 2.1 0 1.272 0.996 2.136 2.184 2.136zm5.088-4.116-2.94 4.104-3.3 4.296h0.912l3.024-4.188 3.216-4.212zm-5.088 3.348c-0.912 0-1.344-0.432-1.344-1.368 0-0.9 0.432-1.332 1.344-1.332s1.344 0.432 1.344 1.332c0 0.936-0.432 1.368-1.344 1.368zm4.908 5.172c1.164 0 2.172-0.864 2.172-2.136 0-1.236-0.996-2.1-2.172-2.1-1.188 0-2.184 0.864-2.184 2.1 0 1.272 0.996 2.136 2.184 2.136zm0-0.768c-0.912 0-1.344-0.432-1.344-1.368 0-0.9 0.432-1.332 1.344-1.332s1.344 0.432 1.344 1.332c0 0.936-0.432 1.368-1.344 1.368z"/>
   <path d="m194.5 549h1.2l-1.68-2.892-0.72-0.936c1.38-0.132 2.292-1.02 2.292-2.28 0-1.38-1.08-2.292-2.688-2.292h-3.192v8.4h0.936v-3.804h1.8zm-3.852-7.524h2.4c1.116 0 1.548 0.396 1.548 1.416 0 1.032-0.432 1.44-1.548 1.44h-2.4z"/>
   <path d="m199.29 543.24c-1.62 0-2.916 1.176-2.916 2.94s1.296 2.94 2.916 2.94 2.916-1.176 2.916-2.94-1.296-2.94-2.916-2.94zm0 5.04c-1.416 0-1.968-0.588-1.968-2.1s0.552-2.1 1.968-2.1 1.968 0.588 1.968 2.1-0.552 2.1-1.968 2.1z"/>
   <path d="m210.26 543.36-0.888 3.624-0.288 1.356-0.396-1.368-1.188-3.612h-0.984l-1.188 3.624-0.384 1.308-0.276-1.296-0.9-3.636h-1.044l1.608 5.64h1.104l1.26-3.552 0.324-1.056 0.312 1.032 1.26 3.576h1.116l1.596-5.64z"/>
  </g>
  <g fill="#dfe7f5" aria-label="% Row">
   <path d="m177.78 831.72c1.164 0 2.172-0.864 2.172-2.136 0-1.236-0.996-2.1-2.172-2.1-1.188 0-2.184 0.864-2.184 2.1 0 1.272 0.996 2.136 2.184 2.136zm5.088-4.116-2.94 4.104-3.3 4.296h0.912l3.024-4.188 3.216-4.212zm-5.088 3.348c-0.912 0-1.344-0.432-1.344-1.368 0-0.9 0.432-1.332 1.344-1.332s1.344 0.432 1.344 1.332c0 0.936-0.432 1.368-1.344 1.368zm4.908 5.172c1.164 0 2.172-0.864 2.172-2.136 0-1.236-0.996-2.1-2.172-2.1-1.188 0-2.184 0.864-2.184 2.1 0 1.272 0.996 2.136 2.184 2.136zm0-0.768c-0.912 0-1.344-0.432-1.344-1.368 0-0.9 0.432-1.332 1.344-1.332s1.344 0.432 1.344 1.332c0 0.936-0.432 1.368-1.344 1.368z"/>
   <path d="m194.5 836h1.2l-1.68-2.892-0.72-0.936c1.38-0.132 2.292-1.02 2.292-2.28 0-1.38-1.08-2.292-2.688-2.292h-3.192v8.4h0.936v-3.804h1.8zm-3.852-7.524h2.4c1.116 0 1.548 0.396 1.548 1.416 0 1.032-0.432 1.44-1.548 1.44h-2.4z"/>
   <path d="m199.29 830.24c-1.62 0-2.916 1.176-2.916 2.94s1.296 2.94 2.916 2.94 2.916-1.176 2.916-2.94-1.296-2.94-2.916-2.94zm0 5.04c-1.416 0-1.968-0.588-1.968-2.1s0.552-2.1 1.968-2.1 1.968 0.588 1.968 2.1-0.552 2.1-1.968 2.1z"/>
   <path d="m210.26 830.36-0.888 3.624-0.288 1.356-0.396-1.368-1.188-3.612h-0.984l-1.188 3.624-0.384 1.308-0.276-1.296-0.9-3.636h-1.044l1.608 5.64h1.104l1.26-3.552 0.324-1.056 0.312 1.032 1.26 3.576h1.116l1.596-5.64z"/>
  </g>
  <g fill="#ced9eb">
   <path transform="translate(32,456)" d="m20.5 9.35h-9c-1.187 0-2.15 0.963-2.15 2.15v9c0 1.187 0.963 2.15 2.15 2.15h9c1.188 0 2.15-0.963 2.15-2.15v-9c0-1.187-0.962-2.15-2.15-2.15zm-9 1.3h9c0.47 0 0.85 0.38 0.85 0.85v9c0 0.47-0.38 0.85-0.85 0.85h-9c-0.469 0-0.85-0.381-0.85-0.85v-9c0-0.469 0.381-0.85 0.85-0.85z"/>
   <path transform="translate(32,743)" d="m20.5 9.35h-9c-1.187 0-2.15 0.963-2.15 2.15v9c0 1.187 0.963 2.15 2.15 2.15h9c1.188 0 2.15-0.963 2.15-2.15v-9c0-1.187-0.962-2.15-2.15-2.15zm-9 1.3h9c0.47 0 0.85 0.38 0.85 0.85v9c0 0.47-0.38 0.85-0.85 0.85h-9c-0.469 0-0.85-0.381-0.85-0.85v-9c0-0.469 0.381-0.85 0.85-0.85z"/>
   <path transform="rotate(180,144,243.5)" d="m15.617 19.318c0.892 0 1.617 0.724 1.617 1.617 0 0.892-0.725 1.617-1.617 1.617-0.893 0-1.617-0.725-1.617-1.617 0-0.893 0.724-1.617 1.617-1.617zm0-5.66c0.892 0 1.617 0.725 1.617 1.618 0 0.892-0.725 1.617-1.617 1.617-0.893 0-1.617-0.725-1.617-1.617 0-0.893 0.724-1.617 1.617-1.617zm0-5.658c0.892 0 1.617 0.724 1.617 1.617 0 0.892-0.725 1.617-1.617 1.617-0.893 0-1.617-0.725-1.617-1.617 0-0.893 0.724-1.617 1.617-1.617z"/>
   <path transform="rotate(180,144,387)" d="m15.617 19.318c0.892 0 1.617 0.724 1.617 1.617 0 0.892-0.725 1.617-1.617 1.617-0.893 0-1.617-0.725-1.617-1.617 0-0.893 0.724-1.617 1.617-1.617zm0-5.66c0.892 0 1.617 0.725 1.617 1.618 0 0.892-0.725 1.617-1.617 1.617-0.893 0-1.617-0.725-1.617-1.617 0-0.893 0.724-1.617 1.617-1.617zm0-5.658c0.892 0 1.617 0.724 1.617 1.617 0 0.892-0.725 1.617-1.617 1.617-0.893 0-1.617-0.725-1.617-1.617 0-0.893 0.724-1.617 1.617-1.617z"/>
  </g>
  <path d="m0 160h1451v1h-1451z" fill="#abb8cf"/>
  <path d="m72 325h87v12h-87zm0 287h87v12h-87zm492-568h122v12h-122zm219 0h122v12h-122zm438 0h122v12h-122zm-219 0h122v12h-122zm-930 421h87v12h-87zm0 287h87v12h-87zm0-411h48v12h-48zm0 287h48v12h-48zm492-568h94v12h-94zm219 0h94v12h-94zm438 0h94v12h-94zm-219 0h94v12h-94zm-930 421h48v12h-48zm0 287h48v12h-48zm270-303h38v12h-38zm0 287h38v12h-38zm220-287h38v12h-38zm0 287h38v12h-38zm219-287h38v12h-38zm0 287h38v12h-38zm438-287h38v12h-38zm0 287h38v12h-38zm-217-287h38v12h-38zm0 287h38v12h-38zm-660-429h38v12h-38zm0 287h38v12h-38zm220-288h38v12h-38zm0 287h38v12h-38zm219-287h38v12h-38zm0 287h38v12h-38zm438-287h38v12h-38zm0 287h38v12h-38zm-217-287h38v12h-38zm0 287h38v12h-38zm-660-430h38v12h-38zm220-1h38v12h-38zm219 0h38v12h-38zm438 0h38v12h-38zm-217 0h38v12h-38zm-660 312h38v12h-38zm0 287h38v12h-38zm220-288h38v12h-38zm0 287h38v12h-38zm219-287h38v12h-38zm0 287h38v12h-38zm438-287h38v12h-38zm0 287h38v12h-38zm-217-287h38v12h-38zm0 287h38v12h-38zm-660-428h38v12h-38zm0 287h38v12h-38zm220-288h38v12h-38zm0 287h38v12h-38zm219-287h38v12h-38zm0 287h38v12h-38zm438-287h38v12h-38zm0 287h38v12h-38zm-217-287h38v12h-38zm0 287h38v12h-38zm-660-430h38v12h-38zm220-1h38v12h-38zm219 0h38v12h-38zm438 0h38v12h-38zm-217 0h38v12h-38zm-660 311h38v12h-38zm0 287h38v12h-38zm220-288h38v12h-38zm0 287h38v12h-38zm219-287h38v12h-38zm0 287h38v12h-38zm438-287h38v12h-38zm0 287h38v12h-38zm-217-287h38v12h-38zm0 287h38v12h-38zm-660-428h38v12h-38zm0 287h38v12h-38zm220-288h38v12h-38zm0 287h38v12h-38zm219-287h38v12h-38zm0 287h38v12h-38zm438-287h38v12h-38zm0 287h38v12h-38zm-217-287h38v12h-38zm0 287h38v12h-38zm-660-430h38v12h-38zm220-1h38v12h-38zm219 0h38v12h-38zm438 0h38v12h-38zm-217 0h38v12h-38zm-660 311h38v12h-38zm0 287h38v12h-38zm220-288h38v12h-38zm0 287h38v12h-38zm219-287h38v12h-38zm0 287h38v12h-38zm438-287h38v12h-38zm0 287h38v12h-38zm-217-287h38v12h-38zm0 287h38v12h-38zm-660-428h38v12h-38zm0 287h38v12h-38zm220-288h38v12h-38zm0 287h38v12h-38zm219-287h38v12h-38zm0 287h38v12h-38zm438-287h38v12h-38zm0 287h38v12h-38zm-217-287h38v12h-38zm0 287h38v12h-38zm-660-430h38v12h-38zm220-1h38v12h-38zm219 0h38v12h-38zm438 0h38v12h-38zm-217 0h38v12h-38zm-660 168h38v12h-38zm0 287h38v12h-38zm220-288h38v12h-38zm0 287h38v12h-38zm219-287h38v12h-38zm0 287h38v12h-38zm438-287h38v12h-38zm0 287h38v12h-38zm-217-287h38v12h-38zm0 287h38v12h-38zm-660-430h38v12h-38zm0 287h38v12h-38zm220-288h38v12h-38zm0 287h38v12h-38zm219-287h38v12h-38zm0 287h38v12h-38zm438-287h38v12h-38zm0 287h38v12h-38zm-217-287h38v12h-38zm0 287h38v12h-38z" fill="#ebf0fa"/>
 </g>
</svg>
