<svg xmlns="http://www.w3.org/2000/svg" xmlns:xlink="http://www.w3.org/1999/xlink" viewBox="0 0 16 28"><defs><style>.cls-1{fill:url(#linear-gradient);}.cls-2,.cls-3{fill:#fff;}.cls-3{opacity:0.4;}</style><linearGradient id="linear-gradient" x1="-2.25" y1="6.88" x2="18.08" y2="21.12" gradientUnits="userSpaceOnUse"><stop offset="0" stop-color="#6a6ad9"/><stop offset="1" stop-color="#3498db"/></linearGradient></defs><title>Widget_Mods_Designs_161122_V1-2_AN</title><g id="Visuals"><rect class="cls-1" x="0.92" y="1" width="14" height="26" rx="2" ry="2"/><path class="cls-2" d="M9.92,14a2,2,0,1,0-2,2A2,2,0,0,0,9.92,14Zm-3,0a1,1,0,1,1,1,1A1,1,0,0,1,6.92,14Z"/><path class="cls-2" d="M9.92,19a2,2,0,1,0-2,2A2,2,0,0,0,9.92,19Zm-3,0a1,1,0,1,1,1,1A1,1,0,0,1,6.92,19Z"/><path class="cls-2" d="M9.92,9a2,2,0,1,0-2,2A2,2,0,0,0,9.92,9Zm-3,0a1,1,0,1,1,1,1A1,1,0,0,1,6.92,9Z"/><circle class="cls-3" cx="7.92" cy="9" r="1"/><circle class="cls-3" cx="7.92" cy="14" r="1"/><circle class="cls-3" cx="7.92" cy="19" r="1"/></g></svg>
