<svg xmlns="http://www.w3.org/2000/svg" width="16" height="16" viewBox="0 0 16 16">
  <defs>
    <style>
      .a, .b {
        fill: #c7d2e8;
      }

      .a {
        opacity: 0.4;
      }
    </style>
  </defs>
  <title>Results_Chart-of-the-DaySVG</title>
  <g>
    <rect class="a" x="2" y="2" width="12" height="3"/>
    <path class="b" d="M3.1,7.3A5.5,5.5,0,0,1,4.9,7a2.2,2.2,0,0,1,1.4.4,1.5,1.5,0,0,1,.4,1.2,1.4,1.4,0,0,1-.1.6l-.3.4L6,9.9l.7.5a1.4,1.4,0,0,1,.2.8,1.8,1.8,0,0,1-.5,1.4,2.1,2.1,0,0,1-1.5.4H3V12l1.7.2q1.1,0,1.1-.9a.8.8,0,0,0-.3-.6l-.7-.2H3.7V9.5H4.8l.6-.3a.9.9,0,0,0,.3-.7A.7.7,0,0,0,5.5,8l-.7-.2H3.1Z"/>
    <path class="b" d="M9.2,7.7A2,2,0,0,1,10.8,7a2,2,0,0,1,1.6.7A3.9,3.9,0,0,1,13,10a3.7,3.7,0,0,1-.5,2.3,2,2,0,0,1-1.6.7,2,2,0,0,1-1.6-.7A3.7,3.7,0,0,1,8.6,10,3.9,3.9,0,0,1,9.2,7.7Zm2.6.6a1,1,0,0,0-.9-.5,1,1,0,0,0-.9.5A3.6,3.6,0,0,0,9.6,10a3.4,3.4,0,0,0,.3,1.7,1,1,0,0,0,.9.5,1,1,0,0,0,.9-.5A3.5,3.5,0,0,0,12,10,3.7,3.7,0,0,0,11.7,8.3Z"/>
    <path class="b" d="M14,0H2A2,2,0,0,0,0,2V14a2,2,0,0,0,2,2H14a2,2,0,0,0,2-2V2A2,2,0,0,0,14,0Zm0,14H2V6H14Zm0-9H2V2H14Z"/>
  </g>
</svg>
