<svg xmlns="http://www.w3.org/2000/svg" width="16" height="16" viewBox="0 0 16 16">
  <defs>
    <style>
      .a {
        fill: #c7d2e8;
      }
    </style>
  </defs>
  <title>Results_InfographicsSVG</title>
  <g>
    <path class="a" d="M16,4a2,2,0,0,0-2-2H2A2,2,0,0,0,0,4v8a2,2,0,0,0,2,2H14a2,2,0,0,0,2-2Zm-2,8H2V4H14Z"/>
    <rect class="a" x="10" y="6" width="3" height="1" rx="0.5" ry="0.5"/>
    <rect class="a" x="10" y="9" width="3" height="1" rx="0.5" ry="0.5"/>
    <g>
      <path class="a" d="M6,10a2,2,0,0,1-.5-3.9v-1a3,3,0,1,0,2.2,5.4L7,9.7A2,2,0,0,1,6,10Z"/>
      <path class="a" d="M8,8a2,2,0,0,1-.3,1l.7.7A3,3,0,0,0,6.5,5.1v1A2,2,0,0,1,8,8Z"/>
    </g>
  </g>
</svg>
