<svg xmlns="http://www.w3.org/2000/svg" width="12" height="32" viewBox="0 0 12 32">

<svg xmlns="http://www.w3.org/2000/svg" width="12" height="16" x="0" y="0" viewBox="0 0 12 16">
    <g fill="#C7D2E8" fill-rule="evenodd">
        <path d="M6 0a6 6 0 0 1 6 6 5.976 5.976 0 0 1-2 4.463V12a1 1 0 0 1-1 1 3 3 0 1 1-6 0 1 1 0 0 1-1-1v-1.537A5.976 5.976 0 0 1 0 6a6 6 0 0 1 6-6zm2.664 8.975A4.003 4.003 0 0 0 10 6c0-2.205-1.794-4-4-4S2 3.795 2 6c0 1.129.486 2.213 1.335 2.975l.03.025h5.271l.028-.025zM8 11v-1H4v1h4zm-1 2v-1H5v1a1.001 1.001 0 0 0 2 0zm.5-8a.5.5 0 0 1 0 1H7v1a1 1 0 1 1-2 0V6h-.5a.5.5 0 0 1 0-1h3z"/>
        <path fill-opacity=".4" d="M6 14c-.552 0-1-.449-1-1v-1h2v1c0 .551-.448 1-1 1zm-2-4h4v1H4v-1z"/>
    </g>
</svg>

<svg xmlns="http://www.w3.org/2000/svg" width="12" height="16" x="0" y="16" viewBox="0 0 12 16">
    <g fill="#3498db" fill-rule="evenodd">
        <path d="M6 0a6 6 0 0 1 6 6 5.976 5.976 0 0 1-2 4.463V12a1 1 0 0 1-1 1 3 3 0 1 1-6 0 1 1 0 0 1-1-1v-1.537A5.976 5.976 0 0 1 0 6a6 6 0 0 1 6-6zm2.664 8.975A4.003 4.003 0 0 0 10 6c0-2.205-1.794-4-4-4S2 3.795 2 6c0 1.129.486 2.213 1.335 2.975l.03.025h5.271l.028-.025zM8 11v-1H4v1h4zm-1 2v-1H5v1a1.001 1.001 0 0 0 2 0zm.5-8a.5.5 0 0 1 0 1H7v1a1 1 0 1 1-2 0V6h-.5a.5.5 0 0 1 0-1h3z"/>
        <path fill-opacity=".4" d="M6 14c-.552 0-1-.449-1-1v-1h2v1c0 .551-.448 1-1 1zm-2-4h4v1H4v-1z"/>
    </g>
</svg>

</svg>
