<svg xmlns="http://www.w3.org/2000/svg" width="12" height="14" viewBox="0 0 12 14">
    <g fill="none" fill-rule="evenodd">
        <path fill="#FFF" d="M6.432.117a.856.856 0 0 0-.864 0l-5.143 3a.857.857 0 0 0-.425.74v6c0 .306.161.588.425.741l5.143 3a.854.854 0 0 0 .864 0l5.143-3a.855.855 0 0 0 .425-.74v-6a.857.857 0 0 0-.425-.741l-5.143-3z"/>
        <path fill="#63B7E6" d="M1 9.784V4.52l4.5 2.625v5.264z"/>
        <path fill="#D50181" d="M6.5 12.409V7.145L11 4.52v5.264z"/>
        <path fill="#4465AA" d="M6 1.015l4.512 2.632L6 6.28 1.488 3.647z"/>
    </g>
</svg>
