<svg xmlns="http://www.w3.org/2000/svg" width="180" height="180" viewBox="0 0 180 180">
  <defs>
    <style>
      .a {
        fill: #eceef1;
      }

      .b {
        fill: #cfd3dd;
      }

      .c {
        fill: none;
      }

      .d {
        fill: #434f5d;
        fill-rule: evenodd;
      }

      .e, .i {
        fill: #283645;
      }

      .e, .h {
        opacity: 0.24;
      }

      .f {
        fill: #3498db;
      }

      .g {
        fill: #d5007f;
      }

      .j {
        fill: #fff;
      }
    </style>
  </defs>
  <title>Results_ErrorSVG</title>
  <g>
    <ellipse class="a" cx="90" cy="158.1" rx="81.6" ry="9.8"/>
    <path class="b" d="M40.9,70.4v55.2a8.3,8.3,0,0,0,8.3,8.3h68a10.6,10.6,0,0,0,10.6-10.6V70.4a2.3,2.3,0,0,0-2.3-2.3H43.2A2.3,2.3,0,0,0,40.9,70.4Z"/>
    <g>
      <g>
        <g>
          <path class="c" d="M90.9,20.2l-2.3.2.2,2.3H91Z"/>
          <path class="d" d="M88.7,21.5a1.1,1.1,0,1,1,1.2,1A1.1,1.1,0,0,1,88.7,21.5Z"/>
        </g>
        <g>
          <path class="c" d="M85.5,20.7l-2.3.3.3,2.2,2.2-.3Z"/>
          <path class="d" d="M83.3,22.1a1.1,1.1,0,1,1,2.3-.3,1.2,1.2,0,0,1-1,1.3A1.1,1.1,0,0,1,83.3,22.1Z"/>
        </g>
        <g>
          <path class="c" d="M81.1,21.4l-2.3.5.5,2.2,2.2-.5Z"/>
          <path class="d" d="M79.1,23a1.1,1.1,0,1,1,1.3.9A1.1,1.1,0,0,1,79.1,23Z"/>
        </g>
        <g>
          <path class="c" d="M76.8,22.4l-2.2.7.7,2.2,2.1-.6Z"/>
          <path class="d" d="M74.9,24.1a1.1,1.1,0,1,1,1.4.7A1.1,1.1,0,0,1,74.9,24.1Z"/>
        </g>
        <g>
          <path class="c" d="M72.5,23.8l-2.2.9,1,2.1,2-.9Z"/>
          <path class="d" d="M70.8,25.7a1.1,1.1,0,1,1,2.1-.9,1.1,1.1,0,0,1-2.1.9Z"/>
        </g>
        <g>
          <path class="c" d="M68.4,25.7l-2,1.2,1.3,1.9,1.9-1.1Z"/>
          <path class="d" d="M67,27.8a1.1,1.1,0,1,1,2-1.2,1.1,1.1,0,0,1-2,1.2Z"/>
        </g>
        <g>
          <path class="c" d="M64.6,28.1l-1.8,1.6,1.6,1.6L66,29.9Z"/>
          <path class="d" d="M63.6,30.5A1.1,1.1,0,1,1,65.3,29a1.1,1.1,0,0,1-1.7,1.5Z"/>
        </g>
        <g>
          <path class="c" d="M61.3,31.3l-1.5,1.9,1.9,1.3,1.3-1.7Z"/>
          <path class="d" d="M60.8,33.8A1.1,1.1,0,1,1,62.2,32a1.1,1.1,0,0,1-1.4,1.8Z"/>
        </g>
        <g>
          <path class="c" d="M58.7,35.1a21.9,21.9,0,0,0-1,2.2l2.1.8a19.7,19.7,0,0,1,.9-1.9Z"/>
          <path class="d" d="M58.8,37.7a1.1,1.1,0,1,1,.9-2.1,1.1,1.1,0,0,1-.9,2.1Z"/>
        </g>
        <g>
          <path class="c" d="M57.1,39.4a18.9,18.9,0,0,0-.5,2.4l2.3.3a16.6,16.6,0,0,1,.4-2.1Z"/>
          <path class="d" d="M57.8,41.9a1.1,1.1,0,1,1,.4-2.2,1.1,1.1,0,0,1-.4,2.2Z"/>
        </g>
        <g>
          <path class="c" d="M56.5,43.9a21.8,21.8,0,0,0,.1,2.4l2.3-.2a19.6,19.6,0,0,1-.1-2.2Z"/>
          <path class="d" d="M57.7,46.2a1.1,1.1,0,1,1-.1-2.3,1.1,1.1,0,0,1,.1,2.3Z"/>
        </g>
        <g>
          <path class="c" d="M56.8,48.5c.1.8.3,1.6.5,2.3l2.2-.6c-.2-.7-.4-1.4-.5-2.1Z"/>
          <path class="d" d="M58.4,50.5a1.1,1.1,0,1,1-.5-2.2,1.1,1.1,0,0,1,.5,2.2Z"/>
        </g>
        <g>
          <path class="c" d="M58,52.9A22.8,22.8,0,0,0,59,55l2-1a20.4,20.4,0,0,1-.9-2Z"/>
          <path class="d" d="M60,54.5a1.1,1.1,0,1,1-.9-2.1,1.1,1.1,0,0,1,.9,2.1Z"/>
        </g>
        <g>
          <path class="c" d="M60,56.9l1.3,2,1.8-1.3L62,55.8Z"/>
          <path class="d" d="M62.2,58.3A1.1,1.1,0,1,1,61,56.4a1.1,1.1,0,0,1,1.3,1.9Z"/>
        </g>
        <g>
          <path class="c" d="M62.7,60.6l1.7,1.7,1.6-1.7-1.5-1.6Z"/>
          <path class="d" d="M65.1,61.5a1.1,1.1,0,1,1-1.6-1.6,1.1,1.1,0,0,1,1.6,1.6Z"/>
        </g>
        <g>
          <path class="c" d="M66,63.8l2,1.3,1.1-2L67.4,62Z"/>
          <path class="d" d="M68.6,64.1a1.1,1.1,0,1,1-1.9-1.3,1.1,1.1,0,0,1,1.9,1.3Z"/>
        </g>
        <g>
          <path class="c" d="M70,66.1l2.3.8.5-2.2-2-.6Z"/>
          <path class="d" d="M72.6,65.7a1.1,1.1,0,1,1-2.2-.7,1.1,1.1,0,0,1,2.2.7Z"/>
        </g>
        <g>
          <path class="c" d="M74.6,67.2h2.5l-.3-2.3H74.7Z"/>
          <path class="d" d="M76.9,66a1.1,1.1,0,1,1-2.3.1,1.1,1.1,0,0,1,2.3-.1Z"/>
        </g>
        <g>
          <path class="c" d="M79.3,66.7l2.3-.9-1.1-2-1.9.8Z"/>
          <path class="d" d="M81,64.7a1.1,1.1,0,1,1-2.1.9,1.1,1.1,0,0,1,2.1-.9Z"/>
        </g>
        <g>
          <path class="c" d="M83.5,64.5,85.3,63l-1.6-1.6-1.6,1.4Z"/>
          <path class="d" d="M84.5,62.2a1.1,1.1,0,1,1-1.7,1.5,1.1,1.1,0,0,1,1.7-1.5Z"/>
        </g>
        <g>
          <path class="c" d="M86.8,61.4a14.1,14.1,0,0,0,1.5-2l-2-1.2a11.9,11.9,0,0,1-1.2,1.7Z"/>
          <path class="d" d="M87.3,58.8a1.1,1.1,0,0,1,.3,1.6,1.1,1.1,0,0,1-1.6.2,1.2,1.2,0,0,1-.2-1.6A1.2,1.2,0,0,1,87.3,58.8Z"/>
        </g>
        <g>
          <path class="c" d="M89.2,57.2a4.4,4.4,0,0,0-.4-3l-2,1a2.1,2.1,0,0,1,.2,1.5Z"/>
          <path class="d" d="M87.9,54.7a.9.9,0,0,1,.9,0,1.3,1.3,0,0,1,.2,2,1,1,0,0,1-.9.2,1.4,1.4,0,0,1-.7-.4,1,1,0,0,1-.3-.6A1.5,1.5,0,0,1,87.9,54.7Z"/>
        </g>
        <g>
          <path class="c" d="M87.1,52.3a10.4,10.4,0,0,0-2.3-1.1L84,53.3l1.8.9Z"/>
          <path class="d" d="M84.4,52.2a1.1,1.1,0,0,1,1.5-.6,1.1,1.1,0,0,1,.5,1.6,1.2,1.2,0,0,1-1.5.5A1.2,1.2,0,0,1,84.4,52.2Z"/>
        </g>
        <g>
          <path class="c" d="M82.6,50.6l-2.4-.4L80,52.5l2.1.3Z"/>
          <path class="d" d="M80.2,51.4a1.1,1.1,0,1,1,2.3.3,1.1,1.1,0,0,1-2.3-.3Z"/>
        </g>
        <g>
          <path class="c" d="M78.2,50.1H75.8v2.3H78Z"/>
          <path class="d" d="M75.8,51.2a1.1,1.1,0,1,1,2.3,0,1.1,1.1,0,0,1-2.3,0Z"/>
        </g>
        <g>
          <path class="c" d="M73.7,50.1l-2.3.2.2,2.3,2.2-.2Z"/>
          <path class="d" d="M71.5,51.4a1.1,1.1,0,1,1,2.3-.2,1.1,1.1,0,0,1-2.3.2Z"/>
        </g>
        <g>
          <path class="c" d="M69.3,50.5l-2.3.3.3,2.2,2.2-.3Z"/>
          <path class="d" d="M67.2,51.9a1.1,1.1,0,1,1,2.3-.3,1.1,1.1,0,0,1-2.3.3Z"/>
        </g>
        <g>
          <path class="c" d="M64.9,51.1l-2.3.5.5,2.2,2.2-.4Z"/>
          <path class="d" d="M62.9,52.7a1.1,1.1,0,1,1,1.3.9A1.1,1.1,0,0,1,62.9,52.7Z"/>
        </g>
        <g>
          <path class="c" d="M60.6,52.1l-2.2.6.6,2.2,2.2-.6Z"/>
          <path class="d" d="M58.7,53.7a1.1,1.1,0,1,1,1.4.8A1.1,1.1,0,0,1,58.7,53.7Z"/>
        </g>
        <g>
          <path class="c" d="M56.3,53.2l-2.2.7.7,2.1,2.1-.7Z"/>
          <path class="d" d="M54.5,55a1.1,1.1,0,1,1,1.4.7A1.1,1.1,0,0,1,54.5,55Z"/>
        </g>
        <g>
          <path class="c" d="M52.2,54.7l-2.2.9.9,2.1,2.1-.8Z"/>
          <path class="d" d="M50.5,56.6a1.1,1.1,0,1,1,2.1-.9,1.1,1.1,0,0,1-2.1.9Z"/>
        </g>
        <g>
          <path class="c" d="M48.1,56.4,46,57.5l1.1,2,2-1Z"/>
          <path class="d" d="M46.5,58.5a1.1,1.1,0,1,1,2-1,1.1,1.1,0,0,1-2,1Z"/>
        </g>
        <g>
          <path class="c" d="M44.2,58.6l-2,1.3,1.3,1.9,1.8-1.2Z"/>
          <path class="d" d="M42.8,60.8a1.1,1.1,0,1,1,1.9-1.3,1.1,1.1,0,0,1-1.9,1.3Z"/>
        </g>
        <g>
          <path class="c" d="M40.5,61.2l-1.8,1.6,1.6,1.6,1.6-1.5Z"/>
          <path class="d" d="M39.5,63.6a1.1,1.1,0,1,1,1.7-1.5,1.1,1.1,0,0,1-1.7,1.5Z"/>
        </g>
        <g>
          <path class="c" d="M37.3,64.5a14.5,14.5,0,0,0-1.4,2l2,1.1a12.3,12.3,0,0,1,1.2-1.8Z"/>
          <path class="d" d="M36.9,67.1a1.1,1.1,0,1,1,1.3-1.9,1.1,1.1,0,0,1-1.3,1.9Z"/>
        </g>
        <g>
          <path class="c" d="M35,68.6c-.2.4-.2.8-.4,1.2l-.2,1.2,2.2.4.2-1.1c.1-.3.2-.7.3-1Z"/>
          <path class="d" d="M35.5,71.2a1.1,1.1,0,0,1-.9-1.4,1.1,1.1,0,0,1,1.4-.8,1.2,1.2,0,0,1,.8,1.4A1.1,1.1,0,0,1,35.5,71.2Z"/>
        </g>
        <g>
          <path class="c" d="M34.1,73c-.1.8-.1,1.6-.2,2.4h2.3c.1-.7.1-1.5.2-2.2Z"/>
          <path class="d" d="M35,75.5a1.1,1.1,0,1,1,.2-2.3,1.1,1.1,0,0,1-.2,2.3Z"/>
        </g>
        <g>
          <path class="c" d="M33.8,77.6c.1.8.1,1.6.2,2.4l2.3-.3c-.1-.7-.1-1.4-.2-2.2Z"/>
          <path class="d" d="M35.2,79.8a1.1,1.1,0,1,1-.2-2.3,1.1,1.1,0,0,1,.2,2.3Z"/>
        </g>
        <g>
          <path class="c" d="M34.4,82.1a21.2,21.2,0,0,0,.7,2.3l2.1-.8a18.9,18.9,0,0,1-.6-2.1Z"/>
          <path class="d" d="M36.2,84a1.1,1.1,0,1,1-.6-2.2,1.1,1.1,0,0,1,.6,2.2Z"/>
        </g>
        <g>
          <path class="c" d="M36,86.4a22.8,22.8,0,0,0,1.2,2.1l1.9-1.2a20.5,20.5,0,0,1-1-1.9Z"/>
          <path class="d" d="M38.1,87.9a1.1,1.1,0,1,1-1.1-2,1.1,1.1,0,0,1,1.1,2Z"/>
        </g>
        <g>
          <polygon class="c" points="38.4 90.3 39.2 91.2 40 92.1 41.6 90.5 40.9 89.7 40.2 88.9 38.4 90.3"/>
          <path class="d" d="M40.8,91.3a1.1,1.1,0,1,1,.1-1.6A1.1,1.1,0,0,1,40.8,91.3Z"/>
        </g>
        <g>
          <path class="c" d="M41.6,93.6,43.5,95l1.3-1.9-1.7-1.3Z"/>
          <path class="d" d="M44.1,94.1a1.1,1.1,0,1,1-1.8-1.4,1.1,1.1,0,0,1,1.8,1.4Z"/>
        </g>
        <g>
          <path class="c" d="M45.3,96.2l2.1,1.2,1-2-1.9-1.1Z"/>
          <path class="d" d="M47.9,96.3a1.1,1.1,0,1,1-2-1.1,1.1,1.1,0,0,1,2,1.1Z"/>
        </g>
        <g>
          <path class="c" d="M49.3,98.3l2.2.9.8-2.1-2.1-.8Z"/>
          <path class="d" d="M51.8,98.1a1.1,1.1,0,1,1-2.1-.9,1.1,1.1,0,0,1,2.1.9Z"/>
        </g>
        <g>
          <polygon class="c" points="53.4 99.9 55.7 100.5 56.3 98.4 54.1 97.7 53.4 99.9"/>
          <path class="d" d="M56,99.5a1.1,1.1,0,0,1-2.2-.7,1.1,1.1,0,0,1,2.2.7Z"/>
        </g>
        <g>
          <polygon class="c" points="57.7 101.1 60 101.6 60.4 99.3 58.2 98.9 57.7 101.1"/>
          <path class="d" d="M60.2,100.5A1.1,1.1,0,0,1,58,100a1.1,1.1,0,0,1,2.2.5Z"/>
        </g>
        <g>
          <path class="c" d="M62,102l2.3.4.3-2.3-2.2-.3Z"/>
          <path class="d" d="M64.5,101.2a1.1,1.1,0,0,1-1.3,1,1.1,1.1,0,0,1-1-1.3,1.2,1.2,0,0,1,1.3-.9A1.1,1.1,0,0,1,64.5,101.2Z"/>
        </g>
        <g>
          <path class="c" d="M66.4,102.6l2.3.2.2-2.3-2.2-.2Z"/>
          <path class="d" d="M68.8,101.7a1.1,1.1,0,1,1-2.3-.2,1.1,1.1,0,0,1,2.3.2Z"/>
        </g>
        <path class="d" d="M69.6,104.3l-.2,2.5c2.3-1.5,4.4-3.1,6.5-4.7-2-1.7-3.9-3.5-5.7-5.3L70,99.3Z"/>
      </g>
      <path class="e" d="M135.3,78.7H88.5a2.3,2.3,0,0,1-2.3-2.3V74.2A2.3,2.3,0,0,0,84,71.9H58.3A2.3,2.3,0,0,0,56,74.2v51.4a8.3,8.3,0,0,1-8.3,8.3H118a19.6,19.6,0,0,0,19.6-19.6V81A2.3,2.3,0,0,0,135.3,78.7Z"/>
      <g>
        <path class="a" d="M136.8,80.2H90a2.3,2.3,0,0,1-2.3-2.3V75.7a2.3,2.3,0,0,0-2.3-2.3H59.8a2.3,2.3,0,0,0-2.3,2.3v49.9a8.3,8.3,0,0,1-8.3,8.3h70.3a19.6,19.6,0,0,0,19.6-19.6V82.5A2.3,2.3,0,0,0,136.8,80.2Z"/>
        <rect class="f" x="60.5" y="76.4" width="4.5" height="1.51" rx="0.6" ry="0.6"/>
        <rect class="g" x="66.6" y="76.4" width="18.1" height="1.51" rx="0.6" ry="0.6"/>
      </g>
    </g>
    <g class="h">
      <circle class="i" cx="91.1" cy="104" r="1.9"/>
      <circle class="i" cx="106.2" cy="104" r="1.9"/>
      <rect class="i" x="93.8" y="111.2" width="9.8" height="1.51" rx="0.6" ry="0.6"/>
      <g>
        <path class="i" d="M92.3,97.6a9.4,9.4,0,0,0-5.5,1.5,1.1,1.1,0,0,0-.4.5c-.4.8.6,1.2,1.2.8h.1a6.5,6.5,0,0,1,2.5-1l1.3-.2h.8c.4,0,.7-.1.9-.5A.8.8,0,0,0,92.3,97.6Z"/>
        <path class="i" d="M110.9,99.3a7.7,7.7,0,0,0-4.6-1.7,3.6,3.6,0,0,0-1.5,0c-.9.4-.3,1.4.4,1.4h.7a8.6,8.6,0,0,1,2.7.6l1.1.6h.1C110.6,100.9,111.7,100.1,110.9,99.3Z"/>
      </g>
    </g>
    <g>
      <path class="j" d="M96.2,20a2.4,2.4,0,0,1-1.9-3.8,2.4,2.4,0,0,1,2-1,2.4,2.4,0,0,1,0,4.8Z"/>
      <path class="b" d="M96.2,16.2a1.4,1.4,0,1,1-1.1.6,1.4,1.4,0,0,1,1.1-.6m0-2a3.4,3.4,0,1,0,2,.6,3.4,3.4,0,0,0-2-.6Z"/>
    </g>
    <g>
      <path class="j" d="M100.5,23.1a2.4,2.4,0,1,1,2-1A2.4,2.4,0,0,1,100.5,23.1Z"/>
      <path class="b" d="M100.5,19.3a1.4,1.4,0,1,1-1.1.6,1.4,1.4,0,0,1,1.1-.6m0-2a3.4,3.4,0,1,0,2,.6,3.4,3.4,0,0,0-2-.6Z"/>
    </g>
    <circle class="b" cx="96.8" cy="21.3" r="3" transform="translate(23.1 87.5) rotate(-54.3)"/>
  </g>
</svg>
