<svg xmlns="http://www.w3.org/2000/svg" width="16" height="16" viewBox="0 0 16 16">
  <defs>
    <style>
      .a, .b {
        fill: #c7d2e8;
      }

      .b {
        opacity: 0.4;
      }
    </style>
  </defs>
  <title>Results_ReportsSVG</title>
  <g>
    <path class="a" d="M13,0H3A2,2,0,0,0,1,2V14a2,2,0,0,0,2,2H13a2,2,0,0,0,2-2V2A2,2,0,0,0,13,0Zm0,14H3V2H13Z"/>
    <path class="a" d="M9.5,9a.5.5,0,0,0,0-1h-5a.5.5,0,0,0,0,1Z"/>
    <path class="a" d="M5.5,11a.5.5,0,0,0,0-1h-1a.5.5,0,0,0,0,1Z"/>
    <path class="a" d="M11.5,9a.5.5,0,0,0,0-1h0a.5.5,0,0,0,0,1Z"/>
    <path class="a" d="M11.5,11a.5.5,0,0,0,0-1h-4a.5.5,0,0,0,0,1Z"/>
    <path class="a" d="M11.5,13a.5.5,0,0,0,0-1h-2a.5.5,0,0,0,0,1Z"/>
    <path class="a" d="M7.5,13a.5.5,0,0,0,0-1h-3a.5.5,0,0,0,0,1Z"/>
    <path class="a" d="M11,3H5A1,1,0,0,0,4,4V6A1,1,0,0,0,5,7h6a1,1,0,0,0,1-1V4A1,1,0,0,0,11,3Zm0,3H5V4h6Z"/>
    <rect class="b" x="5" y="4" width="6" height="2"/>
  </g>
</svg>
