<svg xmlns="http://www.w3.org/2000/svg" width="15" height="49" viewBox="0 0 15 49"><path d="M7.5 12.857a5.357 5.357 0 1 1 0-10.714 5.357 5.357 0 0 1 0 10.714M7.5 0a7.5 7.5 0 1 0 0 15 7.5 7.5 0 0 0 0-15m0 19.143a5.357 5.357 0 1 0 0 10.714 5.357 5.357 0 0 0 0-10.714M7.5 32a7.5 7.5 0 1 1 0-15 7.5 7.5 0 0 1 0 15" fill="#8792a9"/><path d="M11.786 24.5A4.286 4.286 0 0 0 7.5 20.214c-.03 4.81-.014 5.922 0 8.572a4.286 4.286 0 0 0 4.286-4.286M7.5 36.143a5.357 5.357 0 1 0 0 10.714 5.357 5.357 0 0 0 0-10.714M7.5 49a7.5 7.5 0 1 1 0-15 7.5 7.5 0 0 1 0 15" fill="#8792a9"/><ellipse cx="7.515" cy="41.496" rx="4.25" ry="4.261" fill="#8792a9"/></svg>
